<svg width="263" height="302" viewBox="0 0 263 302" fill="none" xmlns="http://www.w3.org/2000/svg">
<path d="M67.0332 190.66C56.3304 181.653 54.6405 168.705 50.1341 157.446C47.3176 150.128 42.2478 143.936 37.1781 137.743C43.9377 156.883 39.9946 170.394 56.3304 183.905C53.5139 182.779 50.6974 180.527 48.4442 178.838C35.4882 168.142 16.3358 166.453 8.44956 149.002C10.7028 161.95 20.8423 173.209 31.545 180.527C42.2478 187.282 55.7671 186.719 67.0332 190.66ZM95.1984 197.415C96.8883 196.852 99.1415 196.852 101.395 196.289C93.5085 195.163 86.1855 192.349 80.5525 187.282C72.1029 179.401 64.78 171.52 55.7671 165.327C65.3433 184.467 68.7231 192.349 84.4956 195.726C84.4956 195.726 79.9892 195.163 77.736 194.6C60.8369 191.223 40.5579 195.726 28.1652 181.653C33.2349 190.66 42.8111 197.978 51.824 201.356C66.4699 205.859 81.6791 200.793 95.1984 197.415ZM117.731 196.289C90.692 196.289 76.6094 219.933 50.1341 204.17C63.0901 219.933 83.9323 221.059 100.831 210.363C107.591 205.859 113.787 199.667 122.237 199.667C135.193 199.667 149.276 213.177 161.105 225.562C163.358 223.873 165.048 222.185 166.738 220.496C154.345 208.674 136.32 196.289 117.731 196.289ZM41.6845 169.831C41.6845 169.831 38.3047 163.639 37.1781 159.698C33.2349 144.499 35.4882 125.922 28.7285 111.285C29.8551 119.729 26.4753 127.047 25.912 134.929C24.7854 145.625 28.7285 152.943 31.545 158.009C31.545 158.009 27.6019 152.943 25.912 150.128C18.0257 137.743 1.68991 129.299 0.563304 114.1C-1.68991 147.313 21.4056 156.32 41.6845 169.831ZM33.7983 71.3163C36.0515 66.8128 37.1781 61.1834 38.3047 56.1169C37.1781 58.3686 36.0515 60.6204 34.3616 62.3092C23.6588 71.3163 17.4624 76.3828 14.6459 90.4563L15.7725 78.0716C16.8991 65.6869 10.1395 52.1763 17.4624 41.4804C10.1395 49.3616 6.19635 59.4945 6.19635 69.6275C6.19635 83.1381 14.0826 92.7081 14.6459 105.656C16.8991 92.1451 28.1652 82.5751 33.7983 71.3163ZM29.8551 46.5469C34.9249 42.0434 41.1212 38.1028 45.6276 32.4734C50.6974 25.7181 55.2038 17.8369 61.9635 11.6445C52.9506 15.5851 42.8111 18.9628 36.6148 28.5328C33.2349 34.1622 32.6716 40.9175 29.8551 46.5469ZM18.589 73.5681C20.8423 69.0645 24.7854 64.561 28.7285 61.1834C38.868 53.8651 49.0075 44.2951 49.5708 31.9104C43.9377 45.421 26.4753 47.6728 22.5322 61.7463C22.5322 61.7463 24.7854 53.3022 25.3487 51.6134C28.1652 42.0434 27.6019 30.7845 37.1781 24.5922C18.589 28.5328 17.4624 48.7986 18.589 63.9981C18.589 67.3757 19.1523 70.1904 18.589 73.5681ZM21.4056 138.869C21.4056 138.869 20.2789 128.173 21.9689 123.67C26.4753 110.159 30.9817 95.5228 30.4184 81.4492C25.912 98.3375 11.8294 103.967 18.0257 127.047C15.7725 122.544 15.2092 117.477 13.5193 112.974C10.1395 100.589 0.563304 89.8934 3.37983 75.2569C-1.12661 88.2045 -1.12661 98.3375 3.37983 111.848C6.19635 121.981 16.3358 129.299 21.4056 138.869Z" fill="#0E21A0"/>
<path d="M195.467 190.66C206.17 181.653 207.859 168.705 212.366 157.446C215.182 150.128 220.252 143.936 225.322 137.743C218.562 156.883 222.505 170.394 206.17 183.905C208.986 182.779 211.803 180.527 214.056 178.838C227.012 168.142 246.164 166.453 254.05 149.002C251.797 161.95 241.658 173.209 230.955 180.527C220.252 187.282 206.733 186.719 195.467 190.66ZM167.302 197.415C165.612 196.852 163.358 196.852 161.105 196.289C168.992 195.163 176.314 192.349 181.948 187.282C190.397 179.401 197.72 171.52 206.733 165.327C197.157 184.467 193.777 192.349 178.004 195.726C178.004 195.726 182.511 195.163 184.764 194.6C201.663 191.223 221.942 195.726 234.335 181.653C229.265 190.66 219.689 197.978 210.676 201.356C196.03 205.859 180.821 200.793 167.302 197.415ZM144.769 196.289C171.808 196.289 185.891 219.933 212.366 204.17C199.41 219.933 178.568 221.059 161.669 210.363C154.909 205.859 148.713 199.667 140.263 199.667C127.307 199.667 113.224 213.177 101.395 225.562C99.1418 223.873 97.4519 222.185 95.762 220.496C108.155 208.674 126.18 196.289 144.769 196.289ZM220.815 169.831C220.815 169.831 224.195 163.639 225.322 159.698C229.265 144.499 227.012 125.922 233.771 111.285C232.645 119.729 236.025 127.047 236.588 134.929C237.715 145.625 233.771 152.943 230.955 158.009C230.955 158.009 234.898 152.943 236.588 150.128C244.474 137.743 260.81 129.299 261.937 114.1C264.19 147.313 241.094 156.32 220.815 169.831ZM228.702 71.3163C226.449 66.8128 225.322 61.1834 224.195 56.1169C225.322 58.3686 226.449 60.6204 228.138 62.3092C238.841 71.3163 245.038 76.3828 247.854 90.4563L246.727 78.0716C245.601 65.6869 252.361 52.1763 245.038 41.4804C252.361 49.3616 256.304 59.4945 256.304 69.6275C256.304 83.1381 248.417 92.7081 247.854 105.656C245.601 92.1451 234.335 82.5751 228.702 71.3163ZM232.645 46.5469C227.575 42.0434 221.379 38.1028 216.872 32.4734C211.803 25.7181 207.296 17.8369 200.537 11.6445C209.549 15.5851 219.689 18.9628 225.885 28.5328C229.265 34.1622 229.828 40.9175 232.645 46.5469ZM243.911 73.5681C241.658 69.0645 237.715 64.561 233.771 61.1834C223.632 53.8651 213.493 44.2951 212.929 31.9104C218.562 45.421 236.025 47.6728 239.968 61.7463C239.968 61.7463 237.715 53.3022 237.151 51.6134C234.335 42.0434 234.898 30.7845 225.322 24.5922C243.911 28.5328 245.038 48.7986 243.911 63.9981C243.911 67.3757 243.348 70.1904 243.911 73.5681ZM241.094 138.869C241.094 138.869 242.221 128.173 240.531 123.67C236.025 110.159 231.518 95.5228 232.082 81.4492C236.588 98.3375 250.671 103.967 244.474 127.047C246.727 122.544 247.291 117.477 248.981 112.974C252.361 100.589 261.937 89.8934 259.12 75.2569C263.627 88.2045 263.627 98.3375 259.12 111.848C256.304 121.981 246.164 129.299 241.094 138.869Z" fill="#0E21A0"/>
<path d="M131.25 187.283C181.96 187.283 223.068 146.2 223.068 95.5231C223.068 44.8458 181.96 3.76367 131.25 3.76367C80.5397 3.76367 39.4312 44.8458 39.4312 95.5231C39.4312 146.2 80.5397 187.283 131.25 187.283Z" stroke="#0E21A0" stroke-width="6"/>
<path d="M131.25 168.142C171.383 168.142 203.916 135.629 203.916 95.5227C203.916 55.4161 171.383 22.9033 131.25 22.9033C91.1178 22.9033 58.584 55.4161 58.584 95.5227C58.584 135.629 91.1178 168.142 131.25 168.142Z" stroke="#0E21A0" stroke-width="6"/>
<path d="M131.25 150.691C161.738 150.691 186.454 125.991 186.454 95.5227C186.454 65.0542 161.738 40.3545 131.25 40.3545C100.761 40.3545 76.0459 65.0542 76.0459 95.5227C76.0459 125.991 100.761 150.691 131.25 150.691Z" stroke="#0E21A0" stroke-width="6"/>
<path d="M131.25 131.551C151.16 131.551 167.301 115.42 167.301 95.5224C167.301 75.6245 151.16 59.4941 131.25 59.4941C111.339 59.4941 95.1982 75.6245 95.1982 95.5224C95.1982 115.42 111.339 131.551 131.25 131.551Z" stroke="#0E21A0" stroke-width="6"/>
<path d="M131.25 114.099C141.517 114.099 149.839 105.782 149.839 95.5224C149.839 85.2625 141.517 76.9453 131.25 76.9453C120.984 76.9453 112.661 85.2625 112.661 95.5224C112.661 105.782 120.984 114.099 131.25 114.099Z" stroke="#0E21A0" stroke-width="6"/>
<path d="M131.25 3.76367V76.946M131.25 114.1V187.283M66.4698 30.7849L118.294 82.5754M144.206 108.471L196.03 160.261M39.4312 95.5231H112.661M149.839 95.5231H223.068M66.4698 160.261L118.294 108.471M144.206 82.5754L196.03 30.7849" stroke="#0E21A0" stroke-width="6"/>
<path d="M126.8 118.153C127.025 117.703 127.476 115.902 128.039 116.465C128.603 117.027 128.941 116.465 128.941 116.465C128.941 116.465 129.222 116.746 129.053 117.309C128.941 117.872 128.772 118.435 128.434 118.547C128.096 118.604 127.814 118.829 127.363 118.885C127.025 118.941 126.8 118.153 126.8 118.153ZM131.419 117.422C131.532 117.309 131.701 117.872 131.983 117.759C132.264 117.703 132.377 118.266 132.095 118.266C131.814 118.266 131.814 118.604 131.814 118.773C131.814 118.941 131.814 119.279 131.588 119.504C131.363 119.73 131.194 119.561 130.912 119.448C130.631 119.279 130.518 119.279 130.124 119.279C129.786 119.279 130.067 119.842 130.067 119.842C130.067 119.842 128.603 119.786 128.884 119.561C129.166 119.336 129.448 119.279 129.222 119.11C128.997 118.941 129.222 118.829 129.222 118.547C129.222 118.266 129.898 118.379 129.729 118.21C129.504 117.984 129.729 117.196 130.067 117.647L130.293 117.14C130.067 116.915 130.236 116.859 129.786 116.69C129.391 116.521 129.729 115.676 129.729 115.676L129.786 115.113C129.898 114.382 131.307 114.325 131.419 114.945C131.476 115.564 131.419 116.014 131.419 116.014L131.814 116.183C131.814 116.183 131.757 116.633 131.419 116.633C131.081 116.633 131.419 116.859 131.194 117.084L131.419 117.422ZM183.3 83.1947C182.905 83.5888 182.06 83.7577 182.06 83.7577L181.779 84.8273L181.328 85.2213C181.328 85.2213 181.441 85.5028 181.328 86.1783C181.215 86.8538 180.37 87.2479 180.37 87.2479L179.976 87.6983C179.976 87.6983 177.723 87.8108 177.441 87.6983C176.596 87.3042 177.16 86.1783 177.723 86.2909C178.286 86.4035 177.61 84.6584 177.61 84.6584L178.342 84.5458C178.342 84.5458 178.455 82.857 178.737 82.857C179.018 82.857 178.624 82.294 178.286 82.0126C177.892 81.7311 177.441 80.7741 177.047 80.8867C176.653 80.9993 175.188 80.8867 175.188 80.8867L174.906 81.4496L173.892 81.6185C173.892 81.6185 174.005 82.3503 173.78 82.5755C173.216 83.251 171.076 84.6584 171.977 82.294L172.259 81.7311V80.8867L170.569 80.7741C170.569 80.7741 169.724 80.4926 169.724 80.0985C169.724 79.7045 169.611 79.2541 169.611 79.2541L167.64 77.0587L165.274 76.7772L165.105 76.3268L163.697 76.158C162.007 75.3136 160.486 76.0454 160.767 77.509C161.049 78.9164 161.5 79.4793 160.598 79.4793C159.641 79.4793 159.472 78.7475 159.472 78.7475C159.472 78.7475 158.739 78.466 158.739 78.8601C158.739 79.2541 158.458 79.986 158.739 80.38C159.021 80.7741 158.345 81.337 158.063 81.0555C157.782 80.7741 157.05 79.9297 157.219 79.6482C157.388 79.3667 155.923 77.5653 157.388 77.2838C158.908 77.0024 157.275 76.158 157.838 75.9328L158.57 75.5387H159.303L159.753 75.1447L158.514 74.9758L157.782 74.8632L156.374 74.7506C154.965 75.7076 154.684 76.8335 154.684 76.8335C153.951 78.2408 152.149 76.2706 152.825 75.4824C153.501 74.6943 150.741 75.3698 150.29 75.7639C149.839 76.158 148.431 75.9328 148.431 75.9328C148.149 76.7772 146.854 75.8202 147.192 75.2573C147.586 74.6943 147.586 74.3003 147.586 74.3003L147.135 74.1877L146.572 75.2573C145.276 75.2573 144.882 75.9891 145.164 76.4957C145.445 76.9461 144.77 76.3831 144.601 77.0587C144.432 77.7342 144.713 77.7342 145.276 78.0157C145.84 78.2971 144.995 78.2971 145.389 78.7475C145.783 79.1978 146.91 78.7475 146.234 79.423C145.558 80.0985 144.263 79.8171 144.263 79.8171C144.15 80.6615 142.404 80.4926 142.178 80.2111C142.009 79.9297 140.601 78.2408 140.601 78.2408L138.798 78.1283C138.63 76.7772 139.643 77.4527 140.038 76.4394C140.432 75.3698 140.601 73.681 140.601 73.681C140.601 73.681 139.08 73.5684 139.024 74.0751C138.911 74.5254 138.01 74.8632 138.01 74.8632C138.01 74.8632 137.278 75.1447 137.559 75.5387C137.841 75.9328 136.996 76.1017 136.996 76.1017C136.996 76.1017 137.165 76.7209 136.883 76.9461C136.151 77.7342 134.236 77.0587 133.954 76.7772L132.827 76.3268L131.701 75.595L130.405 76.158L130.011 76.552H128.603L128.49 77.6779L131.025 77.9594L131.194 80.3237L130.18 79.986H129.504L129.222 79.423L128.659 79.3104V81.3933L129.222 81.8437L129.673 82.294L130.631 82.4066L130.8 83.5325L133.165 83.6451L133.447 84.0954L134.855 84.208L137.559 86.9664L137.39 87.8108L136.94 88.0923C137.109 88.7678 135.7 88.3738 135.7 88.3738V88.9367L136.376 89.0493L137.052 89.4434L138.01 87.8108C139.024 87.1353 139.531 88.0923 139.587 88.6553C139.7 89.2182 139.136 89.1056 139.136 89.1056V90.4567L139.7 90.6255C140.657 91.7514 139.305 92.427 139.305 92.427L139.024 93.384C138.742 94.2284 137.728 94.0595 137.728 94.0595L137.334 94.6224L136.207 94.9039L138.404 95.1854C138.63 94.3973 139.193 94.2284 139.474 94.6224C139.756 95.0165 139.756 95.692 139.756 95.692L140.319 95.8046L140.207 96.8742L140.77 97.0431V100.083L141.446 100.815C142.573 100.364 142.573 101.096 142.009 101.49C141.446 101.884 141.84 103.573 141.84 103.573L141.39 104.024V104.812L140.826 105.206V106.275C139.869 105.825 138.742 105.994 138.461 106.275C137.616 105.712 135.813 105.881 135.813 106.388C136.376 107.12 135.137 107.345 135.137 107.345L134.461 108.077C134.912 109.034 134.01 109.146 134.01 109.146V110.948L132.884 112.017L132.996 114.494C132.996 115.17 134.405 115.226 134.686 114.888C134.968 114.494 136.095 115.676 136.095 115.676H136.94L137.109 113.988L136.545 113.706V110.948L137.503 109.878C138.63 109.484 138.235 112.355 138.235 112.637C138.348 113.706 138.798 113.594 139.249 113.368C140.207 112.974 139.418 114.438 138.686 114.325C137.954 114.213 138.404 115.282 138.404 115.282L138.855 115.451L138.01 116.127L137.278 116.971L136.32 116.69L135.193 116.577L134.799 115.902L134.123 115.789L134.01 117.14L133.56 117.703L132.433 118.829C133.954 118.829 132.264 119.898 131.87 119.898C132.715 120.18 131.757 121.024 129.617 120.349V121.024L128.884 121.137L129.56 121.869L130.293 121.981L130.011 123.614C130.011 124.852 126.913 124.008 126.631 123.726L126.518 125.415L125.955 125.528L126.068 126.654L125.955 128.286L126.969 128.117V128.793L129.504 128.906L133.165 125.021L135.306 124.571C135.475 123.614 136.433 124.74 136.433 124.74C137.39 124.627 137.559 125.303 137.559 125.303L138.798 125.472C139.812 125.753 139.193 125.866 139.249 126.26C139.362 126.823 139.812 126.654 139.812 126.654L139.981 125.415L140.545 125.528L139.981 124.852L138.967 124.402L137.841 123.952C137.109 122.882 138.01 123.107 138.798 123.22H140.038C140.038 123.22 141.446 125.134 141.446 125.584C141.446 126.035 142.122 126.147 142.122 126.147L142.967 126.035L143.249 126.71H144.094L144.375 127.273H146.065L146.178 126.429L144.601 126.147L144.488 125.19L143.361 124.909C142.967 123.276 143.643 122.826 144.094 123.558L144.657 123.67L144.488 122.263L145.164 122.094L144.995 120.124L144.432 119.955V119.279L146.797 119.392C146.628 118.153 146.91 117.59 146.91 117.59H147.586L147.699 118.041L150.572 118.322L152.599 116.014C152.487 115.845 152.825 115.733 152.599 115.508C152.318 115.226 151.923 115.508 151.473 115.226C151.022 114.945 151.473 113.312 151.36 112.974C151.248 112.58 152.937 112.017 152.656 112.862C152.374 113.706 152.656 114.1 152.656 114.1C153.895 112.974 154.909 114.213 154.796 114.494C154.684 114.776 155.472 115.057 155.923 114.776C156.374 114.494 156.937 115.62 156.768 116.183C156.599 116.746 154.909 116.633 154.796 116.07C154.684 115.508 154.402 115.676 154.233 115.958C154.064 116.239 153.219 116.408 152.712 116.127C152.599 116.07 152.599 116.014 152.543 115.958L150.515 118.266H150.628C151.754 118.941 151.191 119.786 150.797 119.955C150.403 120.124 149.783 120.124 149.783 120.124L149.614 120.518L147.192 120.687L147.023 121.644C145.783 121.475 145.333 122.769 145.614 123.445C145.896 124.121 145.614 124.683 145.614 124.683L146.628 125.134L147.924 124.74C148.093 123.783 148.938 123.614 149.727 123.051C150.459 122.488 151.698 124.121 151.304 124.852C150.91 125.584 150.91 125.922 150.91 125.922L151.022 126.766L150.065 127.16L149.332 127.554L149.22 128.005H146.685L146.234 128.455L144.995 128.568L144.601 129.131L143.756 129.243C143.756 129.243 142.347 129.919 142.911 130.651C143.474 131.439 140.545 131.326 139.925 130.257C139.756 131.214 138.686 130.369 138.686 130.369L137.672 130.088L137.559 128.68C137.39 127.723 135.588 127.723 135.7 128.399C135.813 129.074 132.32 128.68 132.32 128.68L131.194 129.243L130.18 129.863L130.067 130.313L128.377 130.482L127.645 130.876L127.363 130.313H126.631L125.899 131.382C123.927 131.495 122.068 132.621 122.237 133.071C122.406 133.522 121.505 134.028 121.505 134.028L120.66 134.31L120.097 135.154L118.97 135.548L118.801 137.519L118.238 137.913V138.757L117.562 138.926V139.376L116.604 139.489L117.168 140.896L117.9 141.29C119.196 141.459 118.632 143.092 118.632 143.092L119.365 143.204L119.759 144.274L120.491 145.794C120.773 146.92 121.618 146.638 122.012 146.582C122.406 146.469 122.744 147.708 122.744 147.708L126.462 147.82C126.462 147.82 126.293 148.214 126.913 148.383C127.589 148.552 131.87 148.777 132.039 148.496C131.87 147.651 134.405 147.426 135.419 148.214C136.433 148.946 137.841 148.496 137.841 148.496L139.249 150.185L140.207 152.268L141.784 152.718L142.911 152.999L143.305 154.632L144.15 154.745L144.432 155.814C145.445 156.546 144.15 158.178 144.15 158.178V160.261L144.882 160.655L144.77 161.444L146.009 162.682L147.417 162.795L150.966 166.566L153.782 167.411L154.233 168.931L154.965 168.818L155.529 168.368L157.782 168.255L158.908 167.186L160.148 167.017L170.569 158.178L169.611 157.616V155.533C171.301 154.294 171.414 152.099 169.78 151.93C168.597 151.761 169.104 150.522 170.231 150.297L170.907 150.016V149.171L173.047 147.201V145.681L168.372 141.797C166.288 141.065 168.372 136.505 169.78 136.562C171.188 136.674 169.668 129.525 169.668 129.525L168.935 129.131L169.104 126.823H168.09L166.4 129.018L165.95 130.538C165.781 132.508 159.979 132.171 159.697 131.889C159.415 131.608 157.444 130.763 157.444 130.763C157.444 130.763 155.923 129.525 155.641 129.919C155.36 130.313 154.064 129.468 154.064 129.75C154.064 130.031 152.825 129.074 152.825 129.074L150.966 128.399L152.374 128.117L152.092 126.992L154.515 128.23C154.796 128.624 156.036 128.511 156.036 128.511L156.43 128.962C156.43 128.962 157.162 128.849 157.669 129.412C158.12 129.975 160.598 129.525 160.598 129.525L161.274 130.088L162.288 130.482L165.217 130.594L165.33 128.793L165.893 128.23L165.781 127.104L166.457 126.541V125.584L167.02 125.415L167.133 123.332L167.583 123.22V118.66L166.175 117.309C166.062 117.759 164.598 117.759 164.598 117.759C164.598 117.759 164.204 118.435 163.922 118.435C163.64 118.435 164.316 119.279 164.091 119.842C163.922 120.405 163.133 120.405 163.133 120.405L161.725 120.799L161.331 121.25H159.81L159.641 120.011L161.331 119.561L162.288 119.11L162.739 118.153C162.852 117.196 163.978 117.309 163.978 117.309C163.978 117.309 166.119 115.508 166.231 114.663C166.344 113.819 167.076 111.454 168.372 111.454H170.794C171.752 111.06 171.47 109.822 171.47 109.822L172.709 109.653L172.878 110.328C172.878 110.328 174.568 110.497 174.737 110.216C174.906 109.934 175.301 109.259 175.751 109.54C176.202 109.822 177.723 108.865 177.723 108.865C177.835 108.189 180.145 108.471 180.145 108.471L180.427 107.626C180.427 107.626 178.849 105.431 178.568 105.431C178.286 105.431 176.765 104.08 176.596 104.586C175.075 104.192 175.188 102.11 175.188 102.11L174.625 100.758C174.625 99.9704 173.216 98.3941 172.935 98.563C171.526 97.4934 172.54 96.3113 172.935 96.1987C173.329 96.0861 174.23 94.7913 174.23 94.7913L174.681 93.4403L176.258 92.9899L176.427 91.7514L175.582 91.6388C175.582 91.6388 176.54 89.95 176.991 89.95C177.441 89.95 180.539 89.95 180.821 89.7811C181.103 89.6123 181.666 88.0923 181.666 87.8108C181.666 87.5294 182.398 87.4168 182.68 87.3605C182.962 87.2479 183.638 86.5161 183.807 86.122C184.313 85.165 183.694 82.8007 183.3 83.1947ZM209.268 113.537C209.212 113.368 209.155 113.199 208.986 113.143C208.592 112.974 207.86 113.256 207.522 113.481L207.86 113.931C208.198 113.706 208.705 113.594 208.761 113.65V113.594L209.268 113.537ZM211.69 124.852L211.127 124.796C211.07 125.246 211.183 125.809 211.634 125.866L211.746 125.303C211.746 125.303 211.69 125.078 211.69 124.852ZM213.774 122.601C213.943 123.164 214.112 123.726 214.112 123.783L214.619 123.558C214.619 123.558 214.394 122.995 214.281 122.432L213.774 122.601ZM215.014 122.15V122.038C215.014 121.869 214.957 121.644 214.845 121.418L214.338 121.7C214.394 121.812 214.394 121.981 214.45 122.094C214.45 122.263 214.507 122.432 214.619 122.544C214.732 122.601 214.845 122.657 215.014 122.601L214.901 122.038C214.901 122.094 214.957 122.094 215.014 122.15ZM210.225 126.203C210.62 125.978 211.127 125.472 211.07 126.541C211.014 127.611 210.563 127.273 210.225 127.611C209.887 127.949 209.662 126.541 210.225 126.203ZM187.637 133.522L187.693 132.677L188.595 132.79L188.538 133.578L187.637 133.522ZM187.693 135.379C187.581 134.873 187.017 134.704 186.961 134.704L186.792 135.267C186.848 135.267 186.905 135.323 186.961 135.379L187.074 135.886C187.017 135.942 186.961 135.999 186.961 136.055L187.355 136.449C187.637 135.999 187.75 135.717 187.693 135.379ZM117.675 152.943L117.111 153.45L116.83 153.675L117.111 153.9L117.787 154.35L118.125 153.9L117.731 153.619L118.013 153.393L117.675 152.943ZM124.322 159.755L124.096 160.261L124.66 160.543L124.491 160.768L124.885 161.162L125.617 160.43L125.279 160.205L124.322 159.755ZM98.4659 37.5965L99.0292 38.1594L98.6349 38.5535L98.0716 37.9906L98.4659 37.5965ZM115.478 55.3291L116.041 55.7795L115.703 56.2298L115.14 55.7795L115.478 55.3291ZM113.337 55.7232L113.45 56.7928H114.858C115.421 56.7928 114.407 56.1173 114.407 56.1173C114.407 56.1173 113.281 56.2298 113.337 55.7232ZM144.206 29.265L143.249 29.1524L143.192 29.7153L143.981 29.7716L144.601 30.7286L145.051 30.3909L144.432 29.3776L144.319 29.265H144.206ZM146.741 9.33685L146.459 9.8435L147.192 10.2939L147.361 10.4064L147.473 10.2939L148.544 9.61832L148.206 9.16797L147.361 9.73091L146.741 9.33685ZM151.754 12.039L151.304 11.5323L150.91 11.9827L151.754 12.8271L151.923 12.6582L152.881 11.8701L152.487 11.4197L151.754 12.039ZM120.66 31.7982C120.604 31.4604 122.519 31.4041 122.801 31.6856C123.082 31.9671 122.913 32.4737 123.758 32.4737C124.603 32.4737 124.209 33.0367 124.153 33.3181C124.04 33.5996 123.139 33.487 123.026 33.2056C122.913 32.9241 121.505 32.8115 121.505 32.8115C121.505 32.8115 120.773 32.2486 120.66 31.7982ZM131.419 30.7286C132.884 31.179 133.391 30.8412 133.503 30.4471C133.616 30.0531 133.672 29.9968 134.236 29.8842C134.799 29.7716 134.123 28.6457 133.56 28.7583C132.996 28.8709 132.433 28.5894 132.32 28.0828C132.208 27.6324 131.307 26.394 131.194 27.351C131.081 28.308 130.518 28.308 130.631 28.9835C130.8 29.6027 131.081 30.616 131.419 30.7286ZM140.714 14.6848C140.488 13.8404 139.305 15.7544 140.545 16.0921C141.784 16.4862 142.967 16.0921 142.967 16.0921L143.249 15.5292L147.924 15.6418C148.318 15.2477 148.487 14.6848 148.487 14.6848C148.487 14.6848 149.614 14.2907 150.065 14.5159C150.515 14.6848 150.177 13.1649 149.67 13.39C149.22 13.5589 148.262 13.5026 148.262 13.5026H146.572C146.459 12.8271 144.995 13.1086 144.882 13.5026C144.826 13.8404 144.263 13.953 144.263 13.953L142.122 14.1219C141.897 14.6848 140.826 15.0789 140.714 14.6848ZM140.883 19.3572L139.643 18.1187V17.0491L139.249 16.6551L138.855 15.304L137.616 14.91L136.376 15.3603L135.081 16.2047L133.672 16.3736L132.94 17.218L135.926 17.4995L136.489 18.4565L138.63 18.6254L140.038 20.0327C141.333 20.5957 141.615 20.0327 140.883 19.3572ZM145.22 28.4769L145.614 27.5761L146.121 27.8576L145.727 28.702L145.22 28.4769ZM173.216 27.5198C173.047 26.788 175.075 26.1125 175.582 26.6754C176.033 27.2384 177.385 27.351 177.554 30.1657C177.61 31.179 175.864 29.0961 175.864 29.0961L174.456 28.6457C173.667 28.4769 173.273 28.0265 173.216 27.5198ZM163.359 29.9968C163.077 30.8412 162.964 31.9671 162.514 31.9671C162.063 31.9671 162.232 33.2056 162.232 33.2056C162.232 33.2056 163.471 33.2056 163.809 33.3181C164.204 33.4307 164.204 34.3877 164.204 34.3877C165.612 34.2751 166.175 36.1891 166.006 36.6958C165.837 37.1461 166.569 37.1461 166.569 37.1461C166.569 37.1461 166.569 38.6661 166.4 39.0601C166.231 39.4542 167.64 39.7357 167.978 40.2986C168.372 40.8616 167.809 42.7756 167.527 42.8881C167.245 43.0007 168.259 43.2822 168.203 43.7326C168.09 44.1829 168.485 43.7326 168.597 44.5207C168.71 45.2525 168.879 46.885 168.879 46.885L170.175 46.9976C170.344 45.7591 172.766 45.7028 173.16 45.8717C174.737 46.4347 175.977 48.9116 175.977 49.4746C175.977 50.0375 174.963 50.1501 174.963 50.1501L175.132 52.9085C176.709 53.3588 178.061 55.6669 177.835 56.061C177.666 56.455 178.962 56.3424 178.962 56.3424C179.131 54.6536 180.765 55.2166 180.821 55.7795C180.934 56.3424 181.215 57.5809 181.215 57.5809L181.666 58.4253L182.342 59.1008L183.356 58.9883L183.638 59.5512L184.877 59.7201C184.877 59.7201 185.891 60.846 186.003 61.1274C186.116 61.4089 187.524 61.2963 187.862 61.4089C188.257 61.5215 188.82 61.803 188.876 62.2533C188.989 62.7037 189.552 63.4918 189.552 63.4918C189.552 63.4918 190.679 63.7733 190.791 64.1673C190.904 64.5614 191.355 65.4058 191.355 65.4058L192.312 66.1939L192.425 67.0383L193.439 67.1509L193.721 68.2768L195.411 68.1642L196.368 67.4887C197.607 66.8131 198.452 65.9687 198.509 65.5747C198.621 65.1806 198.79 63.7733 199.748 64.0547C200.706 64.3362 200.03 61.9718 200.03 61.9718C200.03 61.9718 198.734 61.0148 198.79 60.5645C198.903 60.1141 197.495 59.1571 197.551 58.7631C197.664 58.369 196.312 57.6372 196.425 57.2431C196.537 56.8491 195.749 55.8358 195.749 55.8358L194.34 54.4847L194.171 53.6403L193.045 53.5277L190.791 50.7693L190.904 49.9812L190.228 49.8686V48.799L189.552 48.405L188.538 48.2924L186.454 46.0406L186.285 44.971H185.271L185.44 43.0007C186.116 42.1563 185.722 40.5238 185.722 40.5238C185.722 40.5238 184.426 41.1993 183.75 40.9178C183.074 40.6364 184.032 39.9608 184.032 39.9608V39.229L183.469 38.6661C183.469 38.6661 181.891 38.835 181.779 38.5535C181.666 38.272 181.384 37.0336 181.384 37.0336L181.272 35.401L180.596 35.1196L180.483 34.5566L179.469 34.6692V33.5433L178.906 33.3744L178.342 33.093L178.23 31.9671L176.146 31.8545L175.47 30.8975L174.737 29.7716L172.371 29.6027L171.808 29.0398L170.851 28.8709L170.175 28.5894L169.893 29.0398L168.09 29.1524L167.978 29.7153C167.189 30.1094 163.471 29.7153 163.359 29.9968ZM146.121 29.4338C146.29 29.7153 147.417 29.9968 147.417 29.9968C148.149 29.9968 148.656 30.5597 148.656 30.8412C148.656 31.1227 149.67 31.0101 149.67 31.0101L149.783 30.3346L149.051 29.3776L148.375 28.9272C148.375 28.9272 147.361 28.8146 147.361 28.5331C147.361 28.308 146.29 29.1524 146.121 29.4338ZM146.121 32.6426L145.389 32.4737V33.3181L146.403 33.4307L146.121 32.6426ZM156.543 43.1133V42.3815C156.543 42.3815 156.43 41.6497 155.979 41.6497C155.529 41.6497 154.684 41.0867 154.853 40.6927C155.022 40.2986 153.275 39.9046 153.275 39.9046C153.275 39.9046 151.698 38.3846 152.261 38.5535C152.825 38.7224 152.543 37.878 152.543 37.878C152.543 37.878 151.417 38.0468 151.135 37.9906C150.853 37.878 150.966 37.0336 150.966 37.0336C150.966 37.0336 149.839 36.7521 149.839 37.0336C149.839 37.315 150.234 37.315 150.403 37.878C150.572 38.4409 150.515 39.3979 151.36 39.5668C152.205 39.7357 152.374 39.9608 152.487 40.3549C152.599 40.749 153.613 40.8053 153.613 40.8053L154.346 41.1993L156.543 43.1133ZM157.275 45.6466C157.162 45.2525 156.993 43.9577 157.557 44.014C158.12 44.1266 157.726 44.014 158.401 44.2955C159.077 44.577 159.134 43.8451 159.134 43.8451H160.148L161.443 44.9147L161.274 45.7591L160.317 45.8717C159.866 45.1399 158.908 45.4214 159.077 46.0406C159.246 46.7161 158.627 47.9546 158.232 48.0109C157.838 48.1235 156.655 48.1235 156.712 47.5606C156.881 46.9976 157.275 45.6466 157.275 45.6466ZM172.709 58.5942L173.385 56.5113C172.428 56.3424 172.653 55.2728 172.653 55.2728C172.54 54.4284 171.245 53.4714 170.794 53.7529C170.344 54.0344 170.513 51.7826 170.513 51.7826C170.513 51.7826 171.357 51.2197 171.752 51.5011C172.146 51.7826 168.541 46.7724 167.809 47.2228C167.076 47.6731 165.386 46.7724 165.443 45.8717C165.555 45.0273 162.063 42.1563 162.063 42.1563C162.063 42.1563 160.936 41.4245 160.767 41.9874C160.598 42.5504 160.204 42.9444 160.767 43.2259C161.331 43.5074 161.218 42.7756 161.894 43.3948C162.57 44.0703 163.753 44.9147 163.302 45.4777C162.852 46.0406 162.288 46.2658 162.288 46.2658L162.964 47.0539H163.978L164.147 48.6864C164.147 48.6864 165.274 49.2494 165.555 49.9249C165.837 50.6004 165.837 50.9945 165.555 51.3323C165.274 51.7263 164.71 52.4018 164.823 53.0211C164.936 53.6966 165.668 53.9781 165.668 53.9781L166.4 54.0907L166.964 54.3721V55.6106C167.696 55.4417 168.935 56.455 168.823 57.1306C168.71 57.8061 168.992 57.412 169.949 58.0876C170.907 58.7631 170.625 58.8757 171.245 59.326C171.864 59.7201 172.428 59.4386 172.709 58.5942ZM151.191 70.7537C151.191 71.0352 151.022 71.4293 151.585 71.5418C152.149 71.6544 153.163 71.1478 153.275 71.7107C153.388 72.2737 153.388 72.6677 154.12 72.9492C154.853 73.2307 155.36 73.3433 155.923 73.3433C156.486 73.3433 157.726 73.1744 157.726 73.1744C157.726 73.1744 159.077 73.3996 159.303 73.6247C160.317 74.6943 160.993 74.9758 161.274 74.4691C161.556 74.0188 161.162 72.9492 161.105 72.5551C160.993 72.1611 159.697 70.3597 159.246 70.7537C158.796 71.1478 158.683 70.7537 157.838 71.0352C156.993 71.3167 155.191 71.1478 155.134 70.7537C155.022 70.3597 153.726 70.1908 153.726 69.7967C153.726 69.4027 152.768 68.9523 152.881 69.5153C152.994 70.0782 152.205 70.3597 152.036 70.1908C151.754 69.9656 151.191 70.7537 151.191 70.7537ZM146.516 71.767L146.403 72.4426L147.417 72.5551C147.417 72.5551 147.868 72.9492 147.868 73.2307C147.868 73.5121 148.544 73.7936 148.882 73.7936C149.276 73.7936 150.29 73.0055 150.29 73.0055C150.29 73.0055 150.741 71.6544 150.403 71.767C150.008 71.8796 149.276 72.4426 149.163 71.8796C149.051 71.3167 147.924 71.5981 147.924 71.5981L146.516 71.767ZM141.671 72.8366L141.953 72.7803L142.122 73.287L141.84 73.3996L141.671 72.8366ZM142.009 71.9359L142.573 71.8233L142.742 72.6677L142.235 72.7803L142.009 71.9359ZM143.587 72.0485L143.643 72.6114L145.671 72.5551V71.9922L143.587 72.0485ZM161.838 71.5981L162.795 71.4856L162.852 72.0485L161.894 72.1611L161.838 71.5981ZM164.316 73.681L164.598 73.0055L165.105 73.2307L164.823 73.9062L164.316 73.681ZM172.484 64.1673L173.442 64.111L173.498 64.674L172.54 64.7303L172.484 64.1673ZM174.061 64.7303H174.625V65.1806H174.061V64.7303ZM175.751 56.7365L175.188 56.7928L175.075 55.9484L175.639 55.8921L175.751 56.7365ZM175.188 68.5583H175.751V69.2338H175.188V68.5583ZM176.427 68.896L176.934 69.1212L176.653 69.7404L176.146 69.459L176.427 68.896ZM173.667 61.4089C174.23 61.4089 173.498 63.6044 174.963 63.3792C176.484 63.2103 175.075 64.0547 176.202 64.111C177.329 64.2236 177.047 63.2666 177.441 62.5911C177.835 61.9156 177.61 61.5215 176.991 61.3526C176.315 61.1837 176.315 61.1837 176.146 60.3956C175.977 59.6638 175.188 59.4386 175.188 59.4386L174.906 58.3127L173.667 59.0446L172.428 60.6771C172.428 62.0281 173.104 61.4089 173.667 61.4089ZM177.329 66.588C178.061 66.1939 179.694 66.1939 179.582 65.631C179.469 65.068 180.539 64.8991 180.539 64.8991L180.821 66.025L181.666 66.588L181.779 67.6576C181.779 67.6576 182.06 67.4887 181.046 67.7701C180.032 68.0516 180.652 68.502 180.652 68.502L178.399 68.6146L178.117 67.6576L177.329 66.588ZM165.217 74.5254C165.668 74.4128 166.795 74.3566 167.02 74.638C167.189 74.9195 166.344 75.3136 166.344 75.3136L165.217 75.4824C164.879 75.0321 164.767 74.638 165.217 74.5254ZM171.245 73.681C171.752 74.1877 168.428 74.0751 168.428 73.681C168.428 73.287 168.71 71.9922 169.555 72.2737C170.4 72.5551 170.513 70.5848 170.513 70.5848C170.513 70.5848 169.78 70.6974 170.4 70.3034C171.076 69.9093 170.4 69.3464 170.118 69.0649C169.837 68.7834 169.555 68.2768 169.555 68.2768H170.851C171.414 67.8827 171.583 66.0813 171.583 66.0813C172.709 66.4754 173.273 65.6873 173.273 65.6873C173.273 65.6873 173.442 66.2502 173.836 66.7568C174.23 67.2072 172.878 67.4324 173.385 67.7138C173.836 67.9953 174.061 68.8397 173.836 69.1212C173.667 69.4027 172.597 69.2338 172.597 68.8397C172.597 68.4457 172.202 69.2901 172.597 69.7967C172.991 70.2471 172.146 70.9226 171.921 70.9226C171.752 70.9226 170.513 71.0915 171.526 71.7107C172.54 72.2737 173.667 71.9922 173.667 71.9922C173.667 71.9922 174.512 71.8796 174.794 72.3863C175.075 72.8366 174.681 72.9492 174.23 72.9492C173.78 72.9492 171.526 72.7803 171.526 72.7803C171.526 72.7803 170.963 73.3996 171.245 73.681ZM182.173 62.9288C181.891 62.5348 181.61 62.2533 181.215 62.0844C180.821 61.9156 180.539 61.6904 180.201 61.6904C179.807 61.6904 179.469 61.2963 179.638 60.846C179.807 60.3956 179.356 60.1704 179.356 59.7764C179.356 59.3823 179.638 59.3823 180.089 59.6638C180.539 59.9453 180.483 60.0578 180.821 60.5082C181.215 60.9586 181.384 61.4652 181.779 61.3526C182.173 61.24 182.455 62.197 182.793 61.9156C183.187 61.6341 183.074 62.5911 183.074 62.5911L182.173 62.9288ZM181.272 63.8296C181.553 64.2236 182.117 64.5051 182.117 64.8991C182.117 65.2932 181.948 65.5747 182.511 65.631C183.074 65.7436 183.469 65.5184 183.638 66.025C183.807 66.4754 183.807 67.2635 183.75 67.6576C183.638 68.0516 183.863 68.6146 184.313 68.6146C184.764 68.6146 184.877 68.7271 184.877 69.0086C184.877 69.2901 185.44 67.939 185.44 67.939C184.989 67.545 184.595 66.7006 184.595 66.7006C184.595 66.7006 184.144 65.3495 184.144 65.1806C184.144 65.0117 183.469 64.7866 183.187 64.7303C182.905 64.6177 182.455 63.7733 182.455 63.7733L181.272 63.8296ZM187.355 79.1978L186.961 78.3534C186.961 78.3534 186.961 77.6216 187.13 77.2276C187.299 76.8335 186.736 76.4957 186.454 76.3831C186.172 76.2706 186.285 75.5387 186.172 75.1447C186.06 74.7506 185.44 74.4691 185.44 74.4691C185.44 74.4691 185.271 73.0618 185.271 72.7803C185.271 72.4988 184.426 72.1048 184.708 71.8233C184.989 71.5418 185.158 71.1478 185.44 70.9789C185.722 70.81 185.158 69.459 185.609 69.7404C186.06 70.0219 186.06 70.5286 186.285 70.8663C186.454 71.2604 186.172 72.5551 186.679 72.8366C187.13 73.1181 186.567 74.0751 187.355 74.0751C188.088 74.0751 187.637 75.8765 187.637 75.8765C187.637 75.8765 187.468 77.2276 187.919 77.2838C188.369 77.3964 188.088 79.6482 188.088 79.6482L187.355 79.1978ZM187.637 86.4598L187.919 85.8968L188.426 86.1783L188.144 86.7413L187.637 86.4598ZM188.257 83.3636L188.82 83.4199L188.764 84.208L188.2 84.0954L188.257 83.3636ZM187.074 80.2111L186.341 80.0985L184.651 80.38L183.694 82.1814C183.694 82.1814 184.144 82.4629 184.539 83.1384C184.933 83.814 185.102 87.6983 183.975 88.3738C182.849 89.0493 184.088 88.6553 184.088 88.6553L183.919 90.7381C184.201 91.6951 184.651 91.1885 184.933 90.7381C185.215 90.2878 185.496 90.1752 185.891 89.6685C186.285 89.2182 186.848 88.3175 186.905 87.6983C187.017 87.0227 187.468 86.0094 187.186 85.728C186.905 85.4465 187.468 84.0954 187.468 84.0954C187.468 84.0954 187.862 83.3073 187.468 82.5755C187.074 81.7874 187.581 80.943 187.862 80.6052L187.074 80.2111ZM182.962 70.5286H181.553C181.553 70.5286 182.004 70.6974 180.708 69.459C179.413 68.2205 178.568 69.7404 178.568 69.7404L177.047 69.9093V71.4293L176.315 71.7107L176.427 72.6677L177.441 72.5551C177.441 72.5551 177.441 73.681 177.723 73.2307C178.004 72.7803 180.37 73.3433 180.145 74.4691C180.089 74.9195 182.511 76.158 182.229 77.6779C183.469 77.8468 183.187 79.0853 183.187 79.0853L184.764 79.2541L185.215 78.2971L185.665 78.4097V77.8468L184.651 77.5653L184.482 74.5254L183.807 74.0751L183.975 73.287L183.243 73.0055L183.638 71.767L182.962 70.5286ZM179.469 93.8343L180.032 93.6091L179.807 93.1588L179.694 92.821L179.413 92.9899L178.737 93.384L178.117 92.9899L177.835 93.4966L178.568 93.9469L178.737 94.0595L178.849 93.9469L179.413 93.6654L179.469 93.8343ZM181.948 92.5958L182.962 92.7647L183.074 92.2018L182.06 92.0329L181.948 92.5958ZM180.032 104.755C179.638 104.192 181.891 103.235 182.286 104.361C182.68 105.487 182.286 105.318 181.891 105.206C181.553 105.093 180.596 105.487 180.032 104.755ZM170.344 123.051H171.019V124.852H170.344V123.051ZM174.681 140.446C174.512 141.178 173.836 141.572 173.442 141.29C173.047 141.009 173.892 141.741 174.118 142.135C174.287 142.529 174.85 142.529 175.075 142.135C175.244 141.741 175.188 140.896 175.357 140.502C175.526 140.164 174.794 140.052 174.681 140.446ZM176.765 144.274L177.61 144.668L177.723 146.3C178.849 147.426 182.511 146.469 182.511 146.188C182.511 145.906 182.342 142.698 182.342 142.698L181.891 142.247L181.779 139.883C182.173 138.644 179.976 136.843 179.807 137.237C179.638 137.631 178.399 137.35 178.399 137.687C178.399 138.081 177.666 139.939 178.004 140.615C178.399 141.29 177.723 141.29 177.61 141.966C177.497 142.529 176.54 143.655 176.765 144.274ZM150.403 123.952L150.121 123.501L149.332 123.952L149.67 124.458L150.403 123.952ZM136.095 125.809C135.644 126.26 135.757 126.654 136.095 126.992V125.809ZM139.024 128.117L139.643 127.048L139.136 126.879L138.461 127.329L138.742 127.611L139.024 128.117ZM138.461 98.4504C138.855 99.2948 138.742 100.533 140.15 101.49C140.601 101.828 139.869 102.447 139.418 102.166C138.967 101.884 137.616 99.8015 137.616 99.8015V98.563C137.897 97.8312 138.292 98.1127 138.461 98.4504ZM133.503 103.404C133.729 104.249 133.672 102.053 134.067 102.166C134.461 102.278 134.179 100.815 134.179 100.815L132.489 102.053C133.278 102.166 133.391 103.01 133.503 103.404ZM128.434 109.484C128.321 110.61 126.913 111.004 126.913 111.004L125.899 110.723L125.336 110.272L125.223 108.921L126.068 108.809L126.237 109.371L128.434 109.484ZM126.913 98.0001V96.649L126.744 95.4106L125.336 94.735L124.322 95.692L124.153 97.0431V97.8875L123.195 98.0564L123.026 100.646L122.294 100.927L122.406 101.884L120.378 102.447L120.209 103.686L119.477 104.136L119.083 105.262L118.632 108.02C118.632 108.02 119.477 109.653 119.928 108.865C120.378 108.133 121.167 108.02 121.167 108.02L121.449 107.345L123.984 107.457C124.153 106.388 125.392 106.782 125.392 107.289C125.392 107.739 126.349 107.401 126.349 107.401L127.025 106.332H128.039L128.152 105.206L128.603 104.924V103.235C130.124 102.785 129.898 101.321 129.898 101.321L130.293 100.871L130.124 100.196C129.391 99.9141 129.729 99.2385 130.236 99.4074C130.687 99.5763 129.56 98.563 129.56 98.563C128.997 99.0134 128.546 98.0001 128.546 98.0001H126.913ZM122.632 94.1158L121.899 94.2847L120.209 95.9172L120.097 96.649L119.646 97.3245L119.083 98.7319L117.111 98.8445L116.717 100.533L116.999 101.997L118.689 102.672L118.858 101.715L119.421 101.434L119.533 100.477L119.928 99.8015L120.491 99.126L120.66 98.3941L121.618 97.8312L122.744 97.606L123.195 97.0431L123.364 95.9172L123.477 95.0728L123.871 94.4536L124.998 94.0032V92.2018H124.434L124.322 91.5263L123.308 91.4137L123.082 91.9203H122.632L122.519 92.6521H123.082L123.195 93.2714L122.801 93.6091L122.632 94.1158ZM92.8892 105.543C92.8892 105.769 92.7202 105.938 92.4949 105.938C92.2696 105.938 92.1006 105.769 92.1006 105.543C92.1006 105.318 92.2696 105.149 92.4949 105.149C92.7202 105.149 92.8892 105.318 92.8892 105.543ZM92.8329 116.408C92.8329 116.633 92.6639 116.802 92.4386 116.802C92.2132 116.802 92.0443 116.633 92.0443 116.408C92.0443 116.183 92.2132 116.014 92.4386 116.014C92.6639 116.014 92.8329 116.183 92.8329 116.408ZM91.8189 114.832C92.0443 114.832 92.2132 114.663 92.2132 114.438C92.2132 114.213 92.0443 114.044 91.8189 114.044C91.5936 114.044 91.4246 114.213 91.4246 114.438C91.4246 114.663 91.5936 114.832 91.8189 114.832ZM90.6923 117.084L89.9037 117.196V117.872L90.6923 117.759V117.084ZM91.5373 112.242L90.8613 112.355L90.805 113.087L91.5373 113.199V112.242ZM91.3683 107.12L91.4246 106.444L90.0164 107.401L89.1151 106.838V109.09L90.5797 111.117L91.143 109.766L91.3683 108.921L90.6923 108.64L90.805 107.232L91.3683 107.12ZM90.805 99.126L89.1151 98.9571L89.2277 99.6326H89.6784C90.4107 100.984 89.791 104.192 89.791 104.192C89.791 104.192 88.6644 104.305 88.4954 103.742C88.3264 103.179 87.8195 104.981 88.2138 105.262C88.6081 105.543 89.9037 105.262 90.0164 106.332C90.129 107.401 90.8613 105.656 90.8613 105.656L90.805 99.126ZM128.546 80.3237H127.532L127.363 78.2408L127.927 77.8468V76.7772H124.66L124.547 75.7076L124.998 75.4261L124.265 75.1447L123.702 75.8765L123.533 76.7209L122.575 76.8898V77.3401H121.899V78.5786L119.252 80.7741L114.013 80.6052C113.619 81.4496 112.718 80.4926 112.718 80.4926C112.549 79.9297 111.197 80.4926 111.197 80.4926C111.197 81.5622 109.394 80.0423 109.394 80.0423L106.127 77.6779C104.268 75.9891 101.451 78.1283 101.339 78.6349C101.451 79.986 99.1982 78.9164 99.1982 78.9164C99.1982 78.9164 97.3393 78.3534 97.0577 79.0853C96.776 79.8171 95.5367 79.6482 95.5367 79.6482L95.3677 80.0423L94.4101 80.2111L94.2411 80.7741L93.1145 80.943L95.931 80.8304C96.6633 80.7178 95.6494 82.4629 95.1988 82.3503L93.9032 82.4629L93.4525 82.9133H92.2132L91.6499 83.7014L89.8474 83.5888C89.8474 83.5888 88.8334 84.4332 88.8897 84.7147C89.0024 84.9961 88.7208 85.8406 88.4391 85.8406C88.1575 85.8406 87.5941 86.685 87.7631 86.9664C87.9321 87.2479 87.1998 88.2049 87.1998 88.2049L87.0308 89.1619L86.4675 89.3308V91.9203L85.3409 92.7084V93.8343L83.651 95.6357L83.82 97.1557L82.4117 98.6756L82.5807 100.196L81.7358 100.477L81.5668 101.153L81.1725 103.123L82.1301 103.235C82.5807 103.067 82.5244 104.474 82.1301 104.643C81.7358 104.812 80.7218 105.206 81.2851 105.6C81.8484 105.994 79.7642 105.881 79.7642 105.318C79.7642 104.755 78.6376 104.249 78.356 104.474C78.0743 104.643 77.6237 103.629 77.6237 103.629C76.6097 102.56 73.3989 103.742 73.3989 103.742L72.9482 105.262C71.9343 105.431 71.2583 107.176 71.2583 107.176C70.4134 107.457 69.7374 108.527 70.0191 108.809C70.3007 109.09 69.5684 109.203 69.5684 109.203V111.285L69.1178 111.961L69.2304 114.213C69.7937 114.213 69.6811 115.282 69.6811 115.282C68.7235 115.395 68.9488 116.633 68.9488 116.633L66.9772 117.309L66.5829 117.872L64.1607 117.759L63.4847 118.435L62.8088 117.759H58.1333L57.9643 117.309L57.0067 117.14L56.8941 116.07L55.4858 116.183L55.2042 116.746L53.6832 116.859C53.7959 117.816 52.1623 119.223 51.9933 118.829C51.8243 118.435 50.7541 117.422 51.261 117.196C51.7117 117.027 52.9509 116.802 52.9509 116.802V116.127L49.4585 116.014L49.0641 116.577L47.6559 116.69V118.21L46.9799 118.379C46.5293 118.66 47.0926 119.73 47.0926 119.73C47.7685 120.405 46.9799 121.418 46.9799 121.418C46.4166 121.981 47.4306 123.051 47.4306 123.051C48.1629 123.22 46.9799 123.783 46.9799 123.783C47.1489 124.74 47.7122 125.021 47.7122 125.021C47.1489 125.978 48.1065 126.429 48.1065 126.429L48.2192 128.061L48.8951 128.455V129.525L49.2895 130.2H50.8104L50.6977 127.836C49.4021 126.316 51.8243 125.922 51.937 126.485C52.0497 127.048 53.0636 127.329 53.0636 127.329C53.2326 128.737 54.8662 129.581 55.3168 128.174C55.7675 126.766 56.1618 127.611 56.4434 128.286C56.7251 128.962 58.5276 130.594 58.5276 130.594H59.9359L60.1049 131.945C61.6822 131.833 62.1891 132.058 62.8088 134.197C63.4847 136.393 65.231 136.956 65.231 136.956L66.5266 136.843C66.5266 135.717 67.8222 137.012 67.8222 137.631C67.8222 138.194 70.357 140.39 70.357 140.39L72.8919 140.952L75.2578 142.866L77.0604 142.698H77.7927C78.2433 141.065 80.4965 142.81 80.7218 143.373C80.8908 143.936 82.4117 144.893 82.5807 144.443C82.7497 143.992 83.82 144.274 83.989 145.681C84.158 147.089 84.834 146.807 84.834 146.807L90.1853 146.694L92.0443 145.062L96.8323 144.949C99.2545 144.837 97.79 141.515 97.283 141.515C96.438 140.84 97.5646 138.081 97.5646 138.081L90.7486 131.72C89.1714 131.72 90.5797 129.412 90.5797 129.412C91.8189 128.624 90.298 127.442 90.298 127.442C90.467 126.316 89.622 124.965 89.622 124.965C87.9321 123.839 88.3828 121.644 88.3828 121.644V120.124C86.9745 118.773 88.9461 118.604 88.9461 118.604C89.622 117.478 88.4954 116.633 88.4954 116.633L88.3828 115.395L86.8619 115.226L86.6929 110.779L83.313 105.938C82.6371 105.769 83.144 104.586 83.144 104.586C83.989 104.136 82.9751 102.954 82.9751 102.954L82.8624 100.871L84.834 100.702L85.2846 99.9704H86.2422L86.1296 97.4934C86.5802 96.255 87.7068 96.9305 87.7068 96.9305L89.0024 97.0431L89.7347 95.6357L89.9037 94.5098L88.8897 94.3973C87.7631 93.7217 88.3264 91.2448 88.3264 91.2448C90.129 88.599 92.1569 90.1189 92.1569 90.1189L93.4525 90.0063C95.4241 91.3574 93.6215 93.778 93.6215 93.778C93.2272 94.341 93.4525 96.1424 93.4525 96.1424L93.9032 99.1823L92.6639 100.252C91.6499 100.815 91.6499 102.166 92.7765 102.447C93.5088 102.56 93.2272 104.361 92.1006 103.123C90.4107 103.123 93.0582 104.643 92.2696 104.249C93.9595 105.093 93.5652 103.517 93.5652 103.517L95.8184 101.715C96.6633 101.04 98.1843 103.123 98.1843 103.404C98.1843 103.686 101.902 103.517 101.902 103.517C102.916 104.192 103.31 105.881 103.31 105.881C104.324 104.53 106.521 105.769 104.888 106.557C106.409 107.514 106.409 108.358 106.409 108.358C107.648 107.964 107.648 108.921 107.648 109.203C107.648 109.484 108.042 107.795 108.042 107.795C106.634 106.726 109.901 106.388 109 108.246L108.436 109.09L109.394 109.822L109.507 112.017C111.591 111.848 111.028 109.259 111.028 109.259L111.985 109.09C111.985 108.246 112.661 108.696 112.661 108.696C111.985 105.487 114.182 104.924 114.182 104.924C115.421 104.643 115.478 102.053 115.478 102.053C114.633 101.659 115.083 100.364 116.041 101.49C116.999 102.616 115.478 99.1823 115.478 99.1823L114.745 98.5067L113.731 98.3941L113.619 97.3245H111.929L111.647 98.6756L111.028 98.9571L110.859 98.563L110.577 99.6326H108.887L108.774 98.5067L109.788 98.2253L110.183 97.6623L110.464 96.1424H111.704L113.281 95.692C113.393 94.0595 114.238 94.4536 114.238 94.4536L115.647 95.5794L115.759 96.1424L115.196 96.4238L115.083 97.212L115.365 98.2815H116.097C116.379 96.7616 118.351 96.7616 118.914 97.7186L119.477 96.3676C118.182 95.692 119.477 94.6787 119.815 95.1291C120.209 95.5794 121.054 93.8906 121.054 93.8906C121.054 93.8906 121.73 94.735 121.054 93.6091C120.378 92.4833 121.505 91.9203 121.505 91.9203C121.336 90.7944 122.744 90.9633 122.744 90.9633L122.857 89.4434L121.561 89.3308C121.28 90.6818 120.153 89.4997 120.716 89.2182C121.28 88.9367 121.843 88.3738 121.843 88.3738V87.4168L122.406 87.2479L122.519 86.2909H123.927L125.167 85.728L125.448 85.2776L126.744 85.165L128.603 83.4762L128.434 82.7444C127.307 82.7444 128.434 81.9 128.434 81.9L128.546 80.3237ZM77.68 165.722L76.9477 164.596L78.0743 164.765L79.2572 165.778L79.7642 167.017L79.0883 167.411L78.6939 166.848L77.7927 166.566L77.68 165.722ZM57.0067 137.237L57.4574 138.532L58.1333 139.038L58.753 140.446L58.415 141.121L57.3447 140.164L56.6124 139.095L56.2181 138.25L55.5985 136.562L57.0067 137.237ZM51.3737 132.171H50.923V133.128H51.6553V134.366H52.2186L52.106 132.959L51.3737 132.677V132.171ZM125.054 74.3003L125.617 74.1877L125.73 74.7506L125.167 74.8632L125.054 74.3003ZM125.73 73.9625L125.899 73.3996L126.631 73.6247L126.518 74.1877L125.73 73.9625ZM127.082 73.3996L127.138 72.8366L126.518 72.724L126.406 73.287L127.082 73.3996ZM128.039 72.1611H128.772V72.724H128.039V72.1611ZM132.827 72.8366L132.884 72.2737L133.56 72.33L133.447 72.8929L132.827 72.8366ZM134.686 73.2307L134.743 72.6677L134.067 72.5551L134.01 73.1181L134.686 73.2307ZM135.362 73.287H136.095V73.8499H135.362V73.287ZM136.207 74.244V74.9195L136.771 74.8632V74.1877L136.207 74.244Z" fill="#0E21A0"/>
<path d="M30.7324 282.867V246.393C30.7324 245.592 31.0059 244.918 31.5527 244.371C32.0996 243.824 32.7539 243.551 33.5156 243.551H49.8926C58.3691 243.551 64.5312 245.25 68.3789 248.648C72.2461 252.027 74.1797 257.34 74.1797 264.586C74.1797 271.812 72.2461 277.115 68.3789 280.494C64.5312 283.873 58.3691 285.562 49.8926 285.562H33.5156C32.7539 285.562 32.0996 285.309 31.5527 284.801C31.0059 284.273 30.7324 283.629 30.7324 282.867ZM41.7773 277.271H49.5703C54.8242 277.271 58.3984 276.314 60.293 274.4C62.1875 272.486 63.1348 269.215 63.1348 264.586C63.1348 259.938 62.1875 256.656 60.293 254.742C58.3984 252.809 54.8242 251.842 49.5703 251.842H41.7773V277.271ZM80.1855 282.867V246.334C80.1855 245.572 80.459 244.918 81.0059 244.371C81.5527 243.824 82.207 243.551 82.9688 243.551H88.418C89.2188 243.551 89.8828 243.824 90.4102 244.371C90.957 244.918 91.2305 245.572 91.2305 246.334V282.809C91.2305 283.57 90.9473 284.225 90.3809 284.771C89.834 285.299 89.1797 285.562 88.418 285.562H82.9688C82.207 285.562 81.5527 285.309 81.0059 284.801C80.459 284.273 80.1855 283.629 80.1855 282.867ZM97.2363 274.811C97.2363 273.658 97.5781 272.838 98.2617 272.35C98.9453 271.842 99.6094 271.588 100.254 271.588H103.74C105.498 271.588 106.836 272.545 107.754 274.459C108.672 276.373 110.732 277.33 113.936 277.33L124.189 277.535C127.627 277.535 129.346 276.412 129.346 274.166C129.346 272.467 127.246 271.129 123.047 270.152C121.172 269.703 119.102 269.264 116.836 268.834C114.57 268.385 112.314 267.828 110.068 267.164C107.842 266.5 105.791 265.719 103.916 264.82C102.041 263.922 100.518 262.691 99.3457 261.129C98.1934 259.547 97.6172 257.691 97.6172 255.562C97.6172 251.637 99.0137 248.619 101.807 246.51C104.6 244.381 109.404 243.316 116.221 243.316L123.662 243.492C127.666 243.492 131.27 244.527 134.473 246.598C137.695 248.648 139.307 251.217 139.307 254.303C139.307 255.455 138.965 256.285 138.281 256.793C137.598 257.301 136.943 257.555 136.318 257.555H132.832C131.074 257.555 129.736 256.598 128.818 254.684C127.9 252.75 125.84 251.783 122.637 251.783L113.818 251.607C110.381 251.607 108.662 252.73 108.662 254.977C108.662 256.207 109.746 257.213 111.914 257.994C114.102 258.775 116.738 259.469 119.824 260.074C122.93 260.66 126.045 261.373 129.17 262.213C132.295 263.053 134.941 264.439 137.109 266.373C139.297 268.287 140.391 270.68 140.391 273.551C140.391 277.477 138.984 280.504 136.172 282.633C133.379 284.742 128.584 285.797 121.787 285.797L112.91 285.621C108.906 285.621 105.293 284.596 102.07 282.545C98.8477 280.475 97.2363 277.896 97.2363 274.811ZM146.396 282.75V246.275C146.396 245.514 146.67 244.869 147.217 244.342C147.764 243.814 148.418 243.551 149.18 243.551H182.959C183.721 243.551 184.365 243.824 184.893 244.371C185.439 244.918 185.713 245.572 185.713 246.334V249.088C185.713 249.85 185.439 250.504 184.893 251.051C184.365 251.578 183.721 251.842 182.959 251.842H157.441V260.367H179.414C180.176 260.367 180.82 260.641 181.348 261.188C181.895 261.715 182.168 262.359 182.168 263.121V265.875C182.168 266.637 181.895 267.291 181.348 267.838C180.82 268.365 180.176 268.629 179.414 268.629H157.441V277.271H182.9C183.643 277.271 184.277 277.535 184.805 278.062C185.332 278.59 185.596 279.234 185.596 279.996V282.809C185.596 283.57 185.322 284.225 184.775 284.771C184.229 285.299 183.574 285.562 182.812 285.562H149.18C148.418 285.562 147.764 285.299 147.217 284.771C146.67 284.225 146.396 283.551 146.396 282.75ZM194.121 280.611C190.508 277.154 188.701 271.812 188.701 264.586C188.701 257.34 190.508 251.988 194.121 248.531C197.754 245.055 203.193 243.316 210.439 243.316H216.973C221.406 243.316 225.322 244.469 228.721 246.773C232.139 249.078 233.848 252.232 233.848 256.236C233.848 257.389 233.506 258.219 232.822 258.727C232.139 259.215 231.475 259.459 230.83 259.459H227.344C225.547 259.459 224.15 258.385 223.154 256.236C221.709 253.15 219.307 251.607 215.947 251.607H210.732C206.455 251.607 203.555 252.525 202.031 254.361C200.508 256.197 199.746 259.596 199.746 264.557C199.746 269.518 200.508 272.926 202.031 274.781C203.555 276.617 206.455 277.535 210.732 277.535H216.562C219.922 277.535 222.314 275.992 223.74 272.906C224.736 270.738 226.143 269.654 227.959 269.654H231.445C232.363 269.654 233.086 269.996 233.613 270.68C234.16 271.363 234.434 272.105 234.434 272.906C234.434 276.91 232.734 280.064 229.336 282.369C225.938 284.654 222.021 285.797 217.588 285.797H210.439C203.193 285.797 197.754 284.068 194.121 280.611Z" fill="#0E21A0"/>
</svg>
