<svg width="318" height="356" viewBox="0 0 318 356" fill="none" xmlns="http://www.w3.org/2000/svg">
<path d="M36.7998 64.8C36.7998 62.149 38.9488 60 41.5998 60C44.2508 60 46.3998 62.149 46.3998 64.8V214.4H36.7998V64.8Z" fill="#0E21A0"/>
<path d="M36.7998 214.4H128C130.651 214.4 132.8 216.549 132.8 219.2C132.8 221.851 130.651 224 128 224H40.7998C38.5907 224 36.7998 222.209 36.7998 220V214.4Z" fill="#0E21A0"/>
<path d="M271.2 64.8C271.2 62.149 273.349 60 276 60C278.651 60 280.8 62.149 280.8 64.8L280.8 214.4H271.2L271.2 64.8Z" fill="#0E21A0"/>
<path d="M184.8 219.2C184.8 216.549 186.949 214.4 189.6 214.4L280.8 214.4V220C280.8 222.209 279.009 224 276.8 224L189.6 224C186.949 224 184.8 221.851 184.8 219.2Z" fill="#0E21A0"/>
<path d="M61.5996 11.2002L80.9206 21.3519C83.5518 22.7344 85.1996 25.4616 85.1996 28.4339V81.6002C86.9669 79.8329 89.8323 79.8329 91.5996 81.6002V33.4296C91.5996 30.5161 94.6148 28.58 97.2641 29.7924L138.8 48.8002C147.575 55.9593 149.901 68.4074 144.303 78.2525L142.4 81.6002L146.626 87.138C151.514 93.5427 155.406 100.649 158.171 108.216L161.6 117.6L165.265 107.57C167.875 100.427 171.49 93.692 176.001 87.5694L180.4 81.6002L177.916 77.0757C172.785 67.7312 174.63 56.099 182.4 48.8002L256.4 11.2002V173.2L162 212.8L61.5996 173.2V11.2002Z" fill="#0E21A0"/>
<circle cx="161.6" cy="117.6" r="3.2" fill="white"/>
<circle cx="161.6" cy="94.4" r="2.4" fill="#0E21A0"/>
<line x1="161.6" y1="94.4072" x2="161.6" y2="51.9997" stroke="#0E21A0" stroke-width="1.6"/>
<path d="M161.984 212.802V118.799" stroke="white" stroke-width="1.6"/>
<line x1="69.4011" y1="166.076" x2="150.993" y2="199.041" stroke="black" stroke-width="0.4"/>
<line x1="170.325" y1="199.18" x2="251.917" y2="166.214" stroke="black" stroke-width="0.4"/>
<path fill-rule="evenodd" clip-rule="evenodd" d="M84.3996 48.8H85.1996V17.2337C85.1996 14.2614 83.5518 11.5342 80.9206 10.1517L62.3996 0.420339L61.5996 0V0.903706V48.8H62.3996V1.32405L80.5485 10.8599C82.9166 12.1041 84.3996 14.5587 84.3996 17.2337V48.8ZM91.5996 48.8V22.2295C91.5996 19.3159 94.6148 17.3798 97.2641 18.5922L138.8 37.6C142.475 40.5987 145.02 44.5254 146.324 48.8H145.486C144.216 44.7939 141.813 41.1164 138.373 38.2844L96.9312 19.3197C94.8117 18.3497 92.3996 19.8986 92.3996 22.2295V48.8H91.5996ZM255.6 48.8V1.30384L182.865 38.2609C179.76 41.2069 177.646 44.8735 176.598 48.8H175.77C176.846 44.6204 179.083 40.7155 182.4 37.6L255.6 0.406488L256.4 0V0.89735V48.8H255.6Z" fill="#0E21A0"/>
<path d="M15.0703 261.961L25.6875 265.5L26.4609 264.117C26.7422 263.617 26.9375 263.312 27.0469 263.203C27.1719 263.078 27.3125 263.016 27.4688 263.016C27.625 263.016 27.75 263.07 27.8438 263.18C27.9531 263.289 28.0078 263.414 28.0078 263.555C28.0078 263.773 27.8203 264.203 27.4453 264.844L22.5 273.398L26.3672 273.258C27.5859 273.211 29 273.383 30.6094 273.773C32.2344 274.164 33.625 274.773 34.7812 275.602C35.9531 276.414 36.8672 277.383 37.5234 278.508C38.1953 279.617 38.5312 280.844 38.5312 282.188C38.5312 284.656 37.4922 287.086 35.4141 289.477C33.3516 291.852 29.6719 294.359 24.375 297C22.5469 296.25 20.4219 295.461 18 294.633C13.5312 296.773 9.88281 297.844 7.05469 297.844C5.03906 297.844 3.48438 297.406 2.39062 296.531C1.3125 295.641 0.773438 294.617 0.773438 293.461C0.773438 292.227 1.42969 291.102 2.74219 290.086C4.05469 289.055 6 288.539 8.57812 288.539C9.59375 288.539 10.8594 288.648 12.375 288.867L14.1328 285.68L10.8281 285.82C10.0156 285.836 8.92188 285.727 7.54688 285.492C6.17188 285.242 5.03906 284.844 4.14844 284.297C3.27344 283.75 2.61719 283.078 2.17969 282.281C1.74219 281.484 1.52344 280.648 1.52344 279.773C1.52344 278.383 2.01562 277.148 3 276.07C3.625 275.383 4.65625 274.766 6.09375 274.219L6.07031 273.938C6.07031 272.484 6.71094 270.82 7.99219 268.945C9.28906 267.055 11.6484 264.727 15.0703 261.961ZM23.5547 269.25C21.1016 268.031 19.1875 267.219 17.8125 266.812C16.4375 266.391 15.2266 266.18 14.1797 266.18C12.7109 266.18 11.5156 266.594 10.5938 267.422C9.67188 268.25 9.21094 269.219 9.21094 270.328C9.21094 271.422 9.60156 272.32 10.3828 273.023C11.1797 273.727 12.375 274.078 13.9688 274.078C15.0312 274.078 17.4219 273.883 21.1406 273.492L23.5547 269.25ZM18.5625 277.945C16.5469 278.195 14.5938 278.32 12.7031 278.32C10.5781 278.32 9.07031 278.07 8.17969 277.57C7.28906 277.07 6.625 276.289 6.1875 275.227C5.0625 275.945 4.5 276.836 4.5 277.898C4.5 278.867 4.9375 279.664 5.8125 280.289C6.96875 281.102 8.94531 281.508 11.7422 281.508C13.0391 281.508 14.6875 281.422 16.6875 281.25L18.5625 277.945ZM18 281.156C21.7344 280.734 24.3281 280.523 25.7812 280.523C27.7656 280.523 29.2812 280.977 30.3281 281.883C31.375 282.773 31.8984 283.844 31.8984 285.094C31.8984 286.188 31.3828 287.25 30.3516 288.281C29.3359 289.312 27.1875 290.539 23.9062 291.961L28.5469 293.391C30.5938 292.125 32.1719 290.758 33.2812 289.289C34.3906 287.82 34.9453 286.203 34.9453 284.438C34.9453 283.281 34.5938 282.148 33.8906 281.039C33.2031 279.914 32.1406 279.023 30.7031 278.367C29.2656 277.695 27.6094 277.359 25.7344 277.359C24.2188 277.359 22.2812 277.516 19.9219 277.828L18 281.156ZM13.4531 289.055C15 289.367 16.2578 289.656 17.2266 289.922C18.2109 290.188 19.9531 290.719 22.4531 291.516C25.9219 289.891 27.6562 288.273 27.6562 286.664C27.6562 286.164 27.4297 285.711 26.9766 285.305C26.5391 284.898 25.9766 284.695 25.2891 284.695C24.4453 284.695 23.4062 284.789 22.1719 284.977C18.7344 285.445 16.4766 285.68 15.3984 285.68L13.4531 289.055ZM16.4297 294.141C12.4297 292.938 9.1875 292.336 6.70312 292.336C5.42188 292.336 4.40625 292.617 3.65625 293.18C3.14062 293.555 2.88281 294.016 2.88281 294.562C2.88281 295.141 3.14062 295.602 3.65625 295.945C4.46875 296.508 5.64844 296.789 7.19531 296.789C9.57031 296.789 12.6484 295.906 16.4297 294.141ZM48.3984 264H51.375L48.1406 269.062H47.2031L48.3984 264ZM46.6172 272.016L50.7891 275.461L48.9375 277.266V290.016C48.9375 291.359 49.0625 292.234 49.3125 292.641C49.5625 293.047 49.8203 293.25 50.0859 293.25C50.2734 293.25 50.4453 293.211 50.6016 293.133C50.8203 293.023 51.2734 292.711 51.9609 292.195L52.5234 292.922L47.2031 297C45.9531 296.109 45.1484 295.273 44.7891 294.492C44.4297 293.695 44.25 292.312 44.25 290.344V277.266L42.4922 275.461L46.6172 272.016ZM65.8125 263.414V264.023C64.5781 264.664 63.7031 265.453 63.1875 266.391C62.6875 267.312 62.4375 268.719 62.4375 270.609V291.445L65.1094 293.438L66.1406 292.594L66.7266 293.438L62.0391 297C60.6172 295.766 59.5547 294.945 58.8516 294.539C58.1484 294.133 57.2188 293.766 56.0625 293.438V292.922C56.5 292.656 56.8359 292.32 57.0703 291.914C57.3203 291.508 57.4922 291.031 57.5859 290.484C57.6172 290.297 57.6406 289.359 57.6562 287.672V270.938C57.6562 269.516 57.6016 268.531 57.4922 267.984C57.3828 267.422 57.1641 266.891 56.8359 266.391C56.5078 265.875 55.9531 265.305 55.1719 264.68L55.5469 264.211C56.9688 264.617 58.2422 265.445 59.3672 266.695C60.5391 265.461 61.5938 264.617 62.5312 264.164C63.4844 263.711 64.5781 263.461 65.8125 263.414ZM75.3984 264H78.375L75.1406 269.062H74.2031L75.3984 264ZM73.6172 272.016L77.7891 275.461L75.9375 277.266V290.016C75.9375 291.359 76.0625 292.234 76.3125 292.641C76.5625 293.047 76.8203 293.25 77.0859 293.25C77.2734 293.25 77.4453 293.211 77.6016 293.133C77.8203 293.023 78.2734 292.711 78.9609 292.195L79.5234 292.922L74.2031 297C72.9531 296.109 72.1484 295.273 71.7891 294.492C71.4297 293.695 71.25 292.312 71.25 290.344V277.266L69.4922 275.461L73.6172 272.016ZM90.2812 272.016L96.375 275.484L93.8906 279.164L89.2969 276.516V291.445L93.8906 293.531L96.375 291.773L96.6094 292.758L90.7969 297C89.2969 296.156 88.0156 295.539 86.9531 295.148C85.8906 294.742 84.5859 294.391 83.0391 294.094V293.531C83.5859 293.156 83.9453 292.75 84.1172 292.312C84.3672 291.703 84.4922 290.75 84.4922 289.453V276.117C86.4453 275.227 88.375 273.859 90.2812 272.016ZM115.641 275.438V292.969C113.297 293.922 111.602 294.703 110.555 295.312C109.758 295.766 108.992 296.328 108.258 297C105.992 295.625 104.117 294.672 102.633 294.141C101.508 293.734 100.234 293.5 98.8125 293.438L98.5781 292.969C99.1719 292.469 99.5469 292.016 99.7031 291.609C99.9219 291.078 100.031 290.18 100.031 288.914V276.047C102.891 275.094 105.336 273.75 107.367 272.016C109.586 273.484 112.344 274.625 115.641 275.438ZM104.766 290.695L110.883 293.203V278.297C108.961 277.406 107.602 276.82 106.805 276.539C106.242 276.336 105.562 276.164 104.766 276.023V290.695ZM134.531 272.016L138.375 275.602L140.648 273.398L141.305 274.031C140.211 275.031 139.547 275.789 139.312 276.305C139 276.992 138.844 277.938 138.844 279.141V290.273C138.844 291.305 139.008 292.07 139.336 292.57C139.539 292.898 139.766 293.062 140.016 293.062C140.234 293.062 140.75 292.758 141.562 292.148L142.125 292.875L137.086 297C135.789 296.016 134.953 295.148 134.578 294.398C134.219 293.633 134.039 292.406 134.039 290.719V277.805L131.484 275.602L127.688 278.625V291.961L129.375 293.648L125.227 297L121.055 293.648L122.883 291.961V279.984C122.883 278.281 122.711 277.133 122.367 276.539C122.133 276.133 121.867 275.93 121.57 275.93C121.258 275.93 120.789 276.172 120.164 276.656L119.602 276L124.594 272.016C125.969 272.984 126.828 273.75 127.172 274.312C127.516 274.875 127.688 275.656 127.688 276.656V277.453L134.531 272.016ZM183.117 261.492L183.656 262.336C181.859 262.602 180.516 263.125 179.625 263.906C178.734 264.672 178.289 265.812 178.289 267.328C178.289 268.156 178.375 269.352 178.547 270.914C178.859 273.602 179.016 275.797 179.016 277.5C179.016 279.797 178.5 281.812 177.469 283.547C176.453 285.266 174.062 287.734 170.297 290.953C172.766 290.156 174.984 289.758 176.953 289.758C178.75 289.758 180.359 290.008 181.781 290.508C183.219 290.992 184.812 291.844 186.562 293.062L188.906 290.953L189.586 291.773L183.516 297C181.859 295.766 180.203 294.867 178.547 294.305C176.906 293.727 174.984 293.438 172.781 293.438C170.734 293.438 168.805 293.68 166.992 294.164C165.195 294.648 162.875 295.594 160.031 297L159.562 296.344C162.391 294.25 164.266 292.578 165.188 291.328C166.109 290.062 166.57 288.875 166.57 287.766C166.57 286.703 166.234 285.82 165.562 285.117C164.891 284.398 164.117 284.039 163.242 284.039C162.805 284.039 162.305 284.172 161.742 284.438L161.039 283.758C161.617 283.242 162.148 282.883 162.633 282.68C163.117 282.477 163.68 282.375 164.32 282.375C164.695 282.375 165.078 282.43 165.469 282.539C165.859 282.633 166.25 282.789 166.641 283.008C166.672 282.648 166.688 282.359 166.688 282.141C166.688 281.141 166.312 280.273 165.562 279.539C164.812 278.805 163.891 278.438 162.797 278.438C162.016 278.438 161.211 278.75 160.383 279.375L159.562 278.812C160.141 278.047 160.734 277.508 161.344 277.195C162.312 276.68 163.344 276.422 164.438 276.422C164.672 276.422 164.93 276.445 165.211 276.492C165.492 276.523 165.789 276.578 166.102 276.656C166.008 275.703 165.961 274.906 165.961 274.266C165.961 272.375 166.242 270.766 166.805 269.438C167.383 268.109 168.367 266.727 169.758 265.289C168.258 265.82 166.984 266.086 165.938 266.086C164.906 266.086 163.602 265.844 162.023 265.359C161.305 265.141 160.734 265.031 160.312 265.031C159.5 265.031 158.812 265.289 158.25 265.805C157.703 266.32 157.43 266.938 157.43 267.656C157.43 267.922 157.5 268.234 157.641 268.594L156.633 268.945C156.461 268.211 156.375 267.602 156.375 267.117C156.375 265.602 156.961 264.289 158.133 263.18C159.305 262.055 160.711 261.492 162.352 261.492C163.102 261.492 164.258 261.773 165.82 262.336C167.398 262.898 168.625 263.18 169.5 263.18C171.094 263.18 172.609 262.617 174.047 261.492L174.727 262.336C173.164 263.508 172.062 264.664 171.422 265.805C170.797 266.945 170.484 268.328 170.484 269.953C170.484 271.156 170.562 272.547 170.719 274.125C171.031 277.094 171.188 279.109 171.188 280.172C171.188 282.438 170.82 284.492 170.086 286.336C169.352 288.164 168.023 290.281 166.102 292.688C169.023 290.609 171.117 288.477 172.383 286.289C173.664 284.102 174.305 281.641 174.305 278.906C174.305 277.359 174.195 275.664 173.977 273.82C173.758 271.961 173.648 270.398 173.648 269.133C173.648 268.008 173.914 266.898 174.445 265.805C174.977 264.711 175.68 263.852 176.555 263.227C177.43 262.602 178.398 262.148 179.461 261.867C180.258 261.664 181.477 261.539 183.117 261.492ZM198.164 264H201.141L197.906 269.062H196.969L198.164 264ZM196.383 272.016L200.555 275.461L198.703 277.266V290.016C198.703 291.359 198.828 292.234 199.078 292.641C199.328 293.047 199.586 293.25 199.852 293.25C200.039 293.25 200.211 293.211 200.367 293.133C200.586 293.023 201.039 292.711 201.727 292.195L202.289 292.922L196.969 297C195.719 296.109 194.914 295.273 194.555 294.492C194.195 293.695 194.016 292.312 194.016 290.344V277.266L192.258 275.461L196.383 272.016ZM204.82 274.594L211.359 266.508H212.039L211.805 272.977H216.516V275.625H211.805V291.398L214.43 293.344L215.93 292.172L216.516 292.875L211.359 297C209.594 295.203 207.594 293.984 205.359 293.344V292.875C205.984 292.453 206.398 292.016 206.602 291.562C206.867 290.984 207 290.148 207 289.055V275.625H204.82V274.594ZM229.125 272.016L235.734 279.727L225.234 287.086V291.352L230.672 293.508L234.352 291L234.867 291.703L227.273 297C225.727 296.172 224.453 295.578 223.453 295.219C222.453 294.859 221.031 294.484 219.188 294.094V293.508C219.719 293.195 220.07 292.812 220.242 292.359C220.43 291.891 220.523 290.891 220.523 289.359V275.953C221.992 275.422 223.211 274.938 224.18 274.5C224.883 274.172 226.531 273.344 229.125 272.016ZM225.562 274.711L225.234 274.875V285.492L231.398 281.18L225.562 274.711ZM251.016 272.016L254.555 276.258L251.016 279.398L248.062 275.672L245.742 277.781V291.445L248.414 293.367L250.828 291.445L251.367 292.195L245.367 297C244.086 295.859 243.008 295.039 242.133 294.539C241.273 294.039 240.328 293.648 239.297 293.367V292.852C239.984 292.367 240.43 291.883 240.633 291.398C240.852 290.898 240.961 289.953 240.961 288.562V279C240.961 277.797 240.82 277 240.539 276.609C240.273 276.203 239.977 276 239.648 276C239.289 276 238.797 276.312 238.172 276.938L237.609 276.258L242.555 272.016C243.883 273.031 244.789 273.914 245.273 274.664C245.586 275.133 245.742 275.781 245.742 276.609L251.016 272.016ZM273.75 273.023L274.594 273.352C273.75 274.664 273.211 275.672 272.977 276.375C272.758 277.062 272.648 278 272.648 279.188V289.172C272.648 290.828 272.773 291.867 273.023 292.289C273.289 292.695 273.602 292.898 273.961 292.898C274.148 292.898 274.344 292.852 274.547 292.758C274.672 292.68 275.039 292.398 275.648 291.914L276.164 292.688L270.938 297C269.734 296.062 268.93 295.227 268.523 294.492C268.117 293.742 267.891 292.703 267.844 291.375L260.719 297C258.047 294.812 256.711 292.656 256.711 290.531C256.711 289.109 257 287.773 257.578 286.523C258.344 284.883 259.664 282.969 261.539 280.781L258.727 274.781L259.055 274.125C259.664 274.188 260.117 274.219 260.414 274.219C262.258 274.219 263.883 273.484 265.289 272.016C266.43 272.688 267.672 273.227 269.016 273.633C270.375 274.039 271.414 274.242 272.133 274.242C272.461 274.242 272.711 274.188 272.883 274.078C273.055 273.953 273.344 273.602 273.75 273.023ZM267.844 277.5L259.828 275.039L262.688 281.086L267.844 283.5V277.5ZM267.844 284.461L262.172 281.812C261.297 283.719 260.859 285.391 260.859 286.828C260.859 289.359 262.008 291.445 264.305 293.086L267.844 290.227V284.461ZM291.562 272.016L295.102 276.258L291.562 279.398L288.609 275.672L286.289 277.781V291.445L288.961 293.367L291.375 291.445L291.914 292.195L285.914 297C284.633 295.859 283.555 295.039 282.68 294.539C281.82 294.039 280.875 293.648 279.844 293.367V292.852C280.531 292.367 280.977 291.883 281.18 291.398C281.398 290.898 281.508 289.953 281.508 288.562V279C281.508 277.797 281.367 277 281.086 276.609C280.82 276.203 280.523 276 280.195 276C279.836 276 279.344 276.312 278.719 276.938L278.156 276.258L283.102 272.016C284.43 273.031 285.336 273.914 285.82 274.664C286.133 275.133 286.289 275.781 286.289 276.609L291.562 272.016ZM297.188 276.117L302.109 272.016C303.453 272.922 304.32 273.711 304.711 274.383C305.117 275.055 305.32 275.977 305.32 277.148V277.664L312.422 272.016C314.844 274.562 316.055 277.289 316.055 280.195C316.055 281.758 315.656 283.32 314.859 284.883C314.062 286.43 312.812 287.906 311.109 289.312C309.406 290.703 306.656 292.531 302.859 294.797C301.203 295.797 300.211 296.43 299.883 296.695C299.18 297.242 298.68 297.773 298.383 298.289C298.164 298.664 298.055 299.086 298.055 299.555C298.055 300.352 298.445 301.086 299.227 301.758C300.023 302.445 301.07 302.789 302.367 302.789C303.305 302.789 304.078 302.625 304.688 302.297C304.984 302.141 305.273 301.805 305.555 301.289C305.836 300.789 306.078 300.461 306.281 300.305C306.484 300.148 306.727 300.07 307.008 300.07C307.32 300.07 307.57 300.156 307.758 300.328C307.945 300.5 308.039 300.727 308.039 301.008C308.039 301.508 307.672 302 306.938 302.484C305.812 303.266 304.391 303.656 302.672 303.656C300.875 303.656 299.492 303.227 298.523 302.367C297.555 301.523 297.07 300.516 297.07 299.344C297.07 298.188 297.609 297.062 298.688 295.969C299.203 295.438 299.523 295.062 299.648 294.844C299.992 294.25 300.227 293.703 300.352 293.203C300.477 292.688 300.539 291.969 300.539 291.047V279.844C300.539 278.281 300.359 277.219 300 276.656C299.719 276.219 299.414 276 299.086 276C298.82 276 298.477 276.203 298.055 276.609C297.992 276.672 297.891 276.766 297.75 276.891L297.188 276.117ZM305.32 278.742V292.055C307.523 290.461 309.086 288.805 310.008 287.086C310.945 285.352 311.414 283.703 311.414 282.141C311.414 280.031 310.555 277.969 308.836 275.953L305.32 278.742Z" fill="#0E21A0"/>
<rect x="50.3999" y="326" width="66.4" height="8" fill="#0E21A0"/>
<path d="M133.54 318.918L133.962 319.41C132.216 320.594 130.915 321.859 130.06 323.207C128.958 324.941 128.408 326.828 128.408 328.867C128.408 331.34 129.222 333.625 130.851 335.723C131.554 335.148 131.976 334.668 132.117 334.281C132.257 333.883 132.328 332.805 132.328 331.047V323.172L139.851 316.896C141.609 317.588 142.992 318.039 143.999 318.25C145.007 318.449 146.191 318.549 147.55 318.549H147.954L148.236 319.182L145.335 321.959C143.378 321.748 141.169 321.033 138.708 319.814L138.902 339.889L139.57 339.906C141.257 339.906 142.792 339.619 144.175 339.045C145.57 338.471 147.011 337.539 148.499 336.25L149.027 336.76C147.937 338.26 146.865 339.426 145.81 340.258C144.767 341.09 143.507 341.758 142.031 342.262C140.554 342.754 139.089 343 137.636 343C135.48 343 133.447 342.479 131.537 341.436C129.638 340.393 128.15 338.898 127.072 336.953C125.994 335.008 125.454 333.004 125.454 330.941C125.454 328.398 126.216 326.043 127.74 323.875C128.935 322.176 130.869 320.523 133.54 318.918ZM137.917 319.709L135.861 321.484V329.5C135.861 330.496 135.808 331.158 135.703 331.486C135.585 331.92 135.316 332.383 134.894 332.875C134.038 333.871 132.843 335.008 131.308 336.285C132.246 337.328 133.247 338.131 134.314 338.693C135.392 339.244 136.652 339.613 138.093 339.801L137.917 319.709ZM158.449 317.811V318.268C157.523 318.748 156.867 319.34 156.48 320.043C156.105 320.734 155.917 321.789 155.917 323.207V338.834L157.921 340.328L158.695 339.695L159.134 340.328L155.619 343C154.552 342.074 153.755 341.459 153.228 341.154C152.701 340.85 152.003 340.574 151.136 340.328V339.941C151.464 339.742 151.716 339.49 151.892 339.186C152.079 338.881 152.208 338.523 152.279 338.113C152.302 337.973 152.32 337.27 152.331 336.004V323.453C152.331 322.387 152.29 321.648 152.208 321.238C152.126 320.816 151.962 320.418 151.716 320.043C151.47 319.656 151.054 319.229 150.468 318.76L150.749 318.408C151.816 318.713 152.771 319.334 153.615 320.271C154.494 319.346 155.285 318.713 155.988 318.373C156.703 318.033 157.523 317.846 158.449 317.811ZM173.162 324.262L176.308 326.863L174.884 328.164V337.393C174.884 338.459 175.031 339.221 175.324 339.678C175.511 339.994 175.716 340.152 175.939 340.152C176.103 340.152 176.419 339.959 176.888 339.572L177.345 340.135L173.636 343C172.699 342.344 172.083 341.758 171.79 341.242C171.509 340.715 171.357 339.883 171.333 338.746C169.517 339.918 167.665 341.336 165.779 343C164.642 342.109 163.898 341.33 163.546 340.662C163.195 339.982 163.019 339.092 163.019 337.99V329.307C163.019 328.697 162.972 328.299 162.878 328.111C162.714 327.783 162.492 327.619 162.21 327.619C161.999 327.619 161.683 327.801 161.261 328.164L160.787 327.672L164.689 324.262L167.871 326.863L166.57 328.059V337.393C166.57 338.084 166.658 338.594 166.833 338.922C167.009 339.238 167.437 339.643 168.117 340.135L171.333 337.762V328.164L170.085 326.863L173.162 324.262ZM186.328 317.811L186.468 318.268C185.566 318.807 184.968 319.34 184.675 319.867C184.394 320.383 184.253 321.232 184.253 322.416V328.604L189.843 324.262C190.886 324.977 191.589 325.68 191.953 326.371C192.316 327.051 192.497 327.988 192.497 329.184V339.783C191.056 340.346 189.861 340.902 188.912 341.453C188.185 341.887 187.494 342.402 186.837 343C185.841 342.18 184.845 341.547 183.849 341.102C182.865 340.656 181.4 340.217 179.454 339.783V339.467C179.958 339.115 180.275 338.705 180.404 338.236C180.603 337.545 180.703 335.945 180.703 333.438V323.26C180.703 321.936 180.568 320.98 180.298 320.395C180.029 319.797 179.519 319.24 178.769 318.725L179.085 318.268C179.976 318.654 180.585 318.953 180.913 319.164C181.242 319.363 181.558 319.627 181.863 319.955C183.07 319.088 183.925 318.543 184.429 318.32C184.933 318.086 185.566 317.916 186.328 317.811ZM184.253 338.166L188.859 339.977V330.08C188.859 329.166 188.771 328.539 188.595 328.199C188.431 327.848 188.027 327.455 187.382 327.021L184.253 329.43V338.166Z" fill="#0E21A0"/>
<rect x="200.8" y="326" width="66.4" height="8" fill="#0E21A0"/>
</svg>
