<svg width="239" height="267" viewBox="0 0 239 267" fill="none" xmlns="http://www.w3.org/2000/svg">
<path d="M28 48.6C28 46.6118 29.6118 45 31.6 45V45C33.5882 45 35.2 46.6118 35.2 48.6V160.8H28V48.6Z" fill="white"/>
<path d="M28 160.8H96.4C98.3882 160.8 100 162.412 100 164.4V164.4C100 166.388 98.3882 168 96.4 168H31C29.3431 168 28 166.657 28 165V160.8Z" fill="white"/>
<path d="M203.8 48.6C203.8 46.6118 205.412 45 207.4 45V45C209.388 45 211 46.6118 211 48.6L211 160.8H203.8L203.8 48.6Z" fill="white"/>
<path d="M139 164.4C139 162.412 140.612 160.8 142.6 160.8L211 160.8V165C211 166.657 209.657 168 208 168L142.6 168C140.612 168 139 166.388 139 164.4V164.4Z" fill="white"/>
<path d="M46.6001 8.40039L61.0909 16.0142C63.0642 17.051 64.3001 19.0965 64.3001 21.3256V61.2004V61.2004C65.6256 59.8749 67.7746 59.8749 69.1001 61.2004V61.2004V25.0725C69.1001 22.8873 71.3615 21.4353 73.3485 22.3446L104.5 36.6004V36.6004C111.082 41.9697 112.826 51.3058 108.628 58.6896L107.2 61.2004L110.37 65.3538C114.036 70.1573 116.955 75.487 119.029 81.1626L121.6 88.2004L124.349 80.6776C126.306 75.3202 129.018 70.2692 132.401 65.6773L135.7 61.2004L133.837 57.807C129.989 50.7986 131.373 42.0745 137.2 36.6004V36.6004L192.7 8.40039V129.9L121.9 159.6L46.6001 129.9V8.40039Z" fill="white"/>
<circle cx="121.6" cy="88.1998" r="2.4" fill="white"/>
<circle cx="121.6" cy="70.8" r="1.8" fill="white"/>
<line x1="121.6" y1="70.8057" x2="121.6" y2="39" stroke="white" stroke-width="1.2"/>
<path d="M121.888 159.602L121.888 89.0991" stroke="white" stroke-width="1.2"/>
<line x1="52.4512" y1="124.556" x2="113.645" y2="149.28" stroke="black" stroke-width="0.3"/>
<line x1="128.144" y1="149.385" x2="189.338" y2="124.661" stroke="black" stroke-width="0.3"/>
<path fill-rule="evenodd" clip-rule="evenodd" d="M63.7001 36.6H64.3001V12.9253C64.3001 10.6961 63.0642 8.65065 61.0909 7.61379L47.2001 0.315254L46.6001 0V0.67778V36.6H47.2001V0.993034L60.8118 8.14494C62.5878 9.07811 63.7001 10.919 63.7001 12.9253V36.6ZM69.1001 36.6V16.6721C69.1001 14.4869 71.3615 13.0349 73.3485 13.9442L104.5 28.2C107.257 30.449 109.165 33.394 110.143 36.6H109.515C108.562 33.5954 106.76 30.8373 104.18 28.7133L73.0988 14.4898C71.5092 13.7623 69.7001 14.9239 69.7001 16.6721V36.6H69.1001ZM192.1 36.6V0.977877L137.549 28.6957C135.22 30.9052 133.635 33.6552 132.849 36.6H132.228C133.035 33.4653 134.713 30.5366 137.2 28.2L192.1 0.304868L192.7 0V0.673009V36.6H192.1Z" fill="white"/>
<path d="M11.3027 196.721L19.2656 199.375L19.8457 198.338C20.0566 197.963 20.2031 197.734 20.2852 197.652C20.3789 197.559 20.4844 197.512 20.6016 197.512C20.7188 197.512 20.8125 197.553 20.8828 197.635C20.9648 197.717 21.0059 197.811 21.0059 197.916C21.0059 198.08 20.8652 198.402 20.584 198.883L16.875 205.299L19.7754 205.193C20.6895 205.158 21.75 205.287 22.957 205.58C24.1758 205.873 25.2188 206.33 26.0859 206.951C26.9648 207.561 27.6504 208.287 28.1426 209.131C28.6465 209.963 28.8984 210.883 28.8984 211.891C28.8984 213.742 28.1191 215.564 26.5605 217.357C25.0137 219.139 22.2539 221.02 18.2812 223C16.9102 222.438 15.3164 221.846 13.5 221.225C10.1484 222.83 7.41211 223.633 5.29102 223.633C3.7793 223.633 2.61328 223.305 1.79297 222.648C0.984375 221.98 0.580078 221.213 0.580078 220.346C0.580078 219.42 1.07227 218.576 2.05664 217.814C3.04102 217.041 4.5 216.654 6.43359 216.654C7.19531 216.654 8.14453 216.736 9.28125 216.9L10.5996 214.51L8.12109 214.615C7.51172 214.627 6.69141 214.545 5.66016 214.369C4.62891 214.182 3.7793 213.883 3.11133 213.473C2.45508 213.062 1.96289 212.559 1.63477 211.961C1.30664 211.363 1.14258 210.736 1.14258 210.08C1.14258 209.037 1.51172 208.111 2.25 207.303C2.71875 206.787 3.49219 206.324 4.57031 205.914L4.55273 205.703C4.55273 204.613 5.0332 203.365 5.99414 201.959C6.9668 200.541 8.73633 198.795 11.3027 196.721ZM17.666 202.188C15.8262 201.273 14.3906 200.664 13.3594 200.359C12.3281 200.043 11.4199 199.885 10.6348 199.885C9.5332 199.885 8.63672 200.195 7.94531 200.816C7.25391 201.438 6.9082 202.164 6.9082 202.996C6.9082 203.816 7.20117 204.49 7.78711 205.018C8.38477 205.545 9.28125 205.809 10.4766 205.809C11.2734 205.809 13.0664 205.662 15.8555 205.369L17.666 202.188ZM13.9219 208.709C12.4102 208.896 10.9453 208.99 9.52734 208.99C7.93359 208.99 6.80273 208.803 6.13477 208.428C5.4668 208.053 4.96875 207.467 4.64062 206.67C3.79688 207.209 3.375 207.877 3.375 208.674C3.375 209.4 3.70312 209.998 4.35938 210.467C5.22656 211.076 6.70898 211.381 8.80664 211.381C9.7793 211.381 11.0156 211.316 12.5156 211.188L13.9219 208.709ZM13.5 211.117C16.3008 210.801 18.2461 210.643 19.3359 210.643C20.8242 210.643 21.9609 210.982 22.7461 211.662C23.5312 212.33 23.9238 213.133 23.9238 214.07C23.9238 214.891 23.5371 215.688 22.7637 216.461C22.002 217.234 20.3906 218.154 17.9297 219.221L21.4102 220.293C22.9453 219.344 24.1289 218.318 24.9609 217.217C25.793 216.115 26.209 214.902 26.209 213.578C26.209 212.711 25.9453 211.861 25.418 211.029C24.9023 210.186 24.1055 209.518 23.0273 209.025C21.9492 208.521 20.707 208.27 19.3008 208.27C18.1641 208.27 16.7109 208.387 14.9414 208.621L13.5 211.117ZM10.0898 217.041C11.25 217.275 12.1934 217.492 12.9199 217.691C13.6582 217.891 14.9648 218.289 16.8398 218.887C19.4414 217.668 20.7422 216.455 20.7422 215.248C20.7422 214.873 20.5723 214.533 20.2324 214.229C19.9043 213.924 19.4824 213.771 18.9668 213.771C18.334 213.771 17.5547 213.842 16.6289 213.982C14.0508 214.334 12.3574 214.51 11.5488 214.51L10.0898 217.041ZM12.3223 220.855C9.32227 219.953 6.89062 219.502 5.02734 219.502C4.06641 219.502 3.30469 219.713 2.74219 220.135C2.35547 220.416 2.16211 220.762 2.16211 221.172C2.16211 221.605 2.35547 221.951 2.74219 222.209C3.35156 222.631 4.23633 222.842 5.39648 222.842C7.17773 222.842 9.48633 222.18 12.3223 220.855ZM36.2988 198.25H38.5312L36.1055 202.047H35.4023L36.2988 198.25ZM34.9629 204.262L38.0918 206.846L36.7031 208.199V217.762C36.7031 218.77 36.7969 219.426 36.9844 219.73C37.1719 220.035 37.3652 220.188 37.5645 220.188C37.7051 220.188 37.834 220.158 37.9512 220.1C38.1152 220.018 38.4551 219.783 38.9707 219.396L39.3926 219.941L35.4023 223C34.4648 222.332 33.8613 221.705 33.5918 221.119C33.3223 220.521 33.1875 219.484 33.1875 218.008V208.199L31.8691 206.846L34.9629 204.262ZM49.3594 197.811V198.268C48.4336 198.748 47.7773 199.34 47.3906 200.043C47.0156 200.734 46.8281 201.789 46.8281 203.207V218.834L48.832 220.328L49.6055 219.695L50.0449 220.328L46.5293 223C45.4629 222.074 44.666 221.459 44.1387 221.154C43.6113 220.85 42.9141 220.574 42.0469 220.328V219.941C42.375 219.742 42.627 219.49 42.8027 219.186C42.9902 218.881 43.1191 218.523 43.1895 218.113C43.2129 217.973 43.2305 217.27 43.2422 216.004V203.453C43.2422 202.387 43.2012 201.648 43.1191 201.238C43.0371 200.816 42.873 200.418 42.627 200.043C42.3809 199.656 41.9648 199.229 41.3789 198.76L41.6602 198.408C42.7266 198.713 43.6816 199.334 44.5254 200.271C45.4043 199.346 46.1953 198.713 46.8984 198.373C47.6133 198.033 48.4336 197.846 49.3594 197.811ZM56.5488 198.25H58.7812L56.3555 202.047H55.6523L56.5488 198.25ZM55.2129 204.262L58.3418 206.846L56.9531 208.199V217.762C56.9531 218.77 57.0469 219.426 57.2344 219.73C57.4219 220.035 57.6152 220.188 57.8145 220.188C57.9551 220.188 58.084 220.158 58.2012 220.1C58.3652 220.018 58.7051 219.783 59.2207 219.396L59.6426 219.941L55.6523 223C54.7148 222.332 54.1113 221.705 53.8418 221.119C53.5723 220.521 53.4375 219.484 53.4375 218.008V208.199L52.1191 206.846L55.2129 204.262ZM67.7109 204.262L72.2812 206.863L70.418 209.623L66.9727 207.637V218.834L70.418 220.398L72.2812 219.08L72.457 219.818L68.0977 223C66.9727 222.367 66.0117 221.904 65.2148 221.611C64.418 221.307 63.4395 221.043 62.2793 220.82V220.398C62.6895 220.117 62.959 219.812 63.0879 219.484C63.2754 219.027 63.3691 218.312 63.3691 217.34V207.338C64.834 206.67 66.2812 205.645 67.7109 204.262ZM86.7305 206.828V219.977C84.9727 220.691 83.7012 221.277 82.916 221.734C82.3184 222.074 81.7441 222.496 81.1934 223C79.4941 221.969 78.0879 221.254 76.9746 220.855C76.1309 220.551 75.1758 220.375 74.1094 220.328L73.9336 219.977C74.3789 219.602 74.6602 219.262 74.7773 218.957C74.9414 218.559 75.0234 217.885 75.0234 216.936V207.285C77.168 206.57 79.002 205.562 80.5254 204.262C82.1895 205.363 84.2578 206.219 86.7305 206.828ZM78.5742 218.271L83.1621 220.152V208.973C81.7207 208.305 80.7012 207.865 80.1035 207.654C79.6816 207.502 79.1719 207.373 78.5742 207.268V218.271ZM100.898 204.262L103.781 206.951L105.486 205.299L105.979 205.773C105.158 206.523 104.66 207.092 104.484 207.479C104.25 207.994 104.133 208.703 104.133 209.605V217.955C104.133 218.729 104.256 219.303 104.502 219.678C104.654 219.924 104.824 220.047 105.012 220.047C105.176 220.047 105.562 219.818 106.172 219.361L106.594 219.906L102.814 223C101.842 222.262 101.215 221.611 100.934 221.049C100.664 220.475 100.529 219.555 100.529 218.289V208.604L98.6133 206.951L95.7656 209.219V219.221L97.0312 220.486L93.9199 223L90.791 220.486L92.1621 219.221V210.238C92.1621 208.961 92.0332 208.1 91.7754 207.654C91.5996 207.35 91.4004 207.197 91.1777 207.197C90.9434 207.197 90.5918 207.379 90.123 207.742L89.7012 207.25L93.4453 204.262C94.4766 204.988 95.1211 205.562 95.3789 205.984C95.6367 206.406 95.7656 206.992 95.7656 207.742V208.34L100.898 204.262ZM137.338 196.369L137.742 197.002C136.395 197.201 135.387 197.594 134.719 198.18C134.051 198.754 133.717 199.609 133.717 200.746C133.717 201.367 133.781 202.264 133.91 203.436C134.145 205.451 134.262 207.098 134.262 208.375C134.262 210.098 133.875 211.609 133.102 212.91C132.34 214.199 130.547 216.051 127.723 218.465C129.574 217.867 131.238 217.568 132.715 217.568C134.062 217.568 135.27 217.756 136.336 218.131C137.414 218.494 138.609 219.133 139.922 220.047L141.68 218.465L142.189 219.08L137.637 223C136.395 222.074 135.152 221.4 133.91 220.979C132.68 220.545 131.238 220.328 129.586 220.328C128.051 220.328 126.604 220.51 125.244 220.873C123.896 221.236 122.156 221.945 120.023 223L119.672 222.508C121.793 220.938 123.199 219.684 123.891 218.746C124.582 217.797 124.928 216.906 124.928 216.074C124.928 215.277 124.676 214.615 124.172 214.088C123.668 213.549 123.088 213.279 122.432 213.279C122.104 213.279 121.729 213.379 121.307 213.578L120.779 213.068C121.213 212.682 121.611 212.412 121.975 212.26C122.338 212.107 122.76 212.031 123.24 212.031C123.521 212.031 123.809 212.072 124.102 212.154C124.395 212.225 124.688 212.342 124.98 212.506C125.004 212.236 125.016 212.02 125.016 211.855C125.016 211.105 124.734 210.455 124.172 209.904C123.609 209.354 122.918 209.078 122.098 209.078C121.512 209.078 120.908 209.312 120.287 209.781L119.672 209.359C120.105 208.785 120.551 208.381 121.008 208.146C121.734 207.76 122.508 207.566 123.328 207.566C123.504 207.566 123.697 207.584 123.908 207.619C124.119 207.643 124.342 207.684 124.576 207.742C124.506 207.027 124.471 206.43 124.471 205.949C124.471 204.531 124.682 203.324 125.104 202.328C125.537 201.332 126.275 200.295 127.318 199.217C126.193 199.615 125.238 199.814 124.453 199.814C123.68 199.814 122.701 199.633 121.518 199.27C120.979 199.105 120.551 199.023 120.234 199.023C119.625 199.023 119.109 199.217 118.688 199.604C118.277 199.99 118.072 200.453 118.072 200.992C118.072 201.191 118.125 201.426 118.23 201.695L117.475 201.959C117.346 201.408 117.281 200.951 117.281 200.588C117.281 199.451 117.721 198.467 118.6 197.635C119.479 196.791 120.533 196.369 121.764 196.369C122.326 196.369 123.193 196.58 124.365 197.002C125.549 197.424 126.469 197.635 127.125 197.635C128.32 197.635 129.457 197.213 130.535 196.369L131.045 197.002C129.873 197.881 129.047 198.748 128.566 199.604C128.098 200.459 127.863 201.496 127.863 202.715C127.863 203.617 127.922 204.66 128.039 205.844C128.273 208.07 128.391 209.582 128.391 210.379C128.391 212.078 128.115 213.619 127.564 215.002C127.014 216.373 126.018 217.961 124.576 219.766C126.768 218.207 128.338 216.607 129.287 214.967C130.248 213.326 130.729 211.48 130.729 209.43C130.729 208.27 130.646 206.998 130.482 205.615C130.318 204.221 130.236 203.049 130.236 202.1C130.236 201.256 130.436 200.424 130.834 199.604C131.232 198.783 131.76 198.139 132.416 197.67C133.072 197.201 133.799 196.861 134.596 196.65C135.193 196.498 136.107 196.404 137.338 196.369ZM148.623 198.25H150.855L148.43 202.047H147.727L148.623 198.25ZM147.287 204.262L150.416 206.846L149.027 208.199V217.762C149.027 218.77 149.121 219.426 149.309 219.73C149.496 220.035 149.689 220.188 149.889 220.188C150.029 220.188 150.158 220.158 150.275 220.1C150.439 220.018 150.779 219.783 151.295 219.396L151.717 219.941L147.727 223C146.789 222.332 146.186 221.705 145.916 221.119C145.646 220.521 145.512 219.484 145.512 218.008V208.199L144.193 206.846L147.287 204.262ZM153.615 206.195L158.52 200.131H159.029L158.854 204.982H162.387V206.969H158.854V218.799L160.822 220.258L161.947 219.379L162.387 219.906L158.52 223C157.195 221.652 155.695 220.738 154.02 220.258V219.906C154.488 219.59 154.799 219.262 154.951 218.922C155.15 218.488 155.25 217.861 155.25 217.041V206.969H153.615V206.195ZM171.844 204.262L176.801 210.045L168.926 215.564V218.764L173.004 220.381L175.764 218.5L176.15 219.027L170.455 223C169.295 222.379 168.34 221.934 167.59 221.664C166.84 221.395 165.773 221.113 164.391 220.82V220.381C164.789 220.146 165.053 219.859 165.182 219.52C165.322 219.168 165.393 218.418 165.393 217.27V207.215C166.494 206.816 167.408 206.453 168.135 206.125C168.662 205.879 169.898 205.258 171.844 204.262ZM169.172 206.283L168.926 206.406V214.369L173.549 211.135L169.172 206.283ZM188.262 204.262L190.916 207.443L188.262 209.799L186.047 207.004L184.307 208.586V218.834L186.311 220.275L188.121 218.834L188.525 219.396L184.025 223C183.064 222.145 182.256 221.529 181.6 221.154C180.955 220.779 180.246 220.486 179.473 220.275V219.889C179.988 219.525 180.322 219.162 180.475 218.799C180.639 218.424 180.721 217.715 180.721 216.672V209.5C180.721 208.598 180.615 208 180.404 207.707C180.205 207.402 179.982 207.25 179.736 207.25C179.467 207.25 179.098 207.484 178.629 207.953L178.207 207.443L181.916 204.262C182.912 205.023 183.592 205.686 183.955 206.248C184.189 206.6 184.307 207.086 184.307 207.707L188.262 204.262ZM205.312 205.018L205.945 205.264C205.312 206.248 204.908 207.004 204.732 207.531C204.568 208.047 204.486 208.75 204.486 209.641V217.129C204.486 218.371 204.58 219.15 204.768 219.467C204.967 219.771 205.201 219.924 205.471 219.924C205.611 219.924 205.758 219.889 205.91 219.818C206.004 219.76 206.279 219.549 206.736 219.186L207.123 219.766L203.203 223C202.301 222.297 201.697 221.67 201.393 221.119C201.088 220.557 200.918 219.777 200.883 218.781L195.539 223C193.535 221.359 192.533 219.742 192.533 218.148C192.533 217.082 192.75 216.08 193.184 215.143C193.758 213.912 194.748 212.477 196.154 210.836L194.045 206.336L194.291 205.844C194.748 205.891 195.088 205.914 195.311 205.914C196.693 205.914 197.912 205.363 198.967 204.262C199.822 204.766 200.754 205.17 201.762 205.475C202.781 205.779 203.561 205.932 204.1 205.932C204.346 205.932 204.533 205.891 204.662 205.809C204.791 205.715 205.008 205.451 205.312 205.018ZM200.883 208.375L194.871 206.529L197.016 211.064L200.883 212.875V208.375ZM200.883 213.596L196.629 211.609C195.973 213.039 195.645 214.293 195.645 215.371C195.645 217.27 196.506 218.834 198.229 220.064L200.883 217.92V213.596ZM218.672 204.262L221.326 207.443L218.672 209.799L216.457 207.004L214.717 208.586V218.834L216.721 220.275L218.531 218.834L218.936 219.396L214.436 223C213.475 222.145 212.666 221.529 212.01 221.154C211.365 220.779 210.656 220.486 209.883 220.275V219.889C210.398 219.525 210.732 219.162 210.885 218.799C211.049 218.424 211.131 217.715 211.131 216.672V209.5C211.131 208.598 211.025 208 210.814 207.707C210.615 207.402 210.393 207.25 210.146 207.25C209.877 207.25 209.508 207.484 209.039 207.953L208.617 207.443L212.326 204.262C213.322 205.023 214.002 205.686 214.365 206.248C214.6 206.6 214.717 207.086 214.717 207.707L218.672 204.262ZM222.891 207.338L226.582 204.262C227.59 204.941 228.24 205.533 228.533 206.037C228.838 206.541 228.99 207.232 228.99 208.111V208.498L234.316 204.262C236.133 206.172 237.041 208.217 237.041 210.396C237.041 211.568 236.742 212.74 236.145 213.912C235.547 215.072 234.609 216.18 233.332 217.234C232.055 218.277 229.992 219.648 227.145 221.348C225.902 222.098 225.158 222.572 224.912 222.771C224.385 223.182 224.01 223.58 223.787 223.967C223.623 224.248 223.541 224.564 223.541 224.916C223.541 225.514 223.834 226.064 224.42 226.568C225.018 227.084 225.803 227.342 226.775 227.342C227.479 227.342 228.059 227.219 228.516 226.973C228.738 226.855 228.955 226.604 229.166 226.217C229.377 225.842 229.559 225.596 229.711 225.479C229.863 225.361 230.045 225.303 230.256 225.303C230.49 225.303 230.678 225.367 230.818 225.496C230.959 225.625 231.029 225.795 231.029 226.006C231.029 226.381 230.754 226.75 230.203 227.113C229.359 227.699 228.293 227.992 227.004 227.992C225.656 227.992 224.619 227.67 223.893 227.025C223.166 226.393 222.803 225.637 222.803 224.758C222.803 223.891 223.207 223.047 224.016 222.227C224.402 221.828 224.643 221.547 224.736 221.383C224.994 220.938 225.17 220.527 225.264 220.152C225.357 219.766 225.404 219.227 225.404 218.535V210.133C225.404 208.961 225.27 208.164 225 207.742C224.789 207.414 224.561 207.25 224.314 207.25C224.115 207.25 223.857 207.402 223.541 207.707C223.494 207.754 223.418 207.824 223.312 207.918L222.891 207.338ZM228.99 209.307V219.291C230.643 218.096 231.814 216.854 232.506 215.564C233.209 214.264 233.561 213.027 233.561 211.855C233.561 210.273 232.916 208.727 231.627 207.215L228.99 209.307Z" fill="white"/>
<rect x="37.8999" y="244.5" width="49.8" height="6" fill="white"/>
<path d="M100.555 238.938L100.872 239.308C99.562 240.195 98.5864 241.145 97.9448 242.155C97.1187 243.456 96.7056 244.871 96.7056 246.4C96.7056 248.255 97.3164 249.969 98.5381 251.542C99.0654 251.111 99.3818 250.751 99.4873 250.461C99.5928 250.162 99.6455 249.354 99.6455 248.035V242.129L105.288 237.422C106.606 237.941 107.644 238.279 108.399 238.438C109.155 238.587 110.043 238.662 111.062 238.662H111.366L111.577 239.136L109.401 241.219C107.934 241.061 106.277 240.525 104.431 239.611L104.576 254.667L105.077 254.68C106.343 254.68 107.494 254.464 108.531 254.034C109.577 253.603 110.658 252.904 111.774 251.938L112.17 252.32C111.353 253.445 110.548 254.319 109.757 254.943C108.975 255.567 108.03 256.068 106.923 256.446C105.815 256.815 104.717 257 103.627 257C102.01 257 100.485 256.609 99.0522 255.827C97.6284 255.044 96.5122 253.924 95.7036 252.465C94.895 251.006 94.4907 249.503 94.4907 247.956C94.4907 246.049 95.062 244.282 96.2046 242.656C97.1011 241.382 98.5513 240.143 100.555 238.938ZM103.838 239.532L102.295 240.863V246.875C102.295 247.622 102.256 248.119 102.177 248.365C102.089 248.69 101.887 249.037 101.57 249.406C100.929 250.153 100.032 251.006 98.8809 251.964C99.584 252.746 100.335 253.348 101.135 253.77C101.944 254.183 102.889 254.46 103.97 254.601L103.838 239.532ZM119.236 238.108V238.451C118.542 238.811 118.05 239.255 117.76 239.782C117.479 240.301 117.338 241.092 117.338 242.155V253.875L118.841 254.996L119.421 254.521L119.75 254.996L117.114 257C116.314 256.306 115.716 255.844 115.321 255.616C114.925 255.387 114.402 255.181 113.752 254.996V254.706C113.998 254.557 114.187 254.368 114.319 254.139C114.459 253.911 114.556 253.643 114.609 253.335C114.626 253.229 114.64 252.702 114.648 251.753V242.34C114.648 241.54 114.618 240.986 114.556 240.679C114.495 240.362 114.372 240.063 114.187 239.782C114.002 239.492 113.69 239.171 113.251 238.82L113.462 238.556C114.262 238.785 114.978 239.25 115.611 239.954C116.27 239.259 116.863 238.785 117.391 238.53C117.927 238.275 118.542 238.134 119.236 238.108ZM130.271 242.946L132.631 244.897L131.563 245.873V252.794C131.563 253.594 131.673 254.166 131.893 254.508C132.033 254.746 132.187 254.864 132.354 254.864C132.477 254.864 132.714 254.719 133.066 254.429L133.409 254.851L130.627 257C129.924 256.508 129.462 256.068 129.243 255.682C129.032 255.286 128.917 254.662 128.9 253.81C127.538 254.688 126.149 255.752 124.734 257C123.881 256.332 123.323 255.748 123.06 255.247C122.796 254.737 122.664 254.069 122.664 253.243V246.73C122.664 246.273 122.629 245.974 122.559 245.833C122.436 245.587 122.269 245.464 122.058 245.464C121.899 245.464 121.662 245.601 121.346 245.873L120.99 245.504L123.917 242.946L126.303 244.897L125.327 245.794V252.794C125.327 253.313 125.393 253.695 125.525 253.941C125.657 254.179 125.978 254.482 126.487 254.851L128.9 253.071V245.873L127.964 244.897L130.271 242.946ZM140.146 238.108L140.251 238.451C139.574 238.855 139.126 239.255 138.906 239.65C138.695 240.037 138.59 240.674 138.59 241.562V246.203L142.782 242.946C143.564 243.482 144.092 244.01 144.364 244.528C144.637 245.038 144.773 245.741 144.773 246.638V254.587C143.692 255.009 142.795 255.427 142.083 255.84C141.539 256.165 141.02 256.552 140.528 257C139.781 256.385 139.034 255.91 138.287 255.576C137.548 255.242 136.45 254.913 134.991 254.587V254.35C135.369 254.086 135.606 253.779 135.703 253.427C135.852 252.909 135.927 251.709 135.927 249.828V242.195C135.927 241.202 135.826 240.485 135.624 240.046C135.421 239.598 135.039 239.18 134.477 238.793L134.714 238.451C135.382 238.741 135.839 238.965 136.085 239.123C136.331 239.272 136.568 239.47 136.797 239.716C137.702 239.066 138.344 238.657 138.722 238.49C139.1 238.314 139.574 238.187 140.146 238.108ZM138.59 253.375L142.044 254.732V247.31C142.044 246.625 141.978 246.154 141.846 245.899C141.723 245.636 141.42 245.341 140.937 245.016L138.59 246.822V253.375Z" fill="white"/>
<rect x="151.3" y="244.5" width="49.8" height="6" fill="white"/>
</svg>
