<svg width="491" height="421" viewBox="0 0 491 421" fill="none" xmlns="http://www.w3.org/2000/svg">
<path d="M226.086 0.603912C188.133 4.4384 155.185 18.1925 126.824 42.033C119.734 47.9514 106.555 61.2888 102.635 66.3736C101.467 67.8741 99.7152 70.1248 98.6308 71.3751C97.5464 72.6255 94.2099 77.5436 91.207 82.3784C79.279 101.134 71.1045 120.64 67.1007 139.896C66.4334 143.313 65.6827 146.231 65.5993 146.398C65.4325 146.481 62.5964 146.564 59.3433 146.398L53.3376 146.148L55.5063 143.23C60.0106 137.145 65.9329 123.891 67.9348 115.388C70.7709 103.468 70.4372 101.134 66.8505 107.803C65.7661 109.887 63.0969 113.138 61.0116 115.055C47.5821 127.142 36.4048 139.145 33.4853 144.647C32.9014 145.814 31.7336 146.564 30.5659 146.564C28.6474 146.564 28.6474 146.398 28.1469 135.061C27.8132 128.726 27.1459 121.473 26.562 118.973C25.9781 116.472 25.5611 108.636 25.5611 101.134C25.4777 87.7967 25.5611 87.7967 28.2303 82.045C29.6483 78.8774 30.8995 76.2099 30.8995 76.0432C30.8995 73.7092 23.3923 83.0453 19.0549 90.7143C15.8852 96.3826 11.9648 107.219 10.3799 114.555C9.04532 121.223 9.04532 138.895 10.4633 144.23C11.0472 146.481 10.9638 146.564 8.04437 146.564C5.37516 146.564 5.0415 146.814 5.0415 148.648V150.732L146.26 150.816C223.834 150.816 293.15 150.816 300.156 150.732C308.581 150.649 312.835 150.899 312.835 151.482C312.835 151.983 313.753 152.399 314.92 152.399C316.088 152.399 317.006 151.983 317.006 151.566C317.006 150.982 344.365 150.732 397.332 150.732C441.458 150.732 478.994 150.482 480.745 150.232C484.249 149.649 484.916 148.231 481.746 148.231C480.579 148.231 479.661 147.815 479.661 147.398C479.661 146.898 479.077 146.564 478.326 146.564C477.242 146.564 477.075 146.064 477.492 144.23C477.742 142.98 478.243 138.229 478.493 133.644C479.411 119.139 476.575 105.052 470.235 93.215C466.398 86.0462 459.308 75.7931 458.224 75.7098C456.806 75.7098 456.889 75.9598 458.641 79.2108C461.977 85.296 463.229 92.6315 462.728 103.468C462.395 109.053 461.811 116.055 461.394 119.056C460.893 122.057 460.309 129.476 459.976 135.478C459.392 145.981 459.308 146.564 457.64 146.564C456.389 146.564 454.387 144.564 450.967 139.896C448.298 136.228 440.54 127.892 433.784 121.39C427.111 114.805 421.022 108.22 420.354 106.719C418.936 103.468 417.602 103.218 418.269 106.302C418.519 107.636 418.936 110.303 419.27 112.304C420.354 119.89 426.61 134.644 431.782 142.313C432.866 143.98 433.784 145.564 433.784 145.897C433.784 147.064 419.604 146.648 419.27 145.481C419.103 144.981 418.353 141.646 417.518 138.229C414.349 124.058 407.175 105.469 400.252 93.2984C398.083 89.4639 396.248 86.1296 396.248 85.9628C396.248 85.296 386.739 71.8753 382.235 66.2069C373.893 55.7871 362.049 44.6171 347.869 33.7805C335.523 24.361 315.838 14.4414 299.072 9.10646C285.976 4.93855 281.889 3.93825 267.542 1.60422C260.368 0.353836 234.427 -0.22966 226.086 0.603912ZM261.953 8.60632C290.147 12.4408 309.415 19.1095 332.02 32.6135C347.952 42.1997 365.469 57.621 377.063 72.3754C379.399 75.3763 381.818 78.4606 382.485 79.2942C387.573 85.3793 399.501 107.469 402.921 116.972C403.922 119.723 405.006 122.724 405.423 123.641C405.841 124.558 406.758 127.559 407.509 130.309C408.26 133.06 409.26 136.145 409.594 137.061C410.011 138.062 410.595 140.563 410.845 142.73L411.429 146.564H392.995H374.561L374.06 144.23C372.976 139.396 372.225 136.811 370.473 132.643L368.722 128.226L370.807 127.725C373.643 127.058 373.476 125.475 370.64 126.058C368.388 126.558 368.138 126.225 364.801 119.306C358.545 106.302 350.204 94.6321 339.194 83.6288C328.85 73.2924 325.931 70.7083 323.012 69.1245C322.094 68.6243 320.843 67.7074 320.176 67.2072C318.007 65.1233 312.168 61.6222 303.91 57.4543C295.986 53.5364 295.569 53.203 295.986 51.0357C296.236 49.4519 296.069 48.9517 295.402 49.3685C294.901 49.702 294.484 50.5356 294.484 51.2024C294.484 52.7029 293.734 52.7029 288.479 50.7856C279.303 47.3679 267.542 44.8672 255.197 43.6168C243.686 42.4498 241.1 42.4498 229.589 43.6168C222.582 44.2837 214.742 45.4507 212.072 46.2009C209.487 46.9511 205.816 47.8681 203.981 48.2849C196.224 50.1188 173.869 60.2885 170.116 63.7062C169.448 64.373 168.531 64.8732 168.197 64.8732C166.612 64.8732 154.017 75.1263 147.177 81.8783C137.751 91.2978 131.913 98.8 125.573 109.22C122.821 113.888 120.151 117.389 119.401 117.389C118.566 117.389 118.4 117.639 119.067 118.306C119.651 118.889 118.984 121.473 116.815 126.808C114.229 133.31 112.978 137.061 110.475 145.481C110.225 146.314 105.804 146.564 91.7909 146.564C81.698 146.564 73.4401 146.398 73.4401 146.231C73.4401 143.48 79.5292 122.724 81.8648 117.639C82.6989 115.638 83.4496 113.888 83.4496 113.638C83.4496 111.721 96.4621 87.2132 97.7132 86.7131C98.1303 86.5463 98.464 86.0462 98.464 85.546C98.464 84.8792 99.9654 82.7119 103.719 77.7937C112.311 66.5403 126.24 51.7859 133.331 46.5343C134.915 45.3673 136.584 44.0336 137.084 43.6168C138.752 42.1997 147.094 36.1979 148.679 35.281C149.513 34.7808 152.682 32.9469 155.769 31.0297C160.523 28.1955 167.697 24.5278 176.455 20.6099C188.633 15.1916 204.815 10.9404 221.081 8.93974C225.001 8.43961 228.338 7.93945 228.505 7.68938C229.339 6.85579 254.029 7.52266 261.953 8.60632ZM241.934 57.2042V68.791L232.509 69.2912C219.079 70.0414 202.647 74.5427 190.802 80.7946C182.461 85.2126 168.781 94.7988 166.696 97.7164C166.445 98.1331 162.609 95.2156 158.188 91.0477L150.263 83.6288L154.601 79.6276C165.278 69.6246 185.881 57.4543 198.559 53.6198C201.062 52.8696 203.898 51.9526 204.815 51.5359C209.487 49.6186 221.915 47.3679 231.925 46.6177C236.262 46.2009 240.349 45.8675 240.933 45.8675C241.684 45.7008 241.934 48.535 241.934 57.2042ZM264.039 47.7847C273.798 49.4519 280.805 51.3691 291.565 55.537C305.078 60.7053 317.923 68.6243 330.852 79.7943L335.023 83.3787L330.936 87.2966C326.849 91.2144 326.682 91.2978 324.346 90.1308C322.761 89.2972 322.011 88.2969 322.011 86.7964C322.011 85.546 320.926 83.6288 319.091 81.8783C317.506 80.3778 316.172 78.7107 316.172 78.2105C316.172 77.7937 315.254 77.3769 314.086 77.3769C312.835 77.3769 311.501 76.6267 310.666 75.293C309.749 73.8759 308.581 73.209 306.913 73.209C305.662 73.209 304.327 72.7922 304.077 72.3754C303.326 71.1251 298.572 71.3751 296.153 72.7922C294.985 73.4591 292.482 73.9592 290.564 74.0426C288.062 74.0426 286.977 74.376 286.977 75.2096C286.977 77.9604 284.808 78.2939 280.221 76.2933C273.965 73.5424 259.534 70.1248 251.36 69.3745L244.437 68.791V62.7059C244.437 57.0375 244.603 56.5373 246.188 56.5373C247.106 56.5373 248.44 55.9538 249.191 55.287C250.609 53.7865 250.109 51.5359 248.274 51.5359C247.189 51.5359 244.437 48.1182 244.437 46.7844C244.437 45.7841 255.197 46.3676 264.039 47.7847ZM241.934 82.6285V93.7985L233.843 94.2987C225.335 94.7988 219.246 96.466 208.569 100.884C200.228 104.385 193.638 108.72 186.131 115.472C184.546 116.889 183.962 117.055 183.211 116.222C182.711 115.638 179.208 111.971 175.371 108.136L168.447 101.051L170.449 98.8834C172.785 96.3826 185.213 87.4633 188.967 85.6294C190.385 84.8792 192.22 83.9622 193.138 83.3787C197.559 80.878 204.482 78.2939 216.076 74.7928C218.829 73.9592 234.677 71.8753 239.682 71.6252L241.934 71.5418V82.6285ZM257.783 73.6258C264.622 74.6261 275.883 77.627 278.803 79.1275C279.637 79.6276 279.97 80.4612 279.72 81.6282C279.387 82.7952 278.97 83.0453 278.386 82.4618C276.133 80.2111 274.215 82.7119 276.05 85.546C276.634 86.5463 277.134 86.463 279.136 85.4627C281.388 84.379 281.722 84.379 283.641 86.2129C285.726 88.2969 287.811 88.797 287.811 87.3799C287.811 86.8798 287.478 86.5463 286.977 86.5463C286.56 86.5463 286.143 85.7961 286.143 84.8792C286.143 84.0456 285.476 82.8786 284.725 82.4618C281.889 80.878 284.391 81.5448 287.895 83.3787C289.813 84.379 291.565 85.8795 291.815 86.7131C291.982 87.5466 292.566 88.2135 292.983 88.2135C293.4 88.2135 293.483 89.0471 293.233 90.0474C292.733 91.2978 293.15 92.2147 294.568 93.2984C296.236 94.5487 296.319 95.0489 295.569 96.7161C294.901 98.2165 294.985 99.0501 295.819 100.3C296.486 101.134 296.987 102.885 296.987 104.218C296.987 106.136 297.32 106.552 298.989 106.552C300.156 106.552 301.324 106.136 301.574 105.719C302.325 104.552 306.412 104.635 307.664 105.885C309.332 107.553 308.831 109.387 305.828 112.304C302.158 115.888 299.072 115.972 296.403 112.721C295.318 111.387 294.067 109.887 293.65 109.303C293.15 108.72 292.816 108.053 292.816 107.719C292.816 107.469 291.899 106.469 290.731 105.552C289.563 104.635 288.812 103.551 289.146 103.135C289.73 102.134 286.143 98.2165 284.642 98.2165C283.557 98.2165 283.974 101.384 285.476 104.302C286.06 105.469 284.975 105.219 280.554 102.885C271.713 98.3832 260.118 94.8822 251.777 94.2987L244.437 93.7985V83.1287V72.3754L247.606 72.4588C249.275 72.4588 253.862 72.9589 257.783 73.6258ZM160.356 97.633C161.608 98.8834 162.692 100.3 162.692 100.634C162.692 101.051 161.524 102.551 160.19 104.052C151.431 113.388 142.84 127.725 138.502 139.896L136.333 146.148L124.822 146.398C115.73 146.564 113.395 146.398 113.645 145.564C113.895 144.981 114.896 141.813 115.981 138.645C119.985 126.058 129.16 108.053 136 99.5502C136.667 98.7167 139.67 95.2156 142.589 91.7979L147.928 85.546L152.933 90.4642C155.685 93.1316 159.022 96.3826 160.356 97.633ZM343.281 92.4648C351.372 101.301 361.465 118.139 366.386 131.143C368.972 137.978 371.224 144.897 371.224 145.897C371.224 146.231 366.553 146.564 360.798 146.564C355.042 146.564 350.371 146.231 350.371 145.897C350.371 145.481 351.122 144.48 352.039 143.647C352.957 142.813 353.874 141.479 354.125 140.646C354.458 139.729 355.209 139.062 355.876 139.062C358.128 139.062 357.044 135.061 353.457 130.226C351.539 127.475 348.87 123.724 347.535 121.724C346.2 119.806 344.615 118.223 343.948 118.223C343.364 118.223 342.363 117.222 341.863 115.888C341.279 114.638 340.111 113.054 339.36 112.304C338.526 111.554 337.859 110.554 337.859 109.97C337.859 109.47 337.442 109.053 336.941 109.053C336.441 109.053 334.439 107.469 332.521 105.469C329.268 102.134 329.101 101.718 329.351 97.633C329.601 93.6318 329.935 92.8816 333.522 89.4639L337.442 85.7128L338.943 87.63C339.861 88.6303 341.779 90.7976 343.281 92.4648ZM241.934 109.053V121.557H237.43C228.254 121.557 215.659 126.225 207.651 132.56C205.399 134.311 203.314 135.728 202.98 135.728C202.563 135.728 198.726 132.143 194.389 127.809L186.548 119.973L188.55 117.806C191.97 114.138 211.322 101.634 209.82 104.052C209.57 104.468 210.07 104.885 210.988 104.885C213.407 104.885 215.242 103.968 215.242 102.801C215.242 102.218 216.493 101.217 217.995 100.634C221.164 99.4669 235.261 96.7994 239.265 96.6327L241.934 96.5493V109.053ZM254.279 97.7997C262.37 99.1334 267.542 100.467 269.043 101.718C269.46 102.051 270.378 102.384 271.129 102.384C273.297 102.384 286.643 109.97 292.232 114.305C293.817 115.555 294.151 118.639 292.816 119.473C291.481 120.306 291.815 123.224 293.317 123.224C294.318 123.224 293.9 124.058 291.899 126.475C288.645 130.226 288.145 130.393 285.893 128.392C284.642 127.392 284.141 127.225 283.891 127.975C283.641 128.559 282.973 129.059 282.306 129.059C281.639 129.059 281.138 129.809 281.138 130.726C281.138 131.81 281.722 132.393 282.807 132.393C284.892 132.393 284.892 133.31 282.89 135.644C280.805 137.978 279.387 137.228 279.97 134.227C280.388 132.143 280.221 131.977 277.552 131.81C275.967 131.643 271.546 129.893 267.709 127.892C260.535 124.141 252.277 121.557 247.273 121.557H244.437V109.053C244.437 101.217 244.77 96.5493 245.271 96.5493C245.771 96.5493 249.775 97.1329 254.279 97.7997ZM170.282 107.719C172.785 110.137 176.372 113.805 178.374 115.888L181.96 119.556L179.374 122.474C175.538 126.808 169.448 136.145 166.946 141.646L164.777 146.564H152.516C142.506 146.564 140.17 146.314 140.17 145.397C140.17 144.73 141.338 141.479 142.756 138.145C144.174 134.727 145.759 130.976 146.26 129.643C146.76 128.392 147.511 127.392 147.844 127.392C148.178 127.392 148.512 126.975 148.512 126.475C148.512 124.975 157.27 112.304 161.524 107.553C163.776 105.219 165.611 103.218 165.695 103.218C165.778 103.218 167.864 105.219 170.282 107.719ZM308.665 115.972C308.665 116.555 309.749 117.972 311 119.056C312.335 120.223 313.753 121.89 314.337 122.807C315.171 124.308 315.421 124.308 317.089 123.391C318.674 122.39 318.841 122.39 318.34 123.641C318.09 124.391 317.84 125.225 317.84 125.391C317.84 125.558 317.256 125.725 316.589 125.725C315.921 125.725 315.338 126.308 315.338 126.975C315.338 127.642 315.671 128.226 316.005 128.226C316.339 128.226 316.672 128.976 316.672 129.893C316.672 131.977 316.005 131.977 314.754 129.976C314.17 129.059 312.668 127.809 311.417 127.225C309.999 126.558 308.998 125.308 308.748 124.058C308.665 122.891 307.83 121.057 306.996 119.89C305.912 118.306 305.662 117.389 306.246 116.305C307.246 114.638 308.665 114.388 308.665 115.972ZM198.977 140.729C197.892 141.896 196.474 142.396 193.805 142.396C190.969 142.396 189.718 142.897 188.3 144.397C186.882 145.897 186.048 146.231 185.13 145.647C183.545 144.647 179.374 144.73 179.374 145.731C179.374 146.231 177.039 146.564 173.953 146.564C170.95 146.564 168.531 146.398 168.531 146.148C168.531 145.897 170.032 142.813 171.867 139.312C174.954 133.56 177.706 129.559 182.294 124.224L183.879 122.307L192.22 130.643C200.478 138.895 200.561 138.979 198.977 140.729ZM304.494 128.226C304.494 128.892 305.078 130.226 305.745 131.06C306.829 132.477 306.829 132.894 305.662 134.144C304.911 134.978 304.327 136.561 304.327 137.728C304.327 139.479 303.827 139.812 301.658 140.062C299.239 140.312 299.072 140.479 299.155 143.48C299.239 145.731 298.989 146.398 298.405 145.814C297.237 144.647 294.484 144.647 294.484 145.731C294.484 147.231 292.983 146.648 292.566 144.981C292.316 143.98 292.649 143.147 293.317 142.897C293.984 142.646 294.484 141.896 294.484 141.146C294.484 140.479 295.235 139.896 296.153 139.896C297.07 139.896 297.821 139.479 297.821 139.062C297.821 138.562 298.405 138.229 299.072 138.229C299.823 138.229 300.323 137.478 300.323 136.145C300.323 134.811 300.824 134.061 301.574 134.061C302.242 134.061 302.826 133.477 302.826 132.81C302.826 132.143 302.242 131.56 301.574 131.56C300.907 131.56 300.323 131.977 300.323 132.56C300.323 133.06 299.489 132.727 298.405 131.727C297.07 130.476 295.902 130.059 294.484 130.476C292.733 130.893 292.983 130.309 296.57 126.642L300.657 122.39L302.575 124.641C303.576 125.975 304.494 127.559 304.494 128.226ZM241.934 132.393C241.934 140.146 241.851 140.729 240.266 140.729C239.182 140.729 238.598 141.313 238.598 142.396C238.598 143.48 239.182 144.064 240.266 144.064C242.935 144.064 242.184 146.148 239.432 146.314C237.18 146.481 237.013 146.314 237.513 144.064C237.93 141.646 237.847 141.563 234.928 141.563C231.341 141.563 231.257 141.063 234.01 137.895C236.012 135.561 236.679 134.061 235.595 134.061C234.761 134.061 226.586 142.646 225.669 144.48C224.918 145.897 223.834 146.231 219.079 146.398L213.324 146.648L209.32 142.73C204.982 138.479 204.899 138.812 210.654 134.394C217.327 129.226 230.924 124.308 238.848 124.141L241.934 124.058V132.393ZM249.858 124.891C257.616 126.892 262.37 128.559 265.623 130.393C267.625 131.56 268.46 132.393 267.625 132.393C266.791 132.393 266.124 132.977 266.124 133.727C266.124 134.894 266.708 135.061 269.377 134.644C272.296 134.311 272.964 134.561 275.383 137.061C277.301 139.062 277.718 139.896 276.801 139.896C276.05 139.896 275.216 139.062 274.966 137.978C274.465 136.228 274.382 136.228 273.297 137.562C272.714 138.395 271.796 139.062 271.296 139.062C269.794 139.062 268.543 142.146 269.127 144.48C269.627 146.398 269.46 146.564 266.624 146.564C264.706 146.564 263.371 146.148 263.121 145.314C262.787 144.647 261.953 144.064 261.119 144.064C259.701 144.064 259.618 143.897 260.786 141.73C262.537 138.395 262.287 135.728 260.285 135.728C259.367 135.728 258.617 136.061 258.617 136.478C258.617 136.895 257.866 137.562 256.949 137.812C256.031 138.062 255.03 139.229 254.78 140.396C254.112 142.813 253.028 142.897 248.19 140.646L244.437 138.895V131.476C244.437 123.307 244.27 123.474 249.858 124.891ZM327.849 132.56C327.849 134.811 329.601 136.311 331.686 135.894C333.104 135.644 333.855 136.145 334.856 138.145C335.607 139.562 336.524 140.729 336.941 140.729C337.609 140.729 339.527 144.397 339.527 145.731C339.527 146.231 335.357 146.564 329.768 146.564H319.925L318.257 142.563L316.589 138.645L318.257 136.978C319.508 135.811 320.843 135.394 323.095 135.561C325.347 135.728 326.181 135.478 326.181 134.644C326.181 133.227 324.43 132.393 321.343 132.393C319.425 132.31 319.258 132.227 320.593 131.476C321.343 131.06 322.011 130.143 322.011 129.476C322.011 128.476 322.511 128.476 324.93 129.643C326.682 130.476 327.849 131.643 327.849 132.56ZM295.652 136.811C296.987 137.812 296.82 137.895 294.151 137.562C290.898 137.145 287.811 139.062 287.811 141.313C287.811 141.98 287.311 142.396 286.81 142.23C285.309 141.73 284.975 138.395 286.143 136.895C287.478 135.394 293.65 135.311 295.652 136.811ZM205.232 146.398C200.478 146.898 198.977 145.397 201.562 142.813C202.814 141.563 203.147 141.646 205.399 143.814L207.902 146.148L205.232 146.398Z" fill="white"/>
<path d="M227.754 18.5265C222.916 18.9433 218.829 19.3601 218.662 19.5268C218.412 19.7769 218.829 20.3604 219.58 20.9439C220.998 22.0276 222.166 29.7799 221.165 31.4471C220.748 32.0306 219.747 32.364 218.996 32.1973C216.994 31.8639 214.742 22.7778 216.16 21.0273C216.911 20.1103 216.66 19.8603 214.575 19.8603C210.738 19.8603 209.32 20.6105 210.237 22.1943C210.571 23.0279 211.405 25.7787 211.989 28.4462C213.157 33.9478 214.658 35.1982 218.912 34.3646C222.583 33.6978 224.001 30.7802 222.749 26.5289C221.665 22.8612 221.665 19.8603 222.666 19.8603C223.083 19.8603 223.584 20.6939 223.75 21.6942C224.084 24.3616 225.836 24.445 226.42 21.8609C227.254 18.5265 228.338 20.4438 228.839 26.2789C229.172 30.4468 229.005 31.5304 228.088 31.5304C227.421 31.5304 226.92 31.8639 226.92 32.364C226.92 32.7808 227.921 33.1142 229.256 33.1142C232.175 32.9475 237.013 31.7805 235.095 31.6138C233.843 31.5304 233.593 30.7802 233.593 27.5292C233.593 25.3619 233.343 22.7778 233.093 21.6942C232.342 19.11 234.26 19.2768 235.261 21.9442C235.678 23.1112 236.429 24.0282 236.93 24.0282C237.847 24.0282 238.097 18.4432 237.18 18.0264C236.763 17.8597 232.592 18.1097 227.754 18.5265Z" fill="white"/>
<path d="M238.598 18.0257C238.598 18.4424 238.848 19.026 239.181 19.3594C240.182 20.3597 239.348 31.0295 238.264 31.6964C237.763 32.0298 240.266 32.3633 243.853 32.3633H250.275V29.8625C250.275 26.7783 249.191 26.6116 247.94 29.4457C246.605 32.4466 244.436 32.1966 244.436 29.0289C244.436 26.6116 246.021 25.3612 246.188 27.5285C246.272 28.112 246.605 27.2784 246.855 25.6946C247.606 22.0268 247.106 20.9432 245.604 22.9438C244.603 24.2775 244.52 24.1942 244.436 21.6934C244.436 20.2763 244.77 19.026 245.187 19.026C246.188 19.026 248.607 21.4433 248.607 22.4436C248.607 22.8604 249.024 23.1939 249.525 23.1939C250.025 23.1939 250.275 22.0268 250.109 20.443L249.858 17.7756L244.27 17.5255C241.1 17.3588 238.598 17.6089 238.598 18.0257Z" fill="white"/>
<path d="M259.701 20.3599C256.948 21.777 256.114 23.4441 256.114 28.2789C256.114 32.03 258.2 34.0306 262.537 34.6142C265.206 34.9476 266.291 34.6142 268.459 32.7803C270.712 30.9464 271.129 29.9461 271.129 27.0285C271.129 21.0267 265.29 17.6091 259.701 20.3599ZM266.624 23.7776C267.292 26.3617 265.373 32.3635 263.788 33.0303C261.703 33.7806 260.118 30.6963 260.702 26.9452C261.62 21.1101 265.457 19.0261 266.624 23.7776Z" fill="white"/>
<path d="M200.144 22.9444C195.557 24.1114 195.473 24.1948 195.974 26.7789C196.641 29.9465 198.56 30.8635 198.56 27.8626C198.56 26.7789 198.893 25.6119 199.31 25.3618C199.978 24.945 200.645 26.6955 201.562 30.9468C201.729 31.7804 202.063 33.2808 202.397 34.1978C202.73 35.1981 202.48 36.1984 201.813 36.6152C199.811 37.7822 201.396 38.0323 205.483 37.1153C209.153 36.1984 210.821 34.8647 208.319 34.8647C207.318 34.8647 203.981 24.1948 204.732 23.3612C204.899 23.1945 206.067 24.1114 207.235 25.4452C209.487 27.7792 209.904 27.279 208.903 23.3612C208.319 21.2772 207.068 21.1939 200.144 22.9444Z" fill="white"/>
<path d="M273.631 23.6111C273.631 27.6957 271.796 34.0309 270.628 34.0309C268.043 34.0309 269.711 35.5314 273.298 36.4483C277.051 37.4486 279.136 37.0318 277.135 35.7815C276.634 35.448 276.3 34.3644 276.551 33.2807C277.051 30.4465 277.802 30.0297 278.386 32.197C279.053 34.9479 280.054 34.4477 280.554 30.9467C281.138 27.529 280.638 26.2786 279.47 28.1958C278.386 29.9464 277.635 28.696 278.302 26.1952C278.97 23.2777 281.055 23.4444 281.722 26.5287C282.306 29.6129 283.307 29.7797 283.974 26.8621C284.725 24.1113 284.475 23.9446 279.637 22.6108C274.132 21.1938 273.631 21.2771 273.631 23.6111Z" fill="white"/>
<path d="M186.048 27.362C182.628 28.6958 179.124 30.1962 178.374 30.6964C177.539 31.1132 176.288 31.53 175.621 31.53C174.119 31.53 174.119 31.4466 175.287 34.7809C176.455 38.0319 177.706 38.1153 177.706 34.8643C177.706 31.1965 179.041 31.78 180.709 36.2814C181.543 38.5321 182.544 40.7827 183.045 41.3662C183.629 42.1998 183.545 42.7 182.711 43.2001C180.292 44.7006 182.544 44.8673 186.298 43.4502C190.468 41.8664 191.136 41.1162 188.717 40.5327C187.382 40.1159 183.045 30.9464 183.795 30.1129C183.962 29.9461 185.13 30.6964 186.465 31.6133L188.717 33.4472L188.133 30.8631C187.799 29.3626 187.883 28.1956 188.383 28.1956C189.384 28.1956 192.137 35.3644 192.22 38.3653C192.304 41.0328 192.387 41.0328 195.974 39.7824C198.309 38.9488 199.56 37.365 197.892 37.365C197.058 37.365 193.972 27.4454 194.222 25.8616C194.556 24.3611 193.054 24.6946 186.048 27.362Z" fill="white"/>
<path d="M288.812 27.3619C288.312 28.2789 287.811 29.6126 287.811 30.4462C287.811 31.6132 288.145 31.5298 289.897 29.8627C291.064 28.779 292.149 28.1121 292.399 28.3622C292.649 28.6123 291.899 31.1964 290.814 34.1139C289.396 37.9484 288.395 39.3655 287.478 39.1988C286.727 39.0321 286.143 39.3655 286.143 39.8657C286.143 40.2824 286.894 40.6992 287.728 40.6992C288.645 40.6992 289.563 41.0327 289.813 41.4495C290.063 41.8663 291.231 42.3664 292.399 42.6165C294.151 42.8666 294.484 42.6998 294.067 41.6995C293.483 40.1991 296.82 30.6962 297.904 30.6962C298.321 30.6962 298.655 31.7799 298.655 33.197C298.655 36.3646 299.656 36.3646 300.907 33.197C301.992 30.2794 301.324 29.5292 296.069 27.8621C294.067 27.2786 291.815 26.5283 291.148 26.1949C290.397 25.8615 289.48 26.3616 288.812 27.3619Z" fill="white"/>
<path d="M302.825 32.3638C302.825 34.2811 298.905 42.4502 297.57 43.3671C297.07 43.6172 299.072 45.0343 301.908 46.5348C304.827 47.9518 307.246 49.0355 307.413 48.8688C308.081 48.0352 309.499 44.8676 309.499 44.1174C309.499 43.6172 308.915 43.4505 308.247 43.7006C306.913 44.2007 306.496 42.7836 307.747 42.0334C308.164 41.7833 308.664 40.783 308.915 39.7827C309.332 38.2823 309.081 38.1156 307.33 38.5324C305.495 39.0325 305.411 38.9491 306.329 36.9485C307.58 34.1977 309.832 34.6145 310.166 37.6154C310.416 39.5327 310.666 39.7827 311.667 38.9491C314.003 37.0319 312.918 35.198 308.331 32.9473C302.825 30.2799 302.825 30.2799 302.825 32.3638ZM306.329 42.7003C306.829 45.2844 305.495 46.8682 303.993 45.6178C303.159 44.9509 303.159 44.2841 303.826 42.7003C304.994 40.1162 305.828 40.1162 306.329 42.7003Z" fill="white"/>
<path d="M168.781 35.1149C165.778 36.532 165.194 37.1989 165.194 39.2829C165.194 42.0337 167.113 43.9509 170.032 44.0343C172.284 44.0343 175.204 45.4514 175.204 46.535C175.204 46.9518 174.453 47.5353 173.452 47.7854C172.284 48.2022 171.283 47.7854 170.116 46.4517C169.282 45.4514 168.281 44.7845 168.114 45.0346C167.697 45.368 168.698 48.3689 169.782 50.5362C170.116 51.0364 175.788 48.7023 177.122 47.5353C180.292 44.7011 177.706 39.8664 173.035 39.8664C170.616 39.8664 168.531 38.616 168.531 37.1989C168.531 36.1986 171.701 36.3653 172.284 37.3656C172.535 37.7824 173.369 38.1992 174.036 38.1992C175.12 38.1992 175.037 37.8658 173.953 35.6985C173.202 34.2814 172.535 33.2811 172.451 33.2811C172.368 33.3644 170.7 34.198 168.781 35.1149Z" fill="white"/>
<path d="M160.023 39.6156C159.189 39.7823 158.521 40.5325 158.521 41.1994C158.521 41.8662 158.855 42.283 159.189 42.033C160.023 41.5328 162.692 44.4503 162.692 45.7841C162.692 46.3676 162.108 46.4509 161.274 46.1175C156.853 44.2836 154.017 43.9502 152.015 44.8671C149.93 45.7841 149.93 45.7841 151.598 46.9511C154.935 49.2851 159.189 58.2045 157.02 58.2045C155.352 58.2045 148.929 48.8683 149.93 47.868C151.098 46.7844 149.012 47.4512 146.343 49.1184C143.424 50.8689 142.673 52.3694 144.591 52.3694C146.009 52.3694 152.349 60.7052 152.015 62.1223C151.598 63.8728 152.516 63.456 157.354 59.7049C162.108 55.9538 162.775 54.8701 160.356 54.8701C159.105 54.8701 156.019 51.119 156.019 49.6186C156.019 49.3685 157.937 49.8686 160.19 50.7856C164.444 52.3694 168.531 52.8695 168.531 51.7025C168.531 51.3691 167.196 49.0351 165.611 46.5343C164.027 44.0336 162.692 41.3661 162.692 40.5325C162.692 39.0321 162.525 38.9487 160.023 39.6156Z" fill="white"/>
<path d="M314.253 39.5329C312.252 40.1164 310.333 44.1176 310.333 47.702C310.333 50.7862 313.336 54.0372 316.255 54.0372C317.006 54.0372 317.84 54.2873 318.007 54.6207C318.174 55.0375 321.26 57.5383 324.93 60.2891C328.6 63.0399 331.77 65.4573 332.02 65.7074C332.271 65.9575 333.355 66.8744 334.439 67.7913L336.441 69.4585L336.024 67.6246C335.691 66.3742 336.274 65.2072 338.026 63.4567L340.612 61.1227L340.028 67.1245C339.694 71.209 339.861 73.293 340.445 73.7098C341.029 74.0432 343.198 72.376 345.7 69.5419C348.036 66.9578 350.455 64.8738 351.039 64.8738C352.457 64.8738 352.29 63.7068 350.538 62.123C348.953 60.6225 347.702 60.956 348.369 62.7065C348.62 63.29 347.785 64.6237 346.618 65.7074L344.532 67.6246V62.2897C344.532 57.2882 343.615 54.8708 341.863 54.8708C341.529 54.8708 341.196 55.5377 341.196 56.2879C341.112 57.8717 335.023 64.8738 333.689 64.8738C333.272 64.8738 332.688 64.5404 332.437 64.0402C331.854 63.1233 338.61 54.3706 339.611 54.6207C341.279 55.1209 340.195 52.5368 338.276 51.5365C337.109 50.953 336.191 50.1194 336.191 49.7026C336.191 49.3691 335.774 49.0357 335.273 49.0357C334.773 49.0357 334.523 49.5359 334.773 50.1194C335.357 51.7032 332.271 55.1209 330.769 54.5374C329.018 53.8705 329.184 52.9536 331.52 50.4528L333.605 48.2021L330.936 46.1182C328.6 44.2843 328.267 44.2009 328.017 45.5347C327.516 47.8687 322.511 54.7041 321.01 55.1209C319.425 55.5377 318.925 54.454 320.343 53.6204C320.843 53.3703 321.177 52.2867 321.177 51.3697C321.177 49.7026 321.093 49.7026 319.675 50.953C318.841 51.7865 317.256 52.37 316.172 52.37C314.42 52.37 314.337 52.12 314.754 48.9524C315.254 44.9512 318.257 41.3667 320.76 41.7002C322.011 41.8669 322.511 42.7005 322.678 45.1179C322.928 47.702 323.179 48.0354 324.013 47.1185C325.681 45.5347 326.515 42.367 325.264 42.367C324.763 42.367 323.846 41.7835 323.345 41.0333C322.344 39.6996 316.923 38.7826 314.253 39.5329ZM330.185 55.8711C331.103 57.0381 328.767 60.7059 327.182 60.7059C325.598 60.7059 325.347 57.9551 326.682 56.4546C328.35 54.6207 329.018 54.5374 330.185 55.8711Z" fill="white"/>
<path d="M137.251 55.9545C135.166 58.3719 134.832 59.3722 136.417 58.7887C137.418 58.3719 138.502 58.872 139.754 60.2058L141.672 62.2897L136.584 61.7896C131.996 61.3728 131.245 61.5395 129.827 63.1233C128.66 64.3737 128.576 64.8738 129.41 64.8738C131.079 64.8738 137.668 71.6259 137.668 73.3764C137.668 75.377 138.753 75.2936 140.588 73.2097C142.006 71.7092 142.006 71.5425 140.671 71.5425C139.587 71.5425 135.166 67.8747 135.166 66.9578C135.166 66.8744 138.002 66.9578 141.422 67.2079C144.842 67.3746 147.678 67.2912 147.678 66.8744C147.678 66.4576 145.759 64.1236 143.507 61.7062C141.172 59.2055 139.337 56.7047 139.337 56.0379C139.337 54.6208 138.419 54.5374 137.251 55.9545Z" fill="white"/>
<path d="M124.322 69.2913C119.484 71.7087 118.984 79.211 123.405 82.3786C126.658 84.6292 130.245 84.5459 132.914 82.0451C135.917 79.211 136.584 76.0433 134.832 72.7924C132.497 68.5411 128.409 67.2074 124.322 69.2913ZM128.243 72.9591C130.912 74.4595 133.831 78.7108 132.997 79.9612C132.163 81.3783 129.494 80.7114 126.908 78.5441C120.902 73.5426 121.987 69.2913 128.243 72.9591Z" fill="white"/>
<path d="M349.037 69.0411C346.701 69.958 344.532 73.0423 344.532 75.543C344.532 80.2111 350.705 84.8791 354.875 83.2953C360.548 81.128 362.216 74.4594 358.212 70.3748C355.876 68.1241 352.54 67.624 349.037 69.0411ZM357.878 72.4588C357.878 75.4597 353.624 79.7109 350.204 80.1277C346.034 80.5445 348.286 74.6261 353.374 72.042C355.543 70.8749 357.878 71.0417 357.878 72.4588Z" fill="white"/>
<path d="M363.634 77.6269C363.55 77.9603 363.467 78.5439 363.384 78.9606C363.217 80.6278 354.375 86.4629 353.04 85.8794C351.789 85.4626 351.873 85.7127 353.207 87.7966C354.125 89.1304 355.126 90.6308 355.543 91.131C355.876 91.5478 356.877 92.8815 357.712 93.9651C359.213 95.8824 359.296 95.8824 361.465 94.4653C364.385 92.6314 364.301 91.4644 361.465 92.0479C360.13 92.2146 358.629 92.0479 357.962 91.6311C356.961 90.9642 356.961 90.7142 357.962 89.7139C360.631 87.1298 366.553 83.2953 367.221 83.7121C367.554 83.9621 367.888 83.7954 367.888 83.462C367.888 82.4617 363.717 76.8767 363.634 77.6269Z" fill="white"/>
<path d="M115.147 78.9608C115.147 79.461 114.229 80.7947 113.061 82.0451C106.638 88.9638 117.232 99.5503 123.905 92.7983C125.073 91.7146 125.99 90.2142 125.99 89.5473C125.99 88.8805 126.491 88.2136 127.075 87.9635C127.742 87.7134 127.492 87.0466 126.24 85.7962C123.238 82.962 121.319 83.7122 123.988 86.6298C124.739 87.4634 125.156 88.7137 124.906 89.464C123.738 92.3815 116.314 89.8808 114.229 85.8796C113.228 84.129 113.311 83.7122 114.646 82.7119C115.647 82.0451 117.148 81.795 118.4 82.1284L120.568 82.6286L118.566 80.3779C116.481 78.1272 115.147 77.6271 115.147 78.9608Z" fill="white"/>
<path d="M106.138 92.6314C103.969 96.3825 103.969 96.5492 105.471 96.5492C106.805 96.5492 111.56 98.9666 113.311 100.467C113.895 101.051 114.813 101.551 115.23 101.551C115.647 101.551 115.981 101.884 115.981 102.384C115.981 102.884 115.23 102.884 113.812 102.301C111.059 101.301 110.309 101.884 112.144 103.635C113.562 105.135 113.895 107.052 112.811 107.719C111.81 108.303 103.469 104.135 102.885 102.718C102.217 100.884 101.217 101.301 99.7985 104.218C98.2137 107.386 98.1302 108.469 99.5483 107.969C101.05 107.469 110.142 112.304 110.142 113.721C110.142 114.388 109.641 114.888 109.057 114.888C107.639 114.888 99.0478 110.637 98.3805 109.636C98.0468 109.136 97.2127 109.97 96.462 111.387C94.7103 114.721 94.7937 115.638 96.6288 115.472C98.7975 115.305 106.805 119.223 106.805 120.473C106.805 122.974 108.307 121.223 111.059 115.555C112.644 112.221 115.313 106.969 117.065 103.885C120.485 97.7162 120.652 97.2161 119.15 97.5495C117.565 97.883 108.557 92.2146 108.307 90.7141C108.14 89.9639 107.306 90.6308 106.138 92.6314Z" fill="white"/>
<path d="M364.051 93.5488C360.881 96.7165 360.464 99.3006 362.633 102.385C364.718 105.469 366.386 106.469 368.972 106.553C373.894 106.553 376.98 103.635 377.063 98.8004C377.063 96.383 376.479 95.0493 374.644 93.132C371.224 89.7144 367.721 89.8811 364.051 93.5488ZM374.978 95.7162C376.396 98.0502 368.055 103.885 364.968 102.718C362.883 101.885 363.55 100.134 366.804 97.4667C369.89 94.8826 373.977 94.049 374.978 95.7162Z" fill="white"/>
<path d="M373.727 106.386C368.805 108.803 367.721 114.221 371.308 118.139C372.142 119.056 372.893 120.223 372.893 120.723C372.893 121.807 374.311 121.807 374.978 120.723C375.228 120.223 376.479 119.89 377.564 119.89C378.732 119.89 379.566 119.64 379.399 119.223C379.149 118.89 378.565 117.389 377.981 115.889C376.896 113.138 375.395 112.304 375.395 114.472C375.395 115.138 375.061 115.722 374.644 115.722C374.227 115.722 373.31 115.972 372.559 116.222C370.39 117.056 370.974 114.388 373.393 112.471C376.229 110.22 380.817 109.387 382.485 110.72C384.153 112.137 384.07 112.888 381.901 114.888C379.566 117.056 380.483 117.889 383.653 116.472C386.155 115.305 387.073 114.055 385.321 114.055C384.904 114.055 384.654 113.805 384.904 113.388C385.822 111.804 382.819 107.303 380.066 106.136C376.479 104.635 377.23 104.635 373.727 106.386Z" fill="white"/>
<path d="M382.402 120.557C379.732 123.475 378.398 124.308 376.312 124.308C374.894 124.308 373.727 124.475 373.727 124.558C373.727 124.725 374.06 125.642 374.477 126.726C374.894 127.809 375.478 129.393 375.812 130.31C376.312 131.81 376.396 131.81 377.146 130.56C378.398 128.393 382.985 127.226 386.989 128.143C389.909 128.81 390.409 128.726 390.409 127.476C390.409 126.726 390.075 125.559 389.575 124.892C388.908 123.891 388.741 123.891 388.24 125.142C387.99 125.975 386.822 126.559 385.571 126.559C383.569 126.559 383.486 126.559 384.987 124.892C385.821 123.975 387.156 123.225 387.99 123.225C389.325 123.225 389.325 122.974 388.157 119.89C387.406 118.056 386.572 116.556 386.322 116.639C386.072 116.723 384.32 118.473 382.402 120.557Z" fill="white"/>
<path d="M92.7919 120.14C91.5407 123.642 91.5407 125.976 92.7919 127.226C94.2933 128.726 97.9635 128.393 100.132 126.559C102.301 124.642 103.886 124.475 104.803 125.892C105.554 127.143 102.635 129.227 100.8 128.726C98.464 128.143 98.2972 129.56 100.633 130.644C101.801 131.144 103.135 131.561 103.719 131.561C105.054 131.561 106.805 127.643 106.805 124.475C106.805 119.474 103.719 118.64 98.3806 122.141C95.9616 123.725 94.7938 124.058 94.1265 123.391C92.7919 122.058 94.7938 119.89 97.5464 119.89L99.7152 119.807L97.6299 118.64C94.5436 116.889 93.8763 117.056 92.7919 120.14Z" fill="white"/>
<path d="M223.583 57.5382C223.583 59.4555 224.751 60.4558 227.504 61.0393C230.84 61.7895 231.841 60.289 229.256 58.2051C227.087 56.3712 223.583 56.0378 223.583 57.5382Z" fill="white"/>
<path d="M181.627 68.7084C180.96 69.3753 181.71 70.709 182.795 70.709C183.212 70.709 183.545 70.1255 183.545 69.4586C183.545 68.2082 182.545 67.7914 181.627 68.7084Z" fill="white"/>
<path d="M277.802 89.2138C277.802 89.7973 277.552 91.2144 277.218 92.2147C276.801 94.0486 276.884 94.1319 278.553 93.1316C280.555 91.7979 280.972 88.2135 279.053 88.2135C278.386 88.2135 277.802 88.7136 277.802 89.2138Z" fill="white"/>
<path d="M269.961 113.722C269.21 115.639 269.377 117.556 270.211 117.056C271.129 116.473 271.963 112.388 271.129 112.388C270.795 112.388 270.211 112.972 269.961 113.722Z" fill="white"/>
<path d="M147.678 133.144C147.678 134.144 150.931 136.061 151.515 135.478C151.765 135.311 150.931 134.477 149.763 133.727C148.595 132.977 147.678 132.727 147.678 133.144Z" fill="white"/>
<path d="M237.514 132.977C236.513 133.894 236.846 134.895 238.181 134.895C238.848 134.895 239.432 134.311 239.432 133.644C239.432 132.31 238.431 131.977 237.514 132.977Z" fill="white"/>
<path d="M246.522 133.227C245.688 134.561 246.689 135.478 248.774 135.395C250.776 135.311 252.778 136.645 252.778 138.146C252.778 138.646 253.195 139.062 253.612 139.062C254.78 139.062 254.613 137.479 253.362 136.228C251.36 134.228 247.022 132.394 246.522 133.227Z" fill="white"/>
<path d="M263.288 133.727C262.371 135.978 262.704 136.812 264.039 135.728C265.374 134.561 265.707 132.394 264.539 132.394C264.122 132.394 263.538 132.977 263.288 133.727Z" fill="white"/>
<path d="M112.227 20.527C111.727 20.9438 110.059 21.7774 108.474 22.3609C87.7873 30.1132 74.3578 39.4494 66.6004 51.6197C64.9322 54.2038 62.3464 60.0389 60.9284 64.5402C59.4269 69.1249 57.1748 75.8769 55.8402 79.7114C54.5056 83.5459 53.7549 86.5468 54.1719 86.3801C54.5056 86.2134 56.6743 84.5462 58.9265 82.629C61.1786 80.6284 65.8497 76.7939 69.2697 73.9597C77.611 67.041 80.6138 63.79 88.2044 53.2868C91.7911 48.4521 95.1277 43.9507 95.7116 43.3672C96.2954 42.7837 96.7959 41.9501 96.7959 41.6167C96.7959 41.2832 97.4632 40.2829 98.2974 39.366C99.0481 38.5324 101.05 36.115 102.635 34.0311C104.22 31.9471 107.723 28.196 110.392 25.6119C112.978 23.0278 115.147 20.6104 115.147 20.3603C115.147 19.6101 113.061 19.7768 112.227 20.527Z" fill="white"/>
<path d="M372.893 20.2765C372.893 20.5266 374.894 22.6939 377.313 25.1946C379.732 27.612 383.236 31.4465 385.071 33.6972C386.823 35.9478 388.491 37.9484 388.741 38.1985C388.991 38.4486 389.909 39.699 390.743 41.1161C391.66 42.4498 392.661 43.9502 393.079 44.4504C393.496 44.8672 395.915 48.1182 398.417 51.5359C407.092 63.4561 408.593 65.1233 417.185 72.3754C436.453 88.8804 436.203 88.7137 432.95 81.9616C432.032 80.1278 431.365 78.2105 431.282 77.7937C431.198 74.4594 423.274 53.0363 421.939 52.5362C421.606 52.3694 421.272 51.8693 421.272 51.4525C421.272 49.5353 411.012 38.9487 405.424 35.1143C400.002 31.4465 389.909 26.2783 382.819 23.6108C379.399 22.3604 376.313 20.9434 375.895 20.6099C374.978 19.7763 372.893 19.6096 372.893 20.2765Z" fill="white"/>
<path d="M62.1794 45.4509C58.0088 47.2014 52.3367 50.9525 47.749 55.2038C35.7376 66.2071 30.8996 81.7118 32.2342 104.469C32.5679 110.887 32.9015 120.723 32.9015 126.392C32.9849 131.977 33.2352 136.562 33.6522 136.562C33.9859 136.562 34.2361 136.145 34.2361 135.645C34.2361 132.894 46.8315 118.223 53.4211 113.388C71.0212 100.384 84.7009 84.5459 88.7048 72.7091C90.2062 68.041 91.5408 58.2047 90.6232 58.2047C90.2896 58.2047 89.3721 59.7885 88.5379 61.7058C86.4526 66.3738 79.7796 73.7927 73.1899 78.5441C70.3539 80.6281 67.6013 82.7121 67.1842 83.0455C66.6837 83.4623 65.1823 84.4626 63.8477 85.3795C57.9254 89.1306 48.9168 97.8833 45.4969 103.051C42.5774 107.386 42.0769 107.136 44.0788 102.301C44.913 100.301 46.2476 95.966 47.0817 92.7984C47.8324 89.5474 48.8334 85.6296 49.2505 84.0458C49.6675 82.462 50.2514 79.2944 50.5851 76.9603C51.4192 71.0419 54.7557 61.0389 57.3415 56.6209C58.5093 54.5369 61.3453 50.9525 63.5975 48.7019C65.7662 46.4512 67.6013 44.5339 67.6013 44.3672C67.6013 43.7004 65.3491 44.2005 62.1794 45.4509Z" fill="white"/>
<path d="M424.608 48.7857C430.03 54.2874 434.618 63.04 436.286 71.1257C436.787 73.8766 437.621 77.461 437.954 79.0448C438.288 80.6286 439.039 84.213 439.623 86.9638C440.707 92.7989 441.541 95.5497 444.627 104.219C445.378 106.47 445.962 108.22 445.795 108.22C445.712 108.22 444.544 106.47 443.293 104.302C439.456 97.8004 428.862 87.8808 418.519 81.2955C411.513 76.7941 401.837 66.9578 399.501 61.873C397.166 56.8715 396.498 58.5386 397.916 66.2076C400.335 80.5452 412.43 96.4667 431.782 111.138C433.534 112.471 436.286 114.722 437.788 116.139C439.372 117.473 441.124 118.89 441.708 119.307C443.293 120.14 452.719 132.728 453.386 134.895C454.554 138.646 455.138 136.145 455.138 127.143C455.138 122.058 455.471 112.055 455.888 105.053C456.556 91.882 456.055 85.7134 453.219 75.7938C449.799 63.7902 438.455 50.953 426.527 45.7015C419.937 42.7839 419.437 43.6175 424.608 48.7857Z" fill="white"/>
<path d="M3.62372 140.979C2.37253 143.48 0.871094 148.232 0.871094 149.565C0.871094 150.232 1.5384 150.732 2.45594 150.732C3.79055 150.732 4.1242 149.815 4.62467 145.231C5.20856 139.229 4.95833 138.062 3.62372 140.979Z" fill="white"/>
<path d="M83.7836 158.151C80.1969 159.068 76.0262 162.152 75.0253 164.653C74.0243 167.321 74.0243 172.572 75.1087 175.323C76.1096 177.907 78.7789 180.658 82.449 182.825C83.867 183.742 85.1182 184.742 85.1182 185.076C85.1182 185.409 85.6187 185.743 86.2026 185.743C86.7865 185.743 88.8718 187.327 90.7903 189.327C93.7098 192.328 94.2937 193.412 94.2937 196.246C94.2937 200.664 92.3752 202.414 87.5372 202.414C81.7817 202.331 78.6954 198.997 76.8604 190.494C76.1931 187.41 75.4423 185.743 74.6082 185.743C73.6907 185.743 73.4404 187.577 73.4404 195.329C73.4404 202.998 73.6907 204.915 74.6082 204.915C75.2755 204.915 75.9428 204.332 76.2765 203.665C76.6935 202.498 77.1106 202.498 79.8632 203.748C84.4509 205.749 96.6292 205.749 99.8823 203.665C105.638 199.997 106.806 198.246 106.806 193.078C106.806 185.409 105.388 183.575 93.2093 175.49C87.3704 171.572 85.9524 169.655 85.9524 165.57C85.9524 161.902 87.5372 160.735 92.542 160.735C95.378 160.735 96.2122 161.152 98.0472 163.653C99.2984 165.237 100.8 168.071 101.3 170.071C102.802 174.989 103.97 174.906 104.553 169.738C105.805 159.818 104.887 155.9 102.301 159.485C101.467 160.652 101.05 160.652 98.2141 159.235C94.7941 157.568 88.1211 157.067 83.7836 158.151Z" fill="white"/>
<path d="M110.142 159.485C110.142 160.152 110.809 160.735 111.644 160.735C114.897 160.735 115.147 162.069 115.147 181.575C115.147 201.081 114.897 202.414 111.644 202.414C110.809 202.414 110.142 202.998 110.142 203.665C110.142 204.748 111.894 204.915 120.986 204.915C129.16 204.915 131.829 204.665 131.829 203.831C131.829 203.248 130.995 202.414 129.994 201.997C128.076 201.164 128.076 200.997 127.826 181.408L127.659 161.569L129.744 161.069C130.912 160.818 131.829 160.068 131.829 159.401C131.829 158.484 129.661 158.234 120.986 158.234C111.894 158.234 110.142 158.401 110.142 159.485Z" fill="white"/>
<path d="M135.166 166.987C135.166 174.156 135.416 175.74 136.417 175.74C137.085 175.74 137.919 174.739 138.169 173.406C139.587 167.404 144.925 160.735 148.429 160.735C149.68 160.735 149.68 198.496 148.512 200.83C147.928 201.831 146.76 202.414 145.176 202.414C143.507 202.414 142.673 202.831 142.673 203.665C142.673 204.748 144.675 204.915 156.019 204.915C167.363 204.915 169.365 204.748 169.365 203.665C169.365 202.831 168.531 202.414 167.03 202.414C162.776 202.414 162.692 201.914 162.692 180.491V160.652L164.611 161.152C167.697 162.069 170.95 166.153 172.452 171.072C174.704 178.157 176.038 177.157 176.038 168.237C176.038 164.069 176.289 160.735 176.706 160.735C178.124 160.818 179.291 162.236 180.626 165.737C181.377 167.821 182.378 170.238 182.711 171.155C183.128 172.072 184.046 174.656 184.797 176.99C185.631 179.241 186.548 181.908 186.882 182.825C187.216 183.742 188.55 187.326 189.718 190.744C190.969 194.162 192.554 198.246 193.221 199.747C193.889 201.247 194.389 203.081 194.389 203.748C194.389 204.748 195.223 204.915 197.976 204.748C201.146 204.498 201.563 204.248 202.48 201.581C203.064 199.997 204.983 194.329 206.818 189.077C208.653 183.659 210.321 179.991 210.571 180.741C211.072 182.075 217.495 200.914 218.329 203.415C218.662 204.498 219.663 204.915 221.999 204.915C224.835 204.915 225.252 204.665 225.752 202.581C226.003 201.331 226.92 198.246 227.754 195.746C228.672 193.245 230.841 186.076 232.759 179.908C237.263 165.236 237.514 164.57 239.933 162.319C243.519 158.985 242.685 158.234 234.844 158.234C229.089 158.234 227.754 158.484 227.754 159.485C227.754 160.152 228.422 160.735 229.256 160.735C231.425 160.735 233.593 163.319 233.593 165.82C233.593 167.571 232.259 172.155 227.504 187.41C226.837 189.66 226.587 189.994 226.253 188.66C226.086 187.743 224.084 181.408 221.832 174.573C217.661 161.986 217.578 160.818 220.914 160.735C221.415 160.735 221.915 160.152 221.915 159.485C221.915 158.401 220.247 158.234 211.906 158.234C201.646 158.234 200.645 158.651 203.398 161.402C204.149 162.152 205.733 165.57 206.818 168.904L208.82 174.906L206.484 181.825C205.233 185.576 203.898 188.91 203.648 189.327C202.981 189.994 194.389 165.07 194.389 162.486C194.389 161.485 194.806 160.735 195.223 160.735C195.724 160.735 196.057 160.152 196.057 159.485C196.057 158.401 192.137 158.234 165.612 158.234H135.166V166.987Z" fill="white"/>
<path d="M256.949 159.401C256.949 160.068 257.783 160.735 258.867 160.902C260.702 161.152 260.702 161.152 260.953 179.491C261.036 189.577 260.953 198.663 260.702 199.663C260.452 200.664 259.535 201.747 258.617 201.997C257.699 202.248 256.949 203.081 256.949 203.748C256.949 204.665 258.367 204.915 263.622 204.915C270.962 204.915 272.297 203.748 267.542 201.581C265.29 200.497 264.79 199.747 264.289 196.579C263.622 192.161 263.538 164.736 264.206 166.57C264.456 167.237 265.707 170.155 267.042 173.072C268.376 175.99 269.461 178.49 269.461 178.741C269.461 178.907 270.211 180.658 271.046 182.658C273.798 188.66 276.634 195.162 278.636 200.08C279.72 202.748 281.055 204.915 281.556 204.915C282.139 204.915 285.309 197.663 288.646 188.827C291.982 180.074 294.985 172.405 295.319 171.989C295.652 171.488 296.153 170.405 296.403 169.488C296.57 168.571 296.82 174.906 296.904 183.492C296.987 199.83 296.57 202.414 293.65 202.414C292.733 202.414 291.982 202.998 291.982 203.665C291.982 204.748 293.817 204.915 303.243 204.915C314.337 204.915 317.089 204.165 312.502 202.414C309.666 201.331 309.332 199.08 309.666 179.074L309.916 161.986L312.251 160.902C316.506 158.901 314.754 158.151 305.996 158.401L297.487 158.651L293.4 169.488C291.148 175.406 288.729 181.658 287.978 183.242L286.727 186.159L285.81 184.075C285.393 182.908 284.141 180.074 283.057 177.657C281.973 175.323 281.138 173.156 281.138 172.822C281.138 172.572 279.804 169.571 278.219 166.237C276.634 162.819 275.3 159.651 275.3 159.151C275.3 158.568 272.213 158.234 266.124 158.234C258.7 158.234 256.949 158.484 256.949 159.401Z" fill="white"/>
<path d="M316.172 159.485C316.172 160.152 316.923 160.736 317.84 160.736C320.676 160.736 321.177 163.403 321.177 178.991C321.177 196.83 321.927 199.581 327.349 202.998C330.269 204.916 331.687 205.166 337.943 205.249C343.615 205.249 345.617 204.916 347.535 203.665C353.624 199.747 354.542 196.663 354.542 179.741C354.542 165.154 355.376 160.736 358.295 160.736C358.963 160.736 359.547 160.152 359.547 159.485C359.547 158.485 358.212 158.235 352.874 158.235C345.533 158.235 344.199 159.402 348.953 161.569L351.622 162.82L351.873 177.824C352.123 193.079 351.622 196.163 348.703 199.164C345.2 202.915 339.945 203.415 336.441 200.414L334.106 198.414L333.855 179.991L333.605 161.569L336.108 161.069C337.526 160.736 338.693 159.985 338.693 159.402C338.693 158.485 336.441 158.235 327.433 158.235C318.007 158.235 316.172 158.402 316.172 159.485Z" fill="white"/>
<path d="M361.215 159.485C361.215 160.152 361.882 160.735 362.716 160.735C365.969 160.735 366.22 162.069 366.136 179.824C366.053 189.327 365.803 197.913 365.469 199.08C365.135 200.247 364.051 201.497 363.05 201.997C362.049 202.414 361.215 203.248 361.215 203.831C361.215 204.665 363.133 204.915 368.305 204.915C373.56 204.915 375.395 204.665 375.395 203.831C375.395 203.248 374.144 202.331 372.559 201.747C370.891 201.081 369.556 199.997 369.222 198.83C368.972 197.83 368.722 191.578 368.722 184.909L368.805 172.822L370.474 174.906C371.391 176.073 373.977 179.074 376.229 181.575C378.398 184.075 382.068 188.41 384.237 191.161C386.489 193.912 389.659 197.58 391.243 199.33C392.828 201.081 394.497 203.081 394.83 203.748C395.164 204.415 396.582 204.915 397.917 204.915H400.419V185.326C400.419 165.153 400.836 162.069 403.922 161.152C404.756 160.818 405.424 160.068 405.424 159.401C405.424 158.484 404.006 158.234 398.751 158.234C391.41 158.234 390.076 159.401 394.83 161.569L397.499 162.819L397.75 174.323C398 187.493 398.834 187.16 389.992 176.99C387.24 173.822 384.237 170.405 383.319 169.404C382.402 168.404 379.816 165.487 377.647 162.902L373.643 158.234H367.387C362.466 158.234 361.215 158.484 361.215 159.485Z" fill="white"/>
<path d="M0.287101 220.837C0.954404 236.758 3.5402 247.428 8.96204 255.931C9.963 257.681 10.8805 259.265 10.8805 259.515C10.8805 259.765 11.2142 260.432 11.7147 261.015C12.1317 261.599 14.4673 264.433 16.8863 267.434C21.9745 273.769 23.4759 275.353 31.3167 282.022C40.0751 289.441 45.2467 293.025 68.1852 307.613C70.8544 309.28 74.2744 311.531 75.8592 312.531L78.6118 314.448L78.0279 312.364C77.7777 311.281 76.1929 307.946 74.6914 304.945C70.6042 296.86 68.2686 286.857 66.6838 270.352C66.1833 265.267 65.516 257.598 65.0989 253.263C63.3473 234.174 61.5956 223.087 59.5103 217.752C59.1766 216.836 60.0107 216.585 62.8468 216.585C66.517 216.585 66.6004 216.669 67.1008 219.67C69.6866 233.924 79.2791 257.264 89.3721 273.853C98.2973 288.524 116.481 309.697 126.741 317.449C128.243 318.616 130.912 320.7 132.663 322.117C137.585 326.035 149.763 334.121 150.847 334.121C151.431 334.121 151.848 334.454 151.848 334.954C151.848 335.371 152.182 335.788 152.599 335.788C153.016 335.788 155.602 337.038 158.271 338.539C168.614 344.374 190.218 352.376 202.73 354.96C216.66 357.794 222.082 358.461 236.512 358.878C251.443 359.295 264.372 358.545 273.631 356.711C275.717 356.294 279.637 355.544 282.39 354.96C293.4 352.793 309.999 346.791 322.845 340.456C330.686 336.538 345.116 328.036 346.2 326.702C346.451 326.452 348.87 324.534 351.622 322.451C364.134 313.114 374.311 303.028 387.073 286.94C388.658 284.856 396.081 273.519 397.583 270.768C398.417 269.185 399.334 267.684 399.585 267.434C400.169 266.851 405.757 255.43 408.176 249.929C410.762 243.927 414.099 234.174 415.85 227.422C416.684 224.421 417.602 220.753 418.102 219.253L418.936 216.585H424.942H431.031L429.864 220.92C427.945 228.256 425.86 244.427 423.774 269.518C423.274 275.02 422.607 281.021 422.19 282.855C421.773 284.689 420.772 289.107 420.021 292.608C419.27 296.109 416.935 302.278 415.016 306.279C413.014 310.364 411.513 313.781 411.68 314.031C411.93 314.198 415.767 311.947 420.188 308.946C424.692 306.029 430.447 302.278 432.95 300.694C435.452 299.194 437.704 297.61 437.788 297.276C437.955 296.86 438.455 296.609 438.789 296.609C439.456 296.609 447.464 291.358 450.05 289.274C450.55 288.94 452.719 287.273 454.971 285.523C477.576 268.351 488.753 248.595 490.171 222.837C490.672 214.835 490.588 213.251 489.587 213.251C488.837 213.251 487.836 215.085 486.918 218.086C484.082 227.755 477.409 236.758 459.642 254.93C454.47 260.182 449.299 265.85 448.048 267.434C446.88 269.018 445.545 270.768 445.045 271.269C444.628 271.769 442.876 274.353 441.291 276.937C439.706 279.604 437.704 282.605 436.87 283.522C435.703 285.023 435.703 284.606 437.204 280.771C443.293 265.517 443.376 250.679 437.538 224.504C435.786 216.419 435.786 216.585 439.873 216.585H443.46L445.795 224.254C449.049 235.008 449.799 241.593 448.965 251.346C448.548 255.847 448.381 259.682 448.465 259.848C448.882 260.349 452.135 257.348 452.135 256.431C452.135 255.43 460.393 244.344 467.816 235.424C471.153 231.34 475.657 225.421 477.743 222.337C480.662 217.919 481.997 216.585 483.498 216.585C485.083 216.585 485.5 216.169 485.5 214.501V212.418L243.603 212.584L1.70512 212.834V211C1.70512 210 1.28806 208.916 0.787579 208.583C0.0368625 208.166 -0.0465505 211.251 0.287101 220.837ZM14.1336 220.42C15.7185 222.504 20.056 228.006 23.9764 232.674C27.8134 237.342 33.0684 244.26 35.6542 248.012C38.1566 251.846 40.5755 254.93 41.076 254.93C41.5765 254.93 41.6599 251.513 41.3263 245.511C40.7424 236.675 41.5765 227.922 43.3282 223.671C43.7452 222.754 44.3291 220.837 44.7462 219.503C45.4969 217.169 45.8306 217.002 49.9178 216.752C52.2533 216.585 54.2553 216.585 54.2553 216.752C54.2553 216.919 53.6714 219.836 53.0041 223.254C52.2533 226.672 51.0856 232.507 50.4183 236.175C49.6675 239.842 48.9168 247.345 48.6666 252.846C48.1661 264.933 49.6675 273.352 53.9216 282.022C57.1747 288.69 55.5065 286.94 49.5007 277.437C44.1623 269.018 41.6599 266.1 25.0607 249.095C12.0483 235.841 8.21133 230.506 3.87386 219.67L2.62266 216.585H7.04355C11.2976 216.585 11.5478 216.669 14.1336 220.42ZM29.8153 218.419C29.565 219.086 29.3148 218.836 29.3148 217.919C29.2314 217.002 29.4816 216.502 29.7319 216.836C29.9821 217.086 30.0655 217.836 29.8153 218.419ZM113.061 220.753C115.647 230.59 126.491 251.596 133.247 260.015C149.68 280.355 165.695 293.192 186.048 302.361C196.057 306.863 197.475 307.363 211.489 311.197C219.163 313.281 239.349 315.198 247.356 314.615C268.71 313.198 283.307 309.697 299.239 302.278C302.325 300.861 304.911 300.194 305.829 300.527C306.746 300.861 307.08 300.777 306.746 300.194C306.413 299.61 307.497 298.443 309.249 297.36C314.003 294.525 321.51 289.607 322.011 289.107C322.261 288.857 323.345 288.024 324.513 287.273C326.765 285.856 335.941 277.77 339.944 273.603C353.207 260.015 364.218 242.343 370.474 224.588L373.31 216.585H391.911C409.01 216.585 410.428 216.669 410.428 218.003C410.428 218.836 409.261 223.254 407.843 227.839C406.425 232.424 405.09 236.925 404.84 237.842C404.589 238.759 404.089 239.842 403.755 240.343C403.505 240.759 402.504 243.01 401.67 245.344C399.835 250.429 389.992 269.685 388.658 270.768C388.407 271.018 387.073 272.852 385.822 274.936C378.231 287.107 359.964 306.779 347.869 315.865C327.015 331.37 303.994 342.29 282.39 347.041C278.719 347.791 274.632 348.792 273.214 349.209C269.544 350.209 252.027 351.626 242.351 351.626C232.759 351.626 217.578 350.376 211.489 349.042C191.72 344.874 180.709 341.123 165.611 333.537C159.022 330.286 143.841 321.284 142.673 319.95C142.423 319.7 140.004 317.866 137.251 315.865C128.743 309.53 115.397 296.359 107.723 286.606C105.304 283.606 102.968 280.605 102.385 279.938C100.883 278.187 94.5437 267.934 92.0413 263.349C88.2877 256.681 83.4498 246.428 83.4498 245.344C83.4498 245.094 82.7825 243.343 81.8649 241.343C80.4469 238.175 79.6962 236.091 76.9436 227.339C76.3597 225.755 75.609 222.671 75.1919 220.503L74.5246 216.585L93.2925 216.752L112.144 217.002L113.061 220.753ZM118.567 217.586C118.567 218.169 118.817 220.67 118.984 223.171C119.401 228.672 118.984 228.422 116.898 221.754C115.314 216.669 115.314 216.585 116.898 216.585C117.732 216.585 118.483 217.086 118.567 217.586ZM201.062 216.919C201.062 217.169 199.227 219.253 196.975 221.587C193.138 225.588 192.888 225.672 192.387 223.921C191.72 221.337 191.72 217.836 192.47 217.169C193.054 216.502 201.062 216.335 201.062 216.919ZM238.848 217.169C235.678 217.502 235.261 217.752 235.261 219.67C235.261 221.504 235.512 221.67 237.347 221.254C238.931 220.837 239.265 221.003 238.931 222.004C238.598 222.837 238.931 223.254 239.766 223.254C240.516 223.254 241.1 223.588 241.1 224.088C241.1 224.504 240.683 224.921 240.099 224.921C239.599 224.921 239.766 225.505 240.516 226.422C242.935 229.006 242.185 229.673 237.597 229.339C228.255 228.672 214.825 223.504 209.487 218.586L207.318 216.585L224.835 216.752C234.511 216.836 240.767 217.002 238.848 217.169ZM262.204 217.169C254.697 217.336 248.607 217.752 248.607 218.086C248.524 218.419 247.606 219.753 246.439 221.17L244.353 223.671L245.271 221.254C245.938 219.586 245.855 218.586 245.187 217.752C244.353 216.752 246.689 216.585 259.952 216.752L275.717 216.919L262.204 217.169ZM311.167 217.002C311.167 217.252 309.749 219.503 308.081 222.087L304.911 226.672L304.661 223.171C304.494 221.254 303.91 219.17 303.243 218.586C300.991 216.252 296.987 217.752 296.987 220.837C296.987 221.587 296.32 222.421 295.569 222.671C294.735 222.837 293.4 223.337 292.649 223.671C291.732 224.004 291.148 223.921 291.148 223.337C291.148 222.837 292.065 222.254 293.233 221.92C294.401 221.67 295.319 221.087 295.319 220.753C295.319 220.337 295.986 219.42 296.737 218.586C298.155 217.252 297.821 217.169 290.898 217.586C286.894 217.836 283.391 217.752 283.14 217.336C282.89 216.919 288.812 216.585 296.903 216.585C304.744 216.585 311.167 216.752 311.167 217.002ZM338.109 218.003C337.275 220.337 330.852 232.757 330.269 233.257C330.018 233.507 328.767 235.258 327.516 237.258C325.347 240.759 324.263 242.093 319.008 248.095L316.422 251.012L312.668 247.345C310.25 245.011 308.665 242.677 308.331 240.926C307.08 234.341 306.746 233.257 305.745 233.257C305.078 233.257 304.077 233.841 303.326 234.507C302.659 235.174 301.825 235.758 301.575 235.758C301.241 235.758 302.742 233.757 304.911 231.34C307.08 229.006 310.416 224.671 312.168 221.754L315.505 216.585H327.099C337.776 216.585 338.61 216.669 338.109 218.003ZM369.556 217.419C369.556 218.753 364.718 230.84 361.465 237.425C358.712 243.093 352.373 253.847 351.205 254.93C350.955 255.18 349.62 256.848 348.286 258.681C346.951 260.515 345.199 262.766 344.365 263.683C343.615 264.6 342.197 266.184 341.279 267.267L339.611 269.185L339.027 263.349C338.36 256.681 336.441 253.68 333.438 254.597C330.936 255.347 331.019 255.18 330.936 259.015C330.852 260.849 330.352 262.599 329.852 262.766C329.351 262.933 326.765 260.932 324.096 258.265L319.258 253.346L321.343 250.596C322.511 249.095 324.263 247.011 325.264 246.011C328.434 242.593 334.523 232.924 338.526 224.755L342.447 216.669L356.043 216.585C364.301 216.585 369.556 216.919 369.556 217.419ZM461.477 219.92C461.31 221.754 460.977 223.254 460.81 223.254C460.643 223.254 460.476 221.754 460.476 219.92C460.476 218.086 460.726 216.585 461.143 216.585C461.477 216.585 461.644 218.086 461.477 219.92ZM208.653 222.087C216.41 227.339 223.25 230.173 232.842 232.007C234.677 232.34 234.928 232.674 234.594 235.341C234.344 237.092 234.594 238.259 235.178 238.259C235.678 238.259 236.095 238.592 236.095 239.092C236.095 239.509 235.512 239.926 234.844 239.926C234.177 239.926 233.593 240.259 233.593 240.676C233.593 241.093 232.258 241.676 230.674 241.926C229.005 242.26 227.254 243.343 226.503 244.427C225.836 245.427 224.334 246.845 223.166 247.428C221.999 248.012 221.081 249.012 221.081 249.512C221.081 250.012 220.581 251.096 220.08 251.846C219.079 253.096 218.662 253.096 214.575 251.596C212.156 250.762 208.986 248.928 207.485 247.595C206.067 246.178 203.314 243.677 201.479 242.01C199.644 240.259 197.475 238.425 196.641 237.842C195.307 236.925 195.223 236.425 196.057 234.924C196.725 233.591 196.808 232.424 196.141 230.506C195.223 228.006 195.39 227.755 199.561 223.504C201.98 221.087 203.981 219.086 204.065 219.086C204.148 219.086 206.234 220.42 208.653 222.087ZM459.642 228.006C458.724 229.423 458.724 229.423 459.142 228.006C459.392 227.172 459.725 225.838 459.725 225.088C459.809 223.838 459.892 223.838 460.226 225.088C460.393 225.922 460.142 227.172 459.642 228.006ZM275.133 230.423C275.466 232.924 274.048 234.341 272.046 233.674C269.961 233.007 269.794 231.84 271.713 229.756C273.381 227.922 274.799 228.172 275.133 230.423ZM261.953 230.84C261.953 231.34 261.62 231.423 261.119 231.173C260.702 230.923 260.285 230.256 260.285 229.839C260.285 229.339 260.702 229.256 261.119 229.506C261.62 229.756 261.953 230.423 261.953 230.84ZM129.994 232.007C132.08 234.424 134.332 234.758 134.332 232.757C134.332 231.757 134.999 232.09 136.834 234.007C138.252 235.424 139.92 236.591 140.588 236.591C141.255 236.591 141.839 236.925 141.839 237.425C141.839 237.842 142.256 238.259 142.84 238.259C144.258 238.259 146.844 240.843 146.844 242.26C146.844 244.427 149.513 246.594 152.015 246.594C153.683 246.594 155.101 247.345 156.603 249.095C157.771 250.512 159.773 252.179 161.107 252.846L163.443 254.097L155.018 262.349L146.593 270.518L144.008 267.517C142.59 265.85 140.588 263.683 139.587 262.599C138.502 261.516 137.668 260.432 137.668 260.098C137.668 259.765 136.751 258.431 135.583 257.098C134.415 255.764 133.498 254.43 133.498 254.097C133.498 253.847 132.83 252.846 132.08 251.929C131.245 251.012 129.827 248.928 128.993 247.345C121.987 234.841 122.404 235.758 124.239 235.758C125.657 235.758 125.99 235.258 125.99 232.84C125.99 229.339 127.408 229.006 129.994 232.007ZM458.057 233.007C457.056 234.674 456.889 234.174 457.64 232.007C457.974 231.257 458.391 230.84 458.558 231.09C458.808 231.257 458.558 232.173 458.057 233.007ZM256.782 232.924C259.368 234.174 260.452 236.008 258.45 235.508C257.95 235.424 257.282 236.008 257.115 236.758C256.615 239.259 259.201 238.425 260.452 235.758C261.453 233.424 263.622 231.673 263.622 233.174C263.622 233.591 264.372 234.091 265.29 234.341C267.876 235.008 267.292 237.258 264.372 237.842C262.788 238.175 261.62 239.092 261.37 240.009C260.869 241.76 259.034 242.093 258.2 240.676C257.866 240.259 257.199 240.009 256.698 240.176C255.03 240.759 252.778 239.176 252.778 237.425C252.778 236.175 252.194 235.758 250.693 235.758C249.525 235.758 248.607 236.091 248.607 236.591C248.607 237.008 247.606 237.425 246.439 237.425H244.27L246.272 235.008C249.108 231.34 252.444 230.756 256.782 232.924ZM283.641 238.092C281.889 238.425 278.636 236.925 278.636 235.758C278.636 235.341 280.137 235.675 281.973 236.425C284.391 237.425 284.809 237.925 283.641 238.092ZM290.898 240.092C289.98 240.509 288.896 240.509 287.811 239.926C285.476 238.675 285.726 238.509 289.146 238.925C291.565 239.259 291.899 239.509 290.898 240.092ZM299.739 240.843C301.074 240.926 296.987 242.26 294.985 242.343C293.317 242.427 293.317 242.427 294.985 241.176C295.819 240.509 297.07 240.176 297.654 240.343C298.321 240.593 299.239 240.759 299.739 240.843ZM310.917 256.181C307.08 259.765 304.994 259.765 304.661 256.097C304.494 254.097 304.911 253.096 306.496 251.763C307.747 250.846 308.665 249.595 308.665 249.012C308.665 248.345 309.832 249.095 311.334 250.596L314.003 253.263L310.917 256.181ZM213.407 254.68C215.326 255.347 216.91 256.431 216.91 257.098C216.91 257.764 217.494 258.515 218.162 258.765C218.829 259.015 220.414 261.266 221.665 263.766C224.501 269.351 226.67 270.602 235.345 271.269L241.934 271.852V277.52V283.272H236.763C227.504 283.189 214.074 280.355 202.73 276.02C195.307 273.186 182.044 266.017 179.541 263.516C178.958 262.933 178.207 262.433 177.873 262.433C177.54 262.349 175.955 261.182 174.203 259.682L171.2 257.014L173.202 256.014C174.954 255.18 175.621 255.347 177.623 257.098C178.958 258.181 180.793 259.098 181.71 259.098C182.878 259.098 183.545 259.765 183.712 260.932C183.962 262.683 184.463 262.849 189.468 263.099C193.638 263.266 195.223 263.016 196.057 262.016C196.641 261.349 198.56 260.682 200.562 260.682C208.819 260.432 210.988 258.681 208.152 254.347C206.734 252.263 206.734 252.179 208.236 252.846C209.153 253.18 211.405 254.013 213.407 254.68ZM322.678 262.349C322.511 264.1 323.012 264.933 324.43 264.933C326.181 264.933 330.352 269.935 330.352 271.935C330.352 272.852 331.186 273.269 333.105 273.269L335.774 273.352L332.771 276.02C326.515 281.688 324.179 283.522 317.173 288.274C309.165 293.609 297.154 300.361 296.486 299.777C296.069 299.36 301.908 293.775 306.329 290.441C309.082 288.44 309.332 287.94 308.414 286.523C307.58 285.189 307.664 284.439 308.915 282.355C310.833 279.021 310.75 277.687 308.498 276.52L306.579 275.52L308.498 274.686C309.499 274.186 310.333 273.352 310.333 272.769C310.333 272.185 311.084 271.269 312.001 270.768C314.504 269.435 314.253 265.35 311.501 263.516L309.332 262.099L312.919 259.015L316.589 255.847L319.675 258.848C321.343 260.515 322.761 262.099 322.678 262.349ZM171.033 261.432C174.954 264.933 186.381 272.269 193.138 275.52C198.56 278.187 206.651 281.105 215.909 283.772C216.493 283.939 216.91 284.773 216.744 285.523C216.577 286.356 217.077 287.107 217.995 287.273C218.996 287.44 219.413 287.023 219.413 285.773C219.413 284.356 219.746 284.022 220.914 284.522C222.082 285.023 235.845 286.44 240.516 286.606C241.768 286.606 241.934 287.773 241.934 299.11V311.614L239.682 311.531C226.503 311.197 206.234 307.363 196.307 303.195C195.223 302.778 193.555 302.111 192.554 301.694C184.63 298.443 167.947 289.274 164.611 286.19C164.11 285.773 160.607 282.939 156.937 279.938C153.266 276.937 150.18 274.019 150.18 273.352C150.18 272.686 153.6 268.684 157.854 264.433C166.362 255.764 165.028 256.097 171.033 261.432ZM254.279 273.519C255.28 274.436 256.115 275.77 256.115 276.353C256.115 277.02 257.449 278.104 259.117 278.771C260.786 279.521 261.87 280.355 261.453 280.688C260.619 281.438 249.942 283.272 246.605 283.272C244.437 283.272 244.437 283.189 244.437 276.937V270.602L248.441 271.185C250.609 271.519 253.195 272.519 254.279 273.519ZM264.039 287.607C263.538 291.775 264.956 295.192 267.375 295.609C268.293 295.776 270.545 297.36 272.38 299.027C274.215 300.777 276.717 302.611 278.052 303.111C279.303 303.612 280.304 304.612 280.304 305.279C280.304 305.862 279.303 306.612 278.052 306.863C264.539 309.53 257.95 310.614 251.777 311.114L244.437 311.697V298.777V285.773L250.526 285.69C253.779 285.69 257.282 285.356 258.2 284.939C259.117 284.522 260.952 284.189 262.204 284.189C264.539 284.106 264.539 284.189 264.039 287.607Z" fill="white"/>
<path d="M339.194 286.523C338.61 287.356 339.778 291.274 342.113 296.359C345.033 302.944 343.281 305.779 339.361 300.777C334.272 294.192 333.605 293.275 334.106 292.441C335.107 290.857 332.437 291.691 330.185 293.692C327.599 295.942 327.349 296.609 329.017 296.609C329.601 296.609 330.769 297.526 331.436 298.61C332.604 300.36 332.688 300.777 331.52 301.611C330.519 302.444 330.018 302.361 328.684 301.194C327.766 300.36 327.016 299.027 327.016 298.11C327.016 297.276 326.682 296.609 326.181 296.609C325.764 296.609 325.347 296.943 325.347 297.276C325.347 297.61 324.263 298.61 322.845 299.36C320.259 300.86 319.342 303.028 321.594 302.111C322.261 301.861 323.179 302.361 323.679 303.278C324.096 304.111 325.014 305.278 325.598 305.945C327.433 307.863 329.518 311.53 329.518 312.864C329.518 314.448 331.27 313.614 334.606 310.613C335.774 309.613 337.609 308.196 338.777 307.613C341.029 306.362 347.869 300.36 347.869 299.527C347.869 299.277 347.285 299.11 346.534 299.277C344.616 299.61 343.448 296.192 344.949 294.942C346.367 293.775 349.537 294.609 349.537 296.276C349.537 297.943 350.204 297.776 353.457 294.942C355.876 292.775 356.127 292.358 354.792 291.941C353.958 291.691 350.705 290.191 347.535 288.607C341.696 285.689 339.945 285.272 339.194 286.523ZM344.532 293.442C344.532 294.525 342.614 293.858 342.197 292.608C342.03 292.025 342.363 291.774 343.198 292.108C343.948 292.358 344.532 293.025 344.532 293.442ZM335.941 304.695C336.942 306.195 336.942 306.612 335.774 307.779C334.439 309.03 334.272 308.946 332.688 307.029C331.353 305.278 331.186 304.695 332.104 303.611C333.355 302.111 334.439 302.444 335.941 304.695Z" fill="white"/>
<path d="M137.668 289.524C137.001 290.357 136.834 292.274 137.251 295.775C137.835 300.527 137.752 300.777 136.083 300.777C133.831 300.777 133.08 298.943 134.332 296.609C135.833 293.858 134.582 293.525 132.079 295.942L129.994 298.11L132.663 301.11C134.749 303.361 136.083 304.111 138.085 304.111C142.172 304.111 143.007 302.528 142.256 296.192C141.672 290.774 142.256 289.524 144.258 291.941C144.758 292.525 144.925 294.192 144.675 295.859L144.174 298.693L146.343 296.442C147.511 295.192 148.512 294.025 148.512 293.775C148.512 293.525 147.427 292.191 146.009 290.774C143.34 288.023 139.42 287.44 137.668 289.524Z" fill="white"/>
<path d="M147.928 301.195C145.092 303.195 142.006 305.029 141.005 305.363C139.337 305.863 139.253 306.029 140.671 307.53C142.339 309.364 145.175 309.864 143.591 307.947C142.84 307.113 142.923 306.613 143.841 305.863C146.01 304.112 148.095 305.113 148.095 307.863C148.095 309.447 147.678 310.281 147.094 310.114C144.508 309.614 146.427 311.948 151.181 314.949C156.77 318.533 158.188 319.033 157.354 316.949C156.853 315.699 159.773 308.28 160.774 308.28C161.107 308.28 160.774 311.614 159.773 318.033C159.272 320.951 160.44 320.951 164.027 317.866C165.778 316.283 167.53 314.949 167.947 314.949C169.198 314.949 165.862 320.117 164.277 320.534C163.443 320.784 162.942 321.284 163.193 321.701C164.027 323.118 170.116 325.785 170.616 325.035C170.867 324.618 170.616 324.118 170.199 323.951C169.699 323.785 170.616 321.451 172.285 318.783C173.869 316.116 175.204 313.615 175.204 313.198C175.204 312.198 177.456 312.198 178.04 313.198C178.791 314.365 175.204 323.535 173.369 325.119C171.868 326.452 171.951 326.619 175.705 328.203C180.042 330.12 185.214 330.453 186.715 328.953C188.133 327.536 187.966 325.369 186.381 324.035C185.214 323.035 185.214 322.868 186.882 322.284C188.3 321.784 188.634 321.034 188.383 318.95C188.216 316.616 187.549 315.949 184.379 314.365C182.294 313.282 180.042 312.448 179.375 312.448C178.707 312.448 177.206 311.698 176.038 310.781C173.369 308.697 172.201 308.697 169.949 310.864C168.948 311.781 167.447 312.948 166.529 313.448C165.111 314.199 165.028 314.032 165.528 309.697C166.112 305.196 166.112 305.113 163.443 303.779C160.19 302.195 159.939 302.112 160.44 303.445C160.69 304.362 158.772 308.53 155.685 313.448C155.185 314.282 154.267 314.949 153.6 314.949C152.432 314.949 152.432 314.532 154.684 304.696C156.686 296.11 155.769 295.693 147.928 301.195ZM150.18 303.695C150.18 304.362 149.847 304.946 149.429 304.946C148.345 304.946 147.594 303.612 148.262 302.945C149.179 302.028 150.18 302.445 150.18 303.695ZM184.046 318.7C183.712 319.867 183.128 320.784 182.711 320.784C181.627 320.784 181.627 319.45 182.795 317.283C183.962 315.116 184.713 315.949 184.046 318.7ZM182.711 324.452C182.711 326.119 180.542 328.62 179.625 328.036C179.041 327.703 179.041 326.536 179.708 324.618C180.376 322.451 180.876 321.951 181.627 322.618C182.211 323.118 182.711 323.951 182.711 324.452Z" fill="white"/>
<path d="M316.255 303.779C313.336 305.029 311.25 307.113 311.167 308.864C311.167 311.031 314.42 313.282 317.673 313.282C320.926 313.282 322.845 314.449 322.845 316.366C322.845 317.866 319.091 317.7 317.423 316.116C315.338 314.032 314.921 315.449 316.672 318.7C318.174 321.451 319.508 322.534 319.508 320.867C319.508 320.45 320.342 319.784 321.427 319.533C323.929 318.7 327.015 315.782 327.015 314.115C327.015 311.531 324.513 309.114 321.76 309.114C317.84 309.114 315.338 308.197 315.338 306.946C315.338 305.112 317.757 304.612 319.425 306.113C321.927 308.363 323.095 307.78 321.594 304.946C320.092 302.112 320.092 302.112 316.255 303.779Z" fill="white"/>
<path d="M305.162 309.78C302.826 311.197 302.159 312.448 303.66 312.448C304.077 312.448 305.745 315.032 307.33 318.283C308.999 321.45 309.916 324.118 309.416 324.118C308.915 324.118 308.832 324.451 309.082 324.951C309.332 325.368 311.084 325.035 313.253 323.951C315.254 322.951 316.756 321.867 316.506 321.45C316.255 321.033 315.755 320.95 315.421 321.2C315.004 321.367 313.419 318.866 311.751 315.615C309.499 311.114 308.999 309.447 309.749 308.947C310.417 308.53 310.166 308.28 309.082 308.28C308.164 308.28 306.413 308.947 305.162 309.78Z" fill="white"/>
<path d="M294.484 314.532C292.9 315.115 290.481 316.032 289.146 316.533L286.727 317.533L288.479 319.2C289.48 320.117 290.314 321.201 290.314 321.701C290.314 322.118 291.065 324.118 291.982 325.952C292.9 327.869 293.483 330.12 293.15 330.953C292.566 332.871 293.233 332.787 297.404 330.787C299.239 329.87 301.074 329.203 301.408 329.12C302.576 329.12 304.411 326.869 305.328 324.618C306.496 321.451 305.412 317.7 302.659 315.365C299.906 313.031 298.739 312.948 294.484 314.532ZM298.822 317.616C299.489 318.7 300.574 320.95 301.241 322.701C302.242 325.452 302.158 325.952 300.907 327.202C299.99 328.119 299.239 328.369 298.655 327.786C297.487 326.619 293.734 317.116 294.234 316.449C294.985 315.115 297.654 315.866 298.822 317.616Z" fill="white"/>
<path d="M191.803 324.535C189.468 327.536 186.965 330.286 186.215 330.703C184.546 331.62 184.88 332.12 187.966 332.871C189.968 333.371 190.218 333.287 190.052 331.62C189.801 329.536 192.22 327.452 193.472 328.703C193.889 329.203 194.472 330.37 194.806 331.37C195.223 332.871 194.973 333.287 193.805 333.287C192.387 333.371 192.387 333.371 193.805 334.204C197.225 336.205 212.656 339.539 213.657 338.456C214.658 337.455 215.493 333.287 214.742 333.287C214.325 333.287 213.157 334.204 212.073 335.371C209.07 338.539 207.819 337.372 208.736 332.204C209.904 324.951 210.237 324.118 211.489 324.118C212.74 324.118 213.324 322.451 212.156 322.451C211.739 322.367 209.904 322.034 207.985 321.7C204.732 321.034 203.231 321.617 205.149 322.784C205.566 323.118 205.65 324.451 205.233 326.035C202.897 334.871 202.564 335.871 201.646 335.538C201.062 335.371 200.228 331.954 199.644 327.369C198.56 318.116 198.81 319.116 197.308 319.116C196.641 319.116 194.139 321.534 191.803 324.535ZM194.389 326.202C194.389 326.869 194.055 327.452 193.555 327.452C193.138 327.452 192.721 326.869 192.721 326.202C192.721 325.535 193.138 324.951 193.555 324.951C194.055 324.951 194.389 325.535 194.389 326.202Z" fill="white"/>
<path d="M275.299 321.617C272.797 323.951 272.63 324.451 273.047 327.952C273.631 333.204 276.217 335.788 280.805 335.788C283.474 335.788 284.892 335.288 286.894 333.371C289.813 330.703 290.147 328.202 288.312 323.701C286.06 318.366 279.804 317.366 275.299 321.617ZM283.474 325.202C285.643 329.536 285.476 332.954 283.057 333.871C279.97 335.038 276.3 326.869 277.969 322.451C278.97 319.617 281.222 320.784 283.474 325.202Z" fill="white"/>
<path d="M216.91 324.035C216.91 324.451 217.244 324.952 217.661 325.118C218.746 325.452 217.328 337.705 216.16 338.122C213.657 338.956 215.826 339.956 220.08 339.956C224.167 339.873 224.668 339.789 223.417 338.789C222.583 338.206 221.915 336.872 221.915 335.871C221.915 334.454 222.416 334.121 224.751 334.121C228.255 334.121 230.257 332.287 230.257 329.203C230.257 326.035 229.172 325.285 223.25 324.201C217.244 323.118 216.91 323.118 216.91 324.035ZM225.252 328.619C225.252 331.37 224.084 333.204 223 332.12C222.249 331.454 223.584 325.785 224.418 325.785C224.918 325.785 225.252 327.036 225.252 328.619Z" fill="white"/>
<path d="M231.424 326.285C231.675 327.035 231.925 330.036 231.925 332.954C231.925 339.289 233.593 341.623 238.097 341.623C242.769 341.623 244.02 339.372 244.604 330.37C244.77 328.036 245.271 327.035 246.105 327.035C247.106 327.035 247.356 328.369 247.356 334.121V341.206L250.943 340.873C254.196 340.623 255.614 339.623 253.529 338.956C253.028 338.789 252.778 337.372 252.945 335.788L253.279 332.871L254.78 336.455C256.281 339.956 256.448 340.039 259.785 339.873C264.706 339.623 265.29 339.789 265.29 341.29C265.29 342.457 265.54 342.457 266.541 341.623C268.376 340.039 268.126 336.038 266.124 335.371C264.122 334.788 262.788 335.455 262.788 337.038C262.788 337.789 262.287 338.039 261.536 337.789C260.869 337.455 260.285 336.788 260.285 336.205C260.285 335.538 259.701 334.454 258.951 333.704C257.95 332.704 257.866 332.12 258.617 331.203C259.117 330.62 259.451 329.036 259.284 327.702L259.034 325.368L249.692 325.118C241.1 324.952 238.014 325.618 241.517 326.952C243.019 327.452 243.269 334.371 241.934 337.789C241.017 340.206 238.264 340.706 237.43 338.622C236.596 336.455 236.846 327.619 237.764 327.035C239.682 325.868 238.348 324.952 234.761 324.952C231.591 324.952 231.007 325.202 231.424 326.285ZM254.279 329.036C254.53 331.037 254.279 331.704 253.445 331.453C252.861 331.203 252.278 329.87 252.111 328.369C251.861 326.369 252.111 325.702 252.945 325.952C253.529 326.202 254.113 327.536 254.279 329.036Z" fill="white"/>
<path d="M170.366 331.704C169.782 332.704 169.448 333.704 169.782 333.954C170.366 334.621 171.867 332.537 171.867 330.953C171.867 329.536 171.617 329.703 170.366 331.704Z" fill="white"/>
<path d="M316.172 230.34C316.172 231.674 316.672 232.424 317.423 232.424C318.174 232.424 318.674 231.674 318.674 230.34C318.674 229.006 318.174 228.256 317.423 228.256C316.672 228.256 316.172 229.006 316.172 230.34Z" fill="white"/>
<path d="M220.747 242.01C219.996 243.177 219.746 244.094 220.163 244.094C220.58 244.094 221.498 243.177 222.249 242.01C222.999 240.843 223.25 239.926 222.833 239.926C222.415 239.926 221.498 240.843 220.747 242.01Z" fill="white"/>
<path d="M229.839 297.443C229.172 298.526 231.257 300.61 232.592 300.11C234.01 299.694 233.843 297.693 232.258 297.109C230.507 296.443 230.423 296.443 229.839 297.443Z" fill="white"/>
<path d="M69.2695 253.513C69.2695 253.68 70.1871 255.93 71.2714 258.348C73.4402 263.349 75.1918 270.435 76.7767 279.938C77.2772 283.355 78.1113 287.857 78.5284 289.941C78.862 292.025 79.4459 295.442 79.7795 297.693C80.6137 303.862 85.4516 316.782 88.7881 321.867C90.4564 324.368 94.1266 328.952 97.046 332.12L102.218 337.872L97.6299 334.537C95.1275 332.703 92.6251 330.87 92.1247 330.369C86.536 325.285 81.5312 322.284 64.6818 313.948C56.9244 310.03 49.5841 306.362 48.4163 305.695C44.4125 303.528 37.9897 299.61 37.5726 299.11C37.3224 298.86 35.7375 297.61 33.9859 296.276C27.6465 291.608 21.8076 284.772 18.8047 278.437C17.3033 275.27 15.8853 273.936 15.8853 275.603C15.8853 277.187 18.5545 286.19 19.9725 289.357C20.8066 291.274 21.9744 294.109 22.6417 295.526C23.309 297.026 24.0597 298.277 24.3934 298.277C24.8104 298.277 25.0607 298.777 25.0607 299.444C25.0607 300.11 25.5612 301.194 26.145 301.778C26.6455 302.361 28.8143 305.112 30.8996 307.863C38.9072 318.699 55.423 332.87 65.6828 337.872C73.1899 341.456 83.1995 344.374 94.2934 346.208C105.387 348.125 115.063 349.959 118.817 350.876C127.742 353.21 127.742 353.21 122.821 348.208C117.649 343.04 111.81 334.537 109.308 328.619C108.307 326.368 106.972 323.451 106.388 322.034C105.721 320.7 103.969 315.615 102.301 310.78C96.2119 292.275 93.4593 286.106 87.4535 276.437C79.3625 263.683 69.2695 250.929 69.2695 253.513Z" fill="white"/>
<path d="M417.101 259.515C405.507 274.186 398.417 286.69 393.829 300.778C392.828 303.778 391.66 306.946 391.243 307.863C390.826 308.78 390.242 310.447 389.992 311.614C388.991 315.532 384.987 325.368 382.402 330.37C378.064 338.789 375.312 342.623 370.14 347.708C367.471 350.376 365.385 352.71 365.636 352.96C365.802 353.21 367.638 352.793 369.639 352.126C371.641 351.459 374.811 350.626 376.646 350.376C378.481 350.042 381.15 349.542 382.485 349.125C383.903 348.792 387.823 348.042 391.243 347.458C397.75 346.375 409.01 344.041 415.35 342.457C439.873 336.455 469.985 305.196 475.824 279.771C476.074 278.604 476.575 277.02 476.825 276.27C477.075 275.52 476.992 274.936 476.575 274.936C476.158 274.936 474.406 277.437 472.571 280.521C465.648 292.525 454.637 300.861 430.03 312.864C415.934 319.783 408.176 324.201 402.087 329.036C400.002 330.703 398 332.287 397.499 332.62C397.082 332.954 395.331 334.288 393.746 335.538L390.826 337.789L392.912 335.371C394.079 334.121 395.581 332.37 396.248 331.62C402.421 324.868 405.507 320.117 408.26 313.198C411.096 306.279 414.015 293.942 415.016 284.939C416.017 275.937 418.77 264.35 421.439 258.432C424.191 252.18 422.607 252.596 417.101 259.515Z" fill="white"/>
<path d="M104.303 305.529C104.303 305.946 105.22 307.529 106.305 309.113C107.306 310.697 110.392 316.115 113.061 321.2C119.901 334.204 122.654 339.122 125.073 342.456C127.492 345.791 135.833 354.127 136.834 354.127C137.251 354.127 138.085 354.627 138.669 355.21C140.087 356.544 145.425 358.795 150.18 360.045C155.769 361.462 156.269 361.629 155.935 362.046C155.685 362.212 152.682 361.712 149.262 360.795C142.673 359.212 130.578 357.794 112.227 356.627C94.8772 355.46 88.4544 354.46 77.6107 351.042C71.3547 349.042 62.0959 343.874 59.2599 340.873C59.0096 340.539 57.5916 339.206 56.0067 337.872C53.2541 335.371 53.2541 335.371 53.838 337.455C55.3394 342.29 65.8495 354.543 73.9405 360.795C83.6164 368.298 96.9625 374.133 108.223 375.8C118.4 377.217 137.001 376.467 146.426 374.133C148.261 373.716 154.434 372.215 160.189 370.798C165.945 369.381 173.536 367.464 177.122 366.547C180.709 365.713 184.88 364.963 186.465 364.963C190.051 364.963 191.052 363.546 187.966 362.796C182.544 361.629 171.117 357.878 166.863 355.961C158.855 352.376 154.934 349.459 144.675 339.539C129.827 325.201 122.82 318.783 115.146 312.698C112.144 310.28 109.308 307.946 108.807 307.529C107.055 306.112 104.303 304.862 104.303 305.529Z" fill="white"/>
<path d="M382.068 309.03C374.811 314.448 368.805 319.7 355.376 332.453C339.11 347.791 336.775 349.959 336.108 349.959C335.857 349.959 334.523 350.876 333.188 352.043C331.854 353.21 330.519 354.127 330.185 354.127C329.852 354.127 327.599 355.043 325.181 356.127C319.091 358.878 311 361.462 304.244 362.879C301.074 363.546 302.242 364.963 305.912 364.963C308.581 364.963 322.845 368.047 329.101 370.048C330.519 370.465 335.524 371.715 340.362 372.799C361.382 377.717 381.401 377.8 394.83 373.216C401.503 370.965 409.928 367.13 411.263 365.797C411.513 365.547 413.265 364.296 415.266 363.046C423.191 357.878 430.865 350.209 436.12 342.206C439.873 336.371 440.29 333.954 436.87 337.538C434.034 340.539 427.945 345.124 424.025 347.291C414.099 352.626 402.838 355.043 379.983 356.627C360.714 357.961 350.955 359.128 343.782 360.879C339.945 361.796 336.608 362.379 336.441 362.129C336.191 361.879 337.109 361.462 338.36 361.129C349.12 358.711 359.296 353.043 364.218 346.874C368.305 341.79 372.642 334.621 377.647 324.701C380.233 319.533 383.653 313.364 385.154 310.947C386.739 308.446 387.907 306.112 387.74 305.695C387.573 305.279 385.071 306.779 382.068 309.03Z" fill="white"/>
<path d="M208.152 363.046C206.818 363.213 203.565 363.963 201.062 364.713C198.56 365.38 195.307 366.214 193.889 366.631C190.302 367.464 179.959 371.382 174.704 373.799C172.368 374.883 170.199 375.8 169.949 375.8C169.449 375.8 162.943 378.634 156.436 381.635C149.43 384.886 137.418 387.47 129.411 387.47C120.235 387.47 107.39 384.303 99.6321 380.051C97.0463 378.634 94.6273 377.717 94.3771 377.967C94.1269 378.217 96.7961 381.218 100.299 384.553C107.39 391.221 116.899 396.64 128.159 400.474C133.998 402.475 136 402.725 146.01 402.725C165.445 402.725 178.207 398.057 199.394 382.969C212.156 373.883 218.579 370.715 225.502 370.215C230.924 369.715 238.431 370.632 236.096 371.465C234.094 372.132 217.328 380.218 216.911 380.718C216.66 380.968 215.159 381.969 213.574 382.802C210.655 384.469 196.808 393.972 196.057 394.972C195.807 395.222 194.556 396.306 193.221 397.306C191.887 398.307 188.55 401.141 185.798 403.558C183.045 405.892 180.126 408.476 179.291 409.227C178.374 409.977 177.707 410.977 177.707 411.394C177.707 412.728 186.048 420.813 187.382 420.813C187.633 420.813 194.556 414.395 202.647 406.476C220.914 388.721 227.671 383.386 239.015 377.801C245.438 374.633 248.274 374.3 252.194 376.3C255.614 378.051 267.709 386.053 269.878 388.054C270.795 388.887 273.298 390.971 275.383 392.638C277.468 394.306 284.392 400.807 290.648 406.976C303.577 419.646 302.492 419.313 309.165 413.145C312.669 409.894 313.67 407.893 312.085 407.309C311.668 407.143 309.249 405.142 306.83 402.891C297.488 394.139 280.054 381.218 275.133 379.468C274.299 379.218 273.631 378.634 273.631 378.217C273.631 377.801 273.298 377.467 272.964 377.467C272.547 377.467 270.212 376.3 267.709 374.883C263.455 372.549 263.372 372.382 266.124 372.882C273.381 374.216 280.054 377.634 290.731 385.386C298.989 391.471 305.245 395.306 310.834 397.89C337.442 410.06 364.051 407.643 385.405 391.138C390.66 387.137 396.749 381.052 396.165 380.468C395.915 380.218 392.995 381.385 389.575 383.052C386.155 384.719 382.569 386.386 381.651 386.72C377.814 388.22 366.47 389.971 360.965 389.971C354.959 389.971 343.198 388.054 339.528 386.47C338.36 385.97 336.692 385.303 335.774 384.886C334.857 384.553 328.35 381.718 321.344 378.718C295.486 367.714 282.473 364.463 266.708 365.213C261.62 365.464 255.698 366.047 253.612 366.38C251.444 366.797 248.691 366.797 247.356 366.464C245.938 366.047 243.019 365.13 240.683 364.463C236.429 363.213 213.157 362.213 208.152 363.046Z" fill="white"/>
</svg>
