<svg width="263" height="304" viewBox="0 0 263 304" fill="none" xmlns="http://www.w3.org/2000/svg">
<path d="M123.685 45.8331C96.1766 50.2328 77.627 65.56 67.7838 91.5685C67.0495 93.5082 67.2336 94.1368 69.5188 93.8628C86.2561 91.8572 103.005 89.9528 119.749 87.9984C122.364 87.6928 124.979 87.3409 127.574 86.909C128.308 86.7875 129.322 86.6655 129.546 85.8076C129.81 84.7933 128.697 84.6598 128.117 84.2001C127.088 83.383 125.961 82.6591 125.058 81.7206C121.147 77.6597 121.288 71.4331 125.308 67.5351C129.256 63.7063 135.624 63.6921 139.613 67.5035C143.753 71.4576 143.937 77.4772 140.049 81.6737C139.024 82.78 137.816 83.6488 136.523 84.4131C135.996 84.7252 135.343 85.0063 135.474 85.758C135.602 86.4895 136.33 86.6143 136.903 86.7385C138.36 87.0506 139.826 87.348 141.304 87.5212C159.18 89.6133 177.058 91.6948 194.937 93.7658C198.063 94.1319 198.119 94.1085 197.058 91.0423C187.598 63.7155 161.721 45.345 132.622 45.2949C129.635 45.3461 126.656 45.3581 123.685 45.8331Z" fill="#0E21A0"/>
<path d="M199.704 101.013C198.984 97.1882 198.992 97.2503 195.158 97.7526C183.147 99.3268 171.141 100.941 159.112 102.366C147.762 103.711 142.444 108.229 139.605 119.351C138.49 123.722 138.145 128.175 138.129 133.84C138.249 135.572 138.365 138.471 138.667 141.354C140.002 154.113 143.64 166.084 150.814 176.864C151.903 178.498 152.93 178.654 154.676 178.054C186.62 167.077 205.926 134.089 199.704 101.013Z" fill="#0E21A0"/>
<path d="M110.877 178.249C112.253 178.754 113.056 178.537 113.897 177.26C115.585 174.689 117.207 172.088 118.554 169.326C123.827 158.513 126.389 147.047 126.82 135.044C126.909 127.2 126.577 119.395 122.728 112.275C119.755 106.777 115.327 103.28 108.818 102.797C105.587 102.556 102.382 101.98 99.164 101.566C88.9885 100.251 78.8075 98.9766 68.6418 97.5941C66.6808 97.3272 65.9128 97.8469 65.5369 99.8634C63.7349 109.484 63.553 119.101 65.9275 128.599C72.0529 153.111 87.2023 169.56 110.877 178.249Z" fill="#0E21A0"/>
<path d="M158.349 225.47C158.982 226.201 159.38 227.252 160.859 226.428C163.914 224.727 164.018 224.591 161.613 222.073C160.824 221.247 160.017 220.436 159.186 219.654C152.066 212.954 143.81 208.063 134.777 204.205C137.114 203.465 139.444 203.581 141.78 203.873C147.854 204.629 153.5 206.859 159.124 209.075C169.964 213.349 181.047 215.903 192.798 214.689C200.366 213.907 207.736 212.51 214.342 208.464C215.404 207.814 216.666 207.315 217.368 205.592C213.809 206.854 210.525 207.455 207.077 207.436C199.85 207.396 192.998 205.544 186.235 203.358C168.083 197.492 149.872 197.067 131.541 202.367C130.302 202.726 129.15 202.559 127.931 202.206C121.586 200.372 115.103 199.336 108.514 198.841C96.0538 197.904 84.0421 200.055 72.2198 203.794C66.4457 205.621 60.5997 207.116 54.4764 207.389C50.3164 207.574 46.3126 207.048 42.3486 205.732C45.4955 208.918 49.3309 210.789 53.4518 212.017C67.6893 216.261 81.8163 215.981 95.8392 210.89C102.179 208.588 108.374 205.819 115.014 204.429C118.36 203.73 121.747 203.122 125.571 204.184C122.532 205.596 119.864 206.709 117.312 208.044C109.945 211.899 103.233 216.651 97.6357 222.865C97.17 223.382 96.2123 223.812 96.7097 224.777C97.645 226.587 100.436 226.84 101.788 225.271C106.683 219.596 111.816 214.11 118.302 210.265C129.934 203.37 130.017 203.362 141.656 210.265C148.222 214.161 153.386 219.738 158.349 225.47Z" fill="#0E21A0"/>
<path d="M59.2941 198.509C65.2121 198.007 71.0374 196.409 77.0582 197.199C77.8824 197.308 78.8014 197.317 79.65 196.249C74.6734 193.411 71.5908 188.976 69.7246 183.778C65.7383 172.674 58.2722 163.968 50.6352 155.349C50.5524 155.217 50.4614 155.089 50.3628 154.968C50.341 154.943 50.189 154.975 50.1792 155.007C49.8704 155.996 50.0049 156.94 50.4952 157.843C50.5997 162.069 51.126 166.247 52.1707 170.338C54.6765 180.143 59.2206 188.477 68.9227 192.979C69.4092 193.205 70.1271 193.377 69.8874 194.258C68.8628 194.377 68.013 193.955 67.1671 193.509C58.9962 189.206 50.2702 186.482 41.1291 185.727C32.3476 185.005 25.2231 181.252 18.7784 175.675C16.8071 173.97 14.8716 172.223 12.7412 170.337C12.812 170.824 12.793 171.086 12.8883 171.296C22.0065 191.446 40.0026 200.144 59.2941 198.509Z" fill="#0E21A0"/>
<path d="M36.6234 169.548C29.4504 161.26 22.6674 152.617 13.504 146.265C8.76111 142.978 5.88713 138.097 3.67771 132.839C3.40535 132.185 3.11283 131.543 2.62258 130.423C2.37963 134.248 2.49075 137.489 3.11773 140.689C5.80651 154.421 12.9533 165.038 25.5796 171.354C31.5923 174.361 38.2298 176.038 44.2795 179.071C44.9103 179.387 45.7029 179.711 46.216 179.067C46.6354 178.539 46.0711 177.917 45.8347 177.373C43.5125 172.084 42.2133 166.636 42.5914 160.78C42.976 154.826 43.1966 148.843 41.5864 142.984C40.2006 137.943 38.5648 133.005 35.681 128.168C33.9177 132.54 32.7651 136.668 32.3669 140.926C31.583 149.3 31.5127 157.594 36.3238 165.107C37.4481 166.862 38.1715 168.876 39.079 170.772C38.8578 171.002 38.6368 171.233 38.4161 171.464C37.8158 170.824 37.1942 170.208 36.6234 169.548Z" fill="#0E21A0"/>
<path d="M203.279 199.018C209.127 199.489 214.688 198.81 220.025 196.599C230.816 192.129 238.986 184.404 245.832 175.159C247.054 173.509 247.912 171.597 248.484 169.356C247.932 169.489 247.613 169.465 247.477 169.613C240.904 176.846 232.28 180.458 223.226 183.223C215.914 185.457 208.708 187.893 201.981 191.604C200.146 192.616 198.174 193.384 196.25 194.233C194.888 194.832 193.481 194.865 191.903 194.396C197.956 190.313 202.793 185.184 206.413 179.011C210.111 172.712 210.236 165.413 211.978 158.008C203.876 164.729 198.326 172.68 194.13 181.556C191.362 187.413 188.48 193.061 183.044 196.94C182.866 197.067 182.792 197.339 182.366 198.047C189.719 196.101 196.445 198.468 203.279 199.018Z" fill="#0E21A0"/>
<path d="M23.2608 145.185C23.6073 145.772 23.9368 146.687 25.3493 146.366C23.8846 139.569 26.5771 133.506 28.8901 127.355C30.4028 123.337 31.9825 119.34 32.9085 115.126C34.3863 108.377 35.1588 101.575 34.6843 93.9485C32.3681 97.0838 31.2313 100.181 29.0061 102.526C26.094 105.594 24.4429 109.346 23.1775 113.311C21.1478 119.685 22.1638 126.2 22.197 132.672C22.2019 133.633 22.5968 134.703 21.6762 135.573C20.6483 134.16 20.6331 134.163 20.462 132.958C19.4303 125.701 16.7116 119.185 12.5047 113.144C7.74211 106.302 4.31305 98.8422 4.13492 90.2591C4.11858 89.4671 4.0543 88.6745 3.30803 87.7959C1.22989 92.6172 0.101219 97.3714 0.00698124 102.326C-0.18095 112.175 3.43549 120.643 9.62959 128.134C14.2658 133.742 19.5251 138.85 23.2608 145.185Z" fill="#0E21A0"/>
<path d="M15.7436 104.676C15.9195 105.573 15.9239 106.578 17.1163 107.073C17.3887 106.323 17.6578 105.683 17.8582 105.021C19.5904 99.3156 22.2732 94.3657 26.9334 90.2951C32.9183 85.0658 37.6836 78.7166 40.7771 71.2845C41.671 69.1367 42.7032 66.9856 42.6466 64.1057C37.1127 68.2058 31.2743 71.2774 26.6408 76.0077C21.9328 80.8121 19.7479 86.902 18.4476 94.095C17.49 92.3367 17.8424 91.4597 17.9682 90.6241C19.2696 81.9631 19.4472 73.2929 17.8686 64.6624C16.8592 59.1456 17.3037 53.8727 19.3584 48.6527C20.1395 46.6689 21.1108 44.6572 21.0029 42.3809C20.7153 42.4048 20.5127 42.3656 20.3841 42.4446C20.163 42.5848 19.9674 42.7617 19.8056 42.9675C8.87076 56.6317 4.27653 71.6141 11.0317 88.5776C13.1267 93.839 14.6628 99.1668 15.7436 104.676Z" fill="#0E21A0"/>
<path d="M24.217 68.9135C24.5944 68.5491 24.9828 68.1792 25.2781 67.7505C28.413 63.2033 32.6728 60.2128 37.7093 57.9805C47.5596 53.6147 55.6025 46.6701 63.2608 39.2549C63.3812 39.1383 63.6999 38.9515 63.4025 38.6998C58.8425 39.9941 54.3551 41.5378 49.7478 42.5128C43.0945 43.9176 38.1696 47.6909 34.052 52.8286C33.4299 53.6043 32.9909 54.6376 31.7516 54.7662C31.4139 53.7661 32.1988 53.2905 32.6412 52.717C37.2997 46.6772 40.7298 40.0251 42.7339 32.6513C43.6092 29.4293 44.7423 26.2988 46.2011 23.2996C47.5552 20.5145 49.0129 17.7795 50.4592 14.9551C50.1803 14.9551 49.9934 14.9007 49.8725 14.9649C49.41 15.215 48.9655 15.4988 48.5205 15.7787C35.0325 24.2681 28.8063 37.2008 26.3223 52.34C25.466 57.5573 26.5527 63.0965 23.6891 67.9875C23.5415 68.2397 23.67 68.6537 23.67 69.0088C23.9037 68.9729 24.1216 69.0061 24.217 68.9135Z" fill="#0E21A0"/>
<path d="M242.956 131.242C242.402 129.341 242.58 127.545 242.831 125.745C243.409 121.599 243.02 117.596 241.72 113.56C239.291 106.019 234.456 99.571 232.306 91.3904C231.224 94.0873 231.146 96.3648 230.972 98.6112C230.17 108.977 233.299 118.54 237.11 127.935C238.889 132.321 240.087 136.721 238.968 141.49C238.785 142.265 238.63 143.191 239.6 143.819C241.074 142.148 241.934 140.214 242.965 138.398C244.18 136.258 245.345 134.094 247.124 132.351C251.629 127.939 255.027 122.71 257.869 117.154C262.034 109.009 263.37 100.349 261.957 90.5957C259.297 98.2598 255.441 104.54 251.54 110.761C247.55 117.118 245.428 124.206 242.956 131.242Z" fill="#0E21A0"/>
<path d="M48.2881 36.2857C53.2451 32.3692 59.3597 32.3093 65.1153 31.1212C73.1119 29.468 81.0507 27.6694 88.5009 24.2094C89.4428 23.7736 90.6363 23.5557 91.3232 22.1999C81.14 22.5077 70.9618 20.3816 61.72 25.917L61.1208 25.3467C66.4046 21.5588 71.5997 17.6995 75.5016 12.3531C78.3418 8.46764 81.1204 4.49177 85.1476 1.66306C85.2146 1.61622 85.1351 1.3602 85.1242 1.19679C84.4106 0.958748 83.7438 1.18154 83.0591 1.3455C73.3548 3.67306 65.7123 8.99874 59.7279 16.9587C55.2906 22.8612 52.7135 29.9 48.0413 35.6386C47.9923 35.7007 48.1508 35.9354 48.2881 36.2857Z" fill="#0E21A0"/>
<path d="M239.462 74.6831C236.172 71.5237 232.779 68.4733 229.432 65.3755C229.144 64.864 228.538 64.0753 228.217 64.4925C227.762 65.0814 228.3 65.9758 228.732 66.6551C228.887 67.3354 228.999 68.0294 229.205 68.6939C231.866 77.2743 236.355 84.9052 241.837 91.9113C244.572 95.4078 246.694 98.9381 246.771 103.465C246.771 103.58 246.969 103.692 247.119 103.853C248.353 103.453 248.416 102.32 248.64 101.333C249.304 98.4136 250.324 95.6273 251.57 92.907C257.216 80.5916 258.316 68.1508 252.488 55.5456C252.137 54.8641 251.659 53.8521 251.537 55.581C251.414 57.3099 251.554 59.0574 251.579 60.7966C251.493 61.6682 251.505 62.5653 251.306 63.4113C249.597 70.7965 248.634 78.2597 248.675 85.8535C248.686 88.0547 248.416 90.2575 248.261 92.6723C247.364 91.9522 247.406 91.2015 247.37 90.5479C247.019 84.1137 243.974 79.0146 239.462 74.6831Z" fill="#0E21A0"/>
<path d="M231.462 45.8933C226.521 42.7546 220.652 41.3013 216.252 37.1397L215.658 37.7808C216.125 38.6829 216.559 39.6035 217.064 40.4826C221.72 48.5864 228.362 54.8086 236.027 59.9339C239.244 62.086 241.825 64.7148 244.089 67.7663C244.528 68.3573 244.716 69.2332 245.629 69.4037C249.173 55.9716 241.764 31.4131 232.478 26.4404C233.323 29.0098 234.2 31.411 234.358 33.9243C234.767 40.45 236.614 46.4756 239.98 52.0943C241.103 53.9687 241.589 56.1617 241.556 58.4332C240.77 57.4685 240.231 56.4063 239.649 55.3697C237.558 51.6586 235.103 48.2051 231.462 45.8933Z" fill="#0E21A0"/>
<path d="M81.6156 15.4064C86.6941 14.6231 91.2518 16.3422 95.9174 18.0249C103.715 20.8361 111.805 21.1417 120.049 19.7859C115.139 18.4045 110.945 15.4157 106.054 14.0294C101.105 12.6262 95.961 13.5871 90.9402 12.7379C101.416 10.1712 110.368 3.61226 121.874 2.0985C117.069 0.251372 112.967 -0.207822 108.692 0.275885C97.3337 1.56032 89.1001 8.73149 80.3164 15.2653C80.8072 15.3236 81.2256 15.4663 81.6156 15.4064Z" fill="#0E21A0"/>
<path d="M124.385 15.9236C129.24 20.9513 135.739 22.233 142.121 23.7898C142.511 23.8852 142.988 23.9451 143.382 23.1433C140.638 20.734 137.877 18.2272 135.023 15.8261C132.036 13.3117 127.85 13.5143 124.604 11.3622C128.974 11.2766 133.294 11.8524 137.58 10.8839C141.774 9.93827 146.061 9.69152 151.051 10.0407C142.336 3.74214 127 4.33915 116.051 10.9765C119.504 11.6677 122.104 13.5623 124.385 15.9236Z" fill="#0E21A0"/>
<path d="M222.577 28.372C219.022 25.8249 215.619 22.878 211.309 21.8355C207.131 20.8239 202.823 20.3462 197.821 19.5084C203.251 23.8019 208.324 27.2358 214.289 28.9663C219.576 30.5002 224.6 32.3604 228.812 37.1169C228.552 33.2559 226.642 30.6348 226.214 27.5844C225.669 23.6967 224.013 20.2138 221.956 16.921C219.88 13.5983 212.712 9.2253 209.536 9.26888C214.075 15.4666 218.613 21.6648 223.151 27.8633L222.577 28.372Z" fill="#0E21A0"/>
<path d="M168.994 29.9438C167.983 23.8266 155.338 16.0323 145.17 16.041C152.821 22.1511 161.153 25.9238 168.994 29.9438Z" fill="#0E21A0"/>
<path d="M185.005 4.83997C192.328 9.1345 198.669 15.1171 207.684 15.7032C204.242 9.72007 193.179 4.44723 185.005 4.83997Z" fill="#0E21A0"/>
<path d="M260.972 126.457C260.213 127.194 259.664 128.12 259.38 129.14C258.223 133.254 255.605 136.357 252.78 139.435C244.654 148.288 235.901 156.589 229.068 166.593C226.743 169.998 225.086 171.031 222.155 171.962C232.523 158.008 231.948 143.157 228.463 127.949C227.7 128.265 227.537 129.096 227.191 129.759C224.061 135.785 222.08 142.202 220.322 148.751C217.65 158.706 220.087 169.149 216.86 179.724C223.446 174.512 231.11 172.643 237.771 168.756C238.678 168.226 239.519 167.582 240.385 166.985C253.943 157.649 258.768 143.639 261.089 128.289C261.607 127.706 261.682 126.96 261.483 126.31C261.297 125.694 261.048 126.037 260.972 126.457Z" fill="#0E21A0"/>
<path d="M37.6465 270.117V247.5C37.6465 246.738 37.9102 246.084 38.4375 245.537C38.9844 244.99 39.6582 244.717 40.459 244.717H45.9375C46.6797 244.717 47.3242 244.99 47.8711 245.537C48.418 246.084 48.6914 246.738 48.6914 247.5V270.176C48.6914 273.047 49.3164 275.186 50.5664 276.592C51.8359 277.998 53.7891 278.701 56.4258 278.701H61.1133C63.75 278.701 65.6934 277.998 66.9434 276.592C68.2129 275.186 68.8477 273.047 68.8477 270.176V247.5C68.8477 246.738 69.1113 246.084 69.6387 245.537C70.1855 244.99 70.8398 244.717 71.6016 244.717H77.0508C77.8516 244.717 78.5254 244.99 79.0723 245.537C79.6191 246.084 79.8926 246.738 79.8926 247.5V270.117C79.8926 275.469 78.3203 279.619 75.1758 282.568C72.0312 285.498 67.4414 286.963 61.4062 286.963H56.1328C50.0781 286.963 45.4785 285.498 42.334 282.568C39.209 279.619 37.6465 275.469 37.6465 270.117ZM87.6855 283.975V247.5C87.6855 246.738 87.9492 246.084 88.4766 245.537C89.0039 244.99 89.6484 244.717 90.4102 244.717H99.0234C99.707 244.717 100.43 244.99 101.191 245.537C101.953 246.084 102.578 246.738 103.066 247.5L120.762 274.717V247.441C120.762 246.68 121.025 246.035 121.553 245.508C122.1 244.98 122.754 244.717 123.516 244.717H128.555C129.316 244.717 129.961 244.98 130.488 245.508C131.035 246.035 131.309 246.699 131.309 247.5V283.975C131.309 284.736 131.035 285.391 130.488 285.938C129.961 286.465 129.316 286.729 128.555 286.729H118.828C118.066 286.729 117.285 286.465 116.484 285.938C115.684 285.391 115.049 284.736 114.58 283.975L98.3789 258.838V283.975C98.3789 284.736 98.1055 285.391 97.5586 285.938C97.0312 286.465 96.3867 286.729 95.625 286.729H90.4688C89.707 286.729 89.0527 286.465 88.5059 285.938C87.959 285.391 87.6855 284.736 87.6855 283.975ZM139.717 283.916V247.441C139.717 246.68 139.99 246.035 140.537 245.508C141.084 244.98 141.738 244.717 142.5 244.717H176.279C177.041 244.717 177.686 244.99 178.213 245.537C178.76 246.084 179.033 246.738 179.033 247.5V250.254C179.033 251.016 178.76 251.67 178.213 252.217C177.686 252.744 177.041 253.008 176.279 253.008H150.762V261.533H172.734C173.496 261.533 174.141 261.807 174.668 262.354C175.215 262.881 175.488 263.525 175.488 264.287V267.041C175.488 267.803 175.215 268.457 174.668 269.004C174.141 269.531 173.496 269.795 172.734 269.795H150.762V278.438H176.221C176.963 278.438 177.598 278.701 178.125 279.229C178.652 279.756 178.916 280.4 178.916 281.162V283.975C178.916 284.736 178.643 285.391 178.096 285.938C177.549 286.465 176.895 286.729 176.133 286.729H142.5C141.738 286.729 141.084 286.465 140.537 285.938C139.99 285.391 139.717 284.717 139.717 283.916ZM184.424 283.975V247.5C184.424 246.738 184.688 246.084 185.215 245.537C185.742 244.99 186.387 244.717 187.148 244.717H209.502C221.318 244.717 227.227 250.166 227.227 261.064C227.227 271.943 221.318 277.383 209.502 277.383H195.469V283.975C195.469 284.736 195.195 285.391 194.648 285.938C194.121 286.465 193.477 286.729 192.715 286.729H187.207C186.445 286.729 185.791 286.465 185.244 285.938C184.697 285.391 184.424 284.736 184.424 283.975ZM195.469 269.092H206.162C209.443 269.092 211.934 268.545 213.633 267.451C215.332 266.338 216.182 264.209 216.182 261.064C216.182 257.9 215.332 255.771 213.633 254.678C211.934 253.564 209.443 253.008 206.162 253.008H195.469V269.092Z" fill="#0E21A0"/>
</svg>
