<svg width="266" height="336" viewBox="0 0 266 336" fill="none" xmlns="http://www.w3.org/2000/svg">
<path d="M143.178 0C144.209 0.790952 144.746 1.99357 145.435 3.0528C149.223 9.15839 152.998 15.2686 156.781 21.3788C159.524 26.0737 162.767 30.4447 165.833 34.9268C175.473 48.5718 184.27 62.7812 193.531 76.6807C196.528 82.3237 199.669 87.8928 202.56 93.5913C204.202 97.8097 206.089 101.954 207.361 106.302C208.508 111.478 210.566 116.464 210.936 121.793C211.635 126.141 211.241 130.553 211.343 134.934C211.519 140.373 210.802 145.785 210.335 151.192C209.562 154.43 208.896 157.695 207.999 160.905C207.042 163.769 205.783 166.525 204.706 169.347C203.526 172.589 201.69 175.536 200.09 178.584C197.879 182.987 194.756 186.836 192.027 190.915C189.849 193.048 188.017 195.499 185.76 197.562C182.874 200.731 179.293 203.127 175.94 205.758C172.323 208.039 168.627 210.204 164.95 212.382C161.943 213.728 158.849 214.871 155.792 216.092C151.416 217.299 146.971 218.252 142.558 219.302C137.836 219.88 133.145 220.999 128.377 220.995C129.464 219.806 130.37 218.465 131.55 217.359C133.677 215.518 134.265 212.627 135.555 210.236C136.411 208.321 137.785 206.545 137.9 204.38C138.233 200.823 139.131 197.312 138.946 193.718C138.812 190.286 139.408 186.729 138.085 183.45C137.23 178.704 134.889 174.458 132.979 170.092C127.53 160.952 121.744 152.015 116.101 142.996C112.946 137.353 109.717 131.751 106.669 126.053C105.106 122.126 103.612 118.171 102.16 114.207C99.6803 104.507 97.4924 94.5904 97.7515 84.5208C98.2464 79.3727 98.8754 74.2384 99.5045 69.1042C100.453 63.1096 101.498 57.1335 102.469 51.1436C102.571 50.385 102.83 49.6588 103.154 48.965C103.58 55.1122 104.366 61.2456 105.883 67.2263C107.465 72.268 109.468 77.171 111.41 82.0878C113.145 85.5523 114.472 89.2388 116.623 92.4859C120.675 98.1104 124.417 103.989 128.908 109.285C130.342 110.664 131.531 112.255 132.919 113.68C137.197 118.786 142.443 123 146.712 128.12C148.247 129.619 149.806 131.127 151.014 132.922C152.919 135.96 154.973 138.902 156.943 141.904C159.487 146.377 161.763 150.993 164.03 155.609C165.676 159.106 166.763 162.931 169.085 166.072C169.418 162.381 168.516 158.755 168.169 155.101C167.494 149.217 165.496 143.625 163.544 138.07C162.702 135.775 161.458 133.666 160.422 131.46C158.081 126.085 155.255 120.937 152.549 115.738C150.616 111.154 148.081 106.853 146.148 102.273C143.941 98.078 142.119 93.7116 139.936 89.5071C137.498 83.8409 134.797 78.2811 132.65 72.4947C131.503 69.0765 130.014 65.7739 129.038 62.3002C128.155 57.8135 127.068 53.3684 126.235 48.8725C125.102 40.2738 123.603 31.6473 124.08 22.9376C124.769 24.2605 125.129 25.7082 125.467 27.1514C126.115 29.9405 127.165 32.614 128.039 35.3384C128.705 37.2534 129.057 39.2839 129.995 41.0971C132.151 45.297 134.126 49.5848 136.462 53.6876C137.345 55.8847 138.987 57.6146 140.287 59.5619C143.65 64.118 146.647 68.9238 149.839 73.5955C155.667 81.4727 162.096 88.9058 167.573 97.0373C170.658 101.251 173.364 105.719 176.181 110.113C177.846 112.926 179.95 115.507 181.107 118.592C182.837 122.26 184.863 125.784 186.357 129.559C188.267 134.351 190.321 139.106 191.676 144.092C192.31 146.349 192.943 148.606 193.674 150.836C193.785 147.82 194.978 144.943 194.807 141.909C194.719 136.821 194.997 131.719 194.52 126.64C193.484 118.018 189.951 109.984 186.546 102.079C184.118 96.0659 180.727 90.5015 178.183 84.544C173.216 74.7426 168.932 64.6221 163.979 54.8162C161.587 50.5423 159.409 46.1527 157.013 41.8788C155.694 39.2238 154.691 36.43 153.493 33.7195C151.939 29.7786 150.065 25.958 148.886 21.8784C147.396 16.6146 145.32 11.5174 144.288 6.13335C143.89 4.09352 143.109 2.1092 143.178 0Z" fill="#0E21A0"/>
<path d="M198.355 65.7692C204.248 67.9525 210.469 69.4742 215.83 72.8647C221.524 76.4725 225.65 82.1665 228.055 88.3969C229.225 91.1306 229.692 94.1233 231.14 96.7413C222.625 91.1722 214.951 84.2849 208.642 76.2921C207.467 74.8536 206.547 73.2023 205.15 71.9535C202.879 69.8998 200.598 67.8553 198.355 65.7692Z" fill="#0E21A0"/>
<path d="M41.8437 76.3291C47.6717 71.5927 54.9846 69.3725 61.9644 66.9395C55.5119 72.0506 50.6551 78.7668 45.5764 85.1638C41.0758 90.2888 35.1321 93.7995 29.8961 98.0873C32.3106 93.5451 32.7547 88.2073 35.4559 83.7993C37.283 81.0749 39.2395 78.369 41.8437 76.3291Z" fill="#0E21A0"/>
<path d="M223.707 76.7593C229.271 77.8972 234.165 81.3293 237.704 85.7003C240.248 88.841 242.139 92.583 242.732 96.6117C244.004 104.697 241.529 112.935 243.347 120.983C239.563 114.429 233.037 110.275 227.019 106.006C223.129 103.189 219.058 100.391 216.251 96.4128C213.665 92.7957 212.25 88.4987 211.371 84.1785C212.634 86.4034 214.16 88.4941 216.126 90.1546C220.663 94.0816 226.237 96.547 230.937 100.252C232.667 101.598 234.147 103.226 235.668 104.79C237.283 106.455 237.898 108.804 239.461 110.497C239.008 109.087 238.282 107.791 237.736 106.422C235.557 101.14 234.304 95.5479 232.69 90.0806C231.95 87.6014 231.279 85.0435 229.822 82.8695C228.282 80.3903 226.098 78.3967 223.707 76.7593Z" fill="#0E21A0"/>
<path d="M24.7064 85.5662C27.9257 82.0185 32.158 79.3634 36.8389 78.2718C34.17 80.0434 31.8804 82.4209 30.4604 85.3164C27.7175 90.7883 27.329 97.028 25.3493 102.759C24.3687 105.914 22.7452 108.846 22.0514 112.088C24.0958 108.282 26.6028 104.665 29.9701 101.889C34.6788 98.0364 40.3219 95.4646 44.8317 91.348C46.7189 89.6181 48.2777 87.5366 49.2814 85.173C49.4155 85.2424 49.6884 85.3765 49.8272 85.4413L49.1843 85.6309C49.1611 91.1583 46.1592 96.1816 42.593 100.206C38.7816 104.48 34.1377 107.893 29.355 110.997C25.2291 114.133 21.2465 117.695 18.6655 122.255C18.4204 119.244 19.1327 116.242 18.8228 113.231C18.1938 107.107 17.6294 100.789 19.2807 94.7662C20.2104 91.2786 22.1023 88.0732 24.7064 85.5662Z" fill="#0E21A0"/>
<path d="M243.782 91.7781C245.456 92.805 246.515 94.4933 247.699 96.0104C255.729 105.659 257.921 119.776 253.333 131.437C251.598 135.257 249.919 139.129 248.865 143.204C248.25 145.234 247.977 147.344 247.385 149.383C246.154 142.172 241.608 136.219 236.987 130.798C233.24 126.279 229.207 121.862 226.695 116.497C225.118 113.027 223.832 109.415 223.069 105.678C227.773 112.884 236.006 116.561 241.478 123.046C243.189 125.044 244.341 127.445 245.285 129.887C246.066 132.033 245.988 134.425 247.033 136.483C247.144 135.045 246.839 133.629 246.691 132.209C245.784 123.745 246.261 115.192 247.482 106.788C247.727 101.589 246.885 96.0891 243.782 91.7781Z" fill="#0E21A0"/>
<path d="M13.98 97.0327C15.0161 95.7237 15.9828 94.3314 17.2825 93.2675C15.8163 95.6959 14.5073 98.2769 14.1234 101.126C12.708 110.303 16.598 119.327 15.5665 128.518C15.3537 131.65 14.9004 134.776 14.9097 137.917C15.8163 136.936 15.6868 135.498 16.0013 134.281C16.635 130.313 18.6887 126.728 21.2604 123.698C24.7573 119.628 28.9895 116.298 33.1386 112.926C35.1321 111.316 36.8019 109.309 38.0045 107.047C37.3709 111.705 35.7334 116.187 33.6057 120.363C29.1838 127.912 22.7128 134.027 18.351 141.617C16.6766 144.485 15.4832 147.621 14.8218 150.873C13.869 140.826 6.81977 132.528 6.07045 122.445C5.95481 118.652 5.92706 114.794 6.86603 111.089C8.11027 105.932 10.7468 101.209 13.98 97.0327Z" fill="#0E21A0"/>
<path d="M57.2557 103.698C57.9264 101.889 58.5138 100.053 59.3186 98.3C59.6008 100.867 58.8653 103.374 58.4675 105.886C57.1678 113.268 56.918 120.955 58.7265 128.278C60.0032 132.575 61.5434 136.788 63.2225 140.947C64.1059 144.138 66.4418 146.576 68.0145 149.42C69.5038 152.136 71.8582 154.171 73.8101 156.53C76.5253 159.587 79.9897 161.78 83.1998 164.259C86.5718 166.997 90.73 168.45 94.4766 170.568C96.5442 171.831 98.8569 172.608 101.068 173.584C102.423 173.662 101.998 172.067 101.498 171.359C98.0382 165.813 95.1242 159.948 91.6921 154.384C91.0538 153.324 90.3785 152.274 89.916 151.118C88.1583 146.15 86.5116 141.132 85.3784 135.979C84.3747 127.514 84.8002 118.98 84.7169 110.479C84.7863 108.703 84.5042 106.894 84.939 105.155C85.9381 109.794 85.8548 114.628 87.0389 119.249C88.9909 128.236 92.113 136.973 96.4008 145.11C99.7774 150.276 103.279 155.378 107.266 160.101C110.661 163.486 114.042 166.891 117.447 170.272C120.527 172.58 122.729 175.776 125.319 178.579C128.326 184.676 129.787 191.558 129.464 198.362C128.821 201.309 128.27 204.329 126.661 206.943C126.018 208.76 124.598 210.046 123.27 211.369C121.536 213.895 118.682 215.236 116.517 217.341C115.823 216.073 115.837 214.565 115.148 213.303C114.343 211.577 112.978 210.222 111.679 208.876C107.951 206.836 104.213 204.787 100.3 203.113C93.6256 199.255 86.692 195.758 80.6327 190.943C77.603 188.422 74.3051 186.197 71.6593 183.251C70.2717 181.651 68.3382 180.619 67.094 178.885C64.6841 175.776 61.9551 172.899 59.8829 169.541C58.3981 167.011 56.474 164.712 55.461 161.932C53.7727 157.931 51.4738 154.078 50.9003 149.712C49.6792 144.425 50.0215 138.958 49.966 133.574C49.7023 129.143 51.3073 124.919 52.0058 120.595C52.991 114.743 55.4841 109.322 57.2557 103.698Z" fill="#0E21A0"/>
<path d="M258.37 122.227C264.443 134.517 262.769 149.721 255.914 161.34C251.048 167.723 245.243 173.353 240.558 179.884C241.006 174.967 241.612 169.833 239.97 165.064C236.251 155.179 232.967 145.031 231.667 134.508C231.302 132.316 231.427 130.095 231.561 127.894C233.892 136.765 241.302 143.005 244.651 151.4C246.094 154.842 246.335 158.63 246.099 162.316C245.9 164.569 245.03 166.683 244.707 168.912C245.164 168.487 245.609 168.019 245.696 167.372C247.181 162.099 248.125 156.655 250.188 151.557C252.894 145.308 256.594 139.411 258.107 132.695C258.921 129.267 258.953 125.692 258.37 122.227Z" fill="#0E21A0"/>
<path d="M3.54958 123.833C2.88352 127.376 2.9344 131.053 3.88724 134.536C5.99644 142.552 11.2417 149.282 13.6099 157.196C14.8866 161.128 15.2705 165.304 16.8154 169.153C17.0096 169.661 17.3242 170.092 17.7451 170.448C16.857 167.339 15.9458 164.171 16.1956 160.896C16.6026 152.547 21.2188 145.216 25.9691 138.629C28.0645 135.877 29.2393 132.588 30.2569 129.323C30.9091 134.984 29.5076 140.591 28.638 146.146C26.9451 153.704 24.1883 160.961 21.9496 168.362C20.7609 172.608 21.3159 177.044 21.8386 181.341C20.4232 179.916 19.5305 178.084 18.1984 176.59C13.3185 170.522 6.90303 165.489 3.70685 158.218C0.913077 150.72 -0.724331 142.57 0.395027 134.568C1.13047 130.914 1.9353 127.214 3.54958 123.833Z" fill="#0E21A0"/>
<path d="M233.568 154.781C232.445 164.55 237.787 173.801 236.404 183.556C235.803 188.33 233.578 192.668 230.964 196.628C232.005 196.124 232.611 195.101 233.323 194.241C237.005 189.611 240.373 184.685 244.688 180.596C249.966 175.869 255.6 171.253 259.207 165.045C260.734 162.497 261.617 159.633 262.126 156.724C263.074 162.959 262.219 169.449 259.568 175.18C255.655 183.788 248.583 190.582 240.71 195.629C234.17 199.551 227.481 203.242 221.121 207.461C222.245 205.19 223.665 203.062 224.461 200.643C229.1 188.177 226.949 174.44 230.849 161.807C231.57 159.393 232.68 157.131 233.568 154.781Z" fill="#0E21A0"/>
<path d="M28.8415 161.794C29.0173 160.059 28.86 158.311 28.897 156.571C35.1136 169.606 33.5364 184.468 36.7557 198.237C37.5235 201.975 39.8547 205.088 41.3996 208.506C31.2005 202.308 20.1688 197.164 11.3712 188.94C5.48302 183.478 1.16748 176.082 0.256263 168.029C-0.0813944 164.86 -0.109147 161.646 0.316394 158.482C0.496786 162.228 2.16657 165.721 4.33128 168.722C10.3582 176.956 19.5259 182.275 25.3817 190.666C27.2781 193.131 28.9525 195.855 31.4364 197.803C30.9739 196.831 30.3726 195.943 29.7666 195.064C26.6213 190.152 25.3169 184.181 25.7934 178.394C26.1819 172.751 28.3374 167.418 28.8415 161.794Z" fill="#0E21A0"/>
<path d="M218.582 186.456C220.659 183.801 222.666 181.072 225.058 178.695C220.7 187.03 221.579 196.836 218.286 205.509C215.969 211.513 211.366 216.24 206.547 220.333C209.354 219.575 211.246 217.253 213.582 215.689C221.376 210.143 230.617 207.276 238.976 202.747C245.109 199.528 250.71 194.819 253.846 188.538C252.709 195.744 248.569 202.104 243.555 207.248C237.347 213.529 229.66 218.367 221.265 221.115C212.86 223.483 204.021 223.881 195.658 226.453C200.931 222.359 204.572 216.554 206.991 210.407C210.302 202.192 212.615 193.27 218.582 186.456Z" fill="#0E21A0"/>
<path d="M37.1627 179.935C42.0518 185.277 46.8114 190.883 50.0353 197.419C53.3842 204.759 55.2806 212.817 59.8876 219.552C61.8441 222.475 64.365 224.977 67.1449 227.114C56.6682 224.084 45.3405 224.547 35.257 220.093C26.2605 215.68 18.0041 209.232 12.6848 200.633C10.7283 197.451 9.27126 193.95 8.54044 190.282C10.5433 193.996 13.2676 197.34 16.672 199.856C26.3068 207.174 38.7076 209.468 48.4627 216.596C50.9003 218.446 53.4535 220.204 56.326 221.314C53.9068 219.08 51.1963 217.142 49.0825 214.593C47.1583 212.229 45.396 209.685 44.2998 206.822C40.8862 198.14 41.654 188.26 37.1627 179.935Z" fill="#0E21A0"/>
<path d="M182.258 223.627C190.228 216.786 197.731 209.232 206.801 203.82C201.935 209.611 200.043 217.308 194.951 222.942C192.541 225.662 189.34 227.535 186.019 228.923C183.609 229.857 181.028 230.255 178.646 231.268C181.31 231.286 183.937 230.75 186.551 230.264C196.967 228.317 207.694 228.886 218.069 226.652C224.114 225.375 229.951 222.637 234.248 218.122C230.696 224.894 224.382 229.778 217.685 233.206C210.548 236.86 202.407 238.428 194.419 237.739C183.419 236.962 172.883 233.331 161.948 232.096C169.131 230.551 176.569 228.53 182.258 223.627Z" fill="#0E21A0"/>
<path d="M55.7154 204.764C64.3095 209.912 71.6454 216.795 79.2497 223.247C85.2951 228.594 93.2416 231.032 101.031 232.48C99.1021 232.975 97.09 232.97 95.1381 233.331C84.9898 235.532 74.8786 238.59 64.402 238.585C56.0715 238.669 47.755 236.236 40.7382 231.758C35.8306 228.641 31.4272 224.566 28.453 219.533C31.9961 222.905 36.3348 225.403 41.0481 226.726C52.4221 230.074 64.4621 228.789 76.0442 230.828C78.8149 231.198 81.5531 232.119 84.3793 231.846C82.8066 231.101 81.0767 230.847 79.3977 230.454C75.4522 229.353 71.6316 227.493 68.7499 224.529C63.1022 218.858 60.7155 210.916 55.7154 204.764Z" fill="#0E21A0"/>
<path d="M89.3933 239.039C97.2658 235.944 105.36 233.021 113.857 232.332C118.575 231.888 123.335 232.309 127.974 233.215C129.427 233.544 130.851 234.256 132.378 234.103C135.574 232.679 139.117 232.424 142.563 232.151C152.239 231.587 162.022 233.497 170.81 237.568C176.588 239.515 182.203 242.207 188.318 242.942C196.671 244.02 205.478 242.744 212.823 238.479C206.954 244.825 198.767 248.835 190.279 250.218C178.651 251.934 166.916 247.845 157.318 241.448C153.46 239.191 149.839 236.129 145.287 235.445C142.554 235.213 139.769 235.278 137.072 235.842C147.766 240.352 157.716 246.578 166.476 254.182C164.834 255.787 162.989 257.156 161.143 258.516C152.563 250.297 143.349 242.355 132.391 237.494C130.268 237.359 128.307 238.696 126.406 239.552C117.396 244.598 108.959 250.894 102.284 258.826C100.42 257.443 98.5609 256.06 96.6922 254.682C103.973 248.1 112.123 242.461 120.962 238.183C122.636 237.304 124.44 236.689 126.082 235.741C120.934 234.177 115.458 235.741 111.003 238.465C104.481 242.461 98.1631 247.068 90.7578 249.302C82.6031 251.86 73.5557 252.119 65.5121 249.016C59.9153 246.957 54.3694 244.09 50.4331 239.506C58.5462 244.099 68.3799 244.964 77.4226 243.16C81.5994 242.387 85.4431 240.523 89.3933 239.039Z" fill="#0E21A0"/>
<path d="M19.377 302.215V279.598C19.377 278.836 19.6406 278.182 20.168 277.635C20.7148 277.088 21.3887 276.814 22.1895 276.814H27.668C28.4102 276.814 29.0547 277.088 29.6016 277.635C30.1484 278.182 30.4219 278.836 30.4219 279.598V302.273C30.4219 305.145 31.0469 307.283 32.2969 308.689C33.5664 310.096 35.5195 310.799 38.1562 310.799H42.8438C45.4805 310.799 47.4238 310.096 48.6738 308.689C49.9434 307.283 50.5781 305.145 50.5781 302.273V279.598C50.5781 278.836 50.8418 278.182 51.3691 277.635C51.916 277.088 52.5703 276.814 53.332 276.814H58.7812C59.582 276.814 60.2559 277.088 60.8027 277.635C61.3496 278.182 61.623 278.836 61.623 279.598V302.215C61.623 307.566 60.0508 311.717 56.9062 314.666C53.7617 317.596 49.1719 319.061 43.1367 319.061H37.8633C31.8086 319.061 27.209 317.596 24.0645 314.666C20.9395 311.717 19.377 307.566 19.377 302.215ZM69.416 316.072V279.598C69.416 278.836 69.6797 278.182 70.207 277.635C70.7344 277.088 71.3789 276.814 72.1406 276.814H80.7539C81.4375 276.814 82.1602 277.088 82.9219 277.635C83.6836 278.182 84.3086 278.836 84.7969 279.598L102.492 306.814V279.539C102.492 278.777 102.756 278.133 103.283 277.605C103.83 277.078 104.484 276.814 105.246 276.814H110.285C111.047 276.814 111.691 277.078 112.219 277.605C112.766 278.133 113.039 278.797 113.039 279.598V316.072C113.039 316.834 112.766 317.488 112.219 318.035C111.691 318.562 111.047 318.826 110.285 318.826H100.559C99.7969 318.826 99.0156 318.562 98.2148 318.035C97.4141 317.488 96.7793 316.834 96.3105 316.072L80.1094 290.936V316.072C80.1094 316.834 79.8359 317.488 79.2891 318.035C78.7617 318.562 78.1172 318.826 77.3555 318.826H72.1992C71.4375 318.826 70.7832 318.562 70.2363 318.035C69.6895 317.488 69.416 316.834 69.416 316.072ZM121.447 316.072V279.598C121.447 278.836 121.721 278.182 122.268 277.635C122.814 277.088 123.488 276.814 124.289 276.814H129.738C130.5 276.814 131.145 277.088 131.672 277.635C132.219 278.182 132.492 278.836 132.492 279.598V292.781H152.648V279.598C152.648 278.836 152.922 278.182 153.469 277.635C154.016 277.088 154.67 276.814 155.432 276.814H160.881C161.682 276.814 162.346 277.088 162.873 277.635C163.42 278.182 163.693 278.836 163.693 279.598V316.072C163.693 316.834 163.41 317.488 162.844 318.035C162.297 318.562 161.643 318.826 160.881 318.826H155.432C154.67 318.826 154.016 318.572 153.469 318.064C152.922 317.537 152.648 316.893 152.648 316.131V301.072H132.492V316.131C132.492 316.893 132.219 317.537 131.672 318.064C131.145 318.572 130.5 318.826 129.738 318.826H124.289C123.527 318.826 122.863 318.562 122.297 318.035C121.73 317.488 121.447 316.834 121.447 316.072ZM215.754 317.566C215.754 318.406 215.256 318.826 214.26 318.826H207.229C206.486 318.826 205.666 318.562 204.768 318.035C203.889 317.488 203.215 316.834 202.746 316.072L197.766 308.279C195.715 305.076 193.234 303.475 190.324 303.475H183.176V316.072C183.176 316.834 182.902 317.488 182.355 318.035C181.828 318.562 181.184 318.826 180.422 318.826H174.914C174.152 318.826 173.498 318.562 172.951 318.035C172.404 317.488 172.131 316.834 172.131 316.072V279.598C172.131 278.836 172.395 278.182 172.922 277.635C173.449 277.088 174.094 276.814 174.855 276.814H199.025C203.498 276.814 207.16 278.016 210.012 280.418C212.883 282.82 214.318 286.062 214.318 290.145C214.318 295.828 210.637 299.393 203.273 300.838C204.445 301.268 205.529 302.01 206.525 303.064C207.521 304.1 208.664 305.613 209.953 307.605L215.285 316.072C215.598 316.619 215.754 317.117 215.754 317.566ZM183.176 295.184H195.656C197.668 295.184 199.436 294.783 200.959 293.982C202.502 293.182 203.273 291.902 203.273 290.145C203.273 288.387 202.502 287.107 200.959 286.307C199.436 285.506 197.668 285.105 195.656 285.105H183.176V295.184ZM223.664 313.875C220.051 310.418 218.244 305.076 218.244 297.85C218.244 290.604 220.051 285.252 223.664 281.795C227.297 278.318 232.736 276.58 239.982 276.58H246.516C250.949 276.58 254.865 277.732 258.264 280.037C261.682 282.342 263.391 285.496 263.391 289.5C263.391 290.652 263.049 291.482 262.365 291.99C261.682 292.479 261.018 292.723 260.373 292.723H256.887C255.09 292.723 253.693 291.648 252.697 289.5C251.252 286.414 248.85 284.871 245.49 284.871H240.275C235.998 284.871 233.098 285.789 231.574 287.625C230.051 289.461 229.289 292.859 229.289 297.82C229.289 302.781 230.051 306.189 231.574 308.045C233.098 309.881 235.998 310.799 240.275 310.799H246.105C249.465 310.799 251.857 309.256 253.283 306.17C254.279 304.002 255.686 302.918 257.502 302.918H260.988C261.906 302.918 262.629 303.26 263.156 303.943C263.703 304.627 263.977 305.369 263.977 306.17C263.977 310.174 262.277 313.328 258.879 315.633C255.48 317.918 251.564 319.061 247.131 319.061H239.982C232.736 319.061 227.297 317.332 223.664 313.875Z" fill="#0E21A0"/>
</svg>
